%TF.GenerationSoftware,KiCad,Pcbnew,7.0.7*%
%TF.CreationDate,2023-11-07T23:05:13-03:00*%
%TF.ProjectId,robot seg,726f626f-7420-4736-9567-2e6b69636164,rev?*%
%TF.SameCoordinates,Original*%
%TF.FileFunction,Legend,Top*%
%TF.FilePolarity,Positive*%
%FSLAX46Y46*%
G04 Gerber Fmt 4.6, Leading zero omitted, Abs format (unit mm)*
G04 Created by KiCad (PCBNEW 7.0.7) date 2023-11-07 23:05:13*
%MOMM*%
%LPD*%
G01*
G04 APERTURE LIST*
%ADD10C,0.150000*%
%ADD11C,0.120000*%
%ADD12C,0.127000*%
G04 APERTURE END LIST*
D10*
X175731419Y-91111294D02*
X174731419Y-91111294D01*
X174731419Y-91111294D02*
X174731419Y-90873199D01*
X174731419Y-90873199D02*
X174779038Y-90730342D01*
X174779038Y-90730342D02*
X174874276Y-90635104D01*
X174874276Y-90635104D02*
X174969514Y-90587485D01*
X174969514Y-90587485D02*
X175159990Y-90539866D01*
X175159990Y-90539866D02*
X175302847Y-90539866D01*
X175302847Y-90539866D02*
X175493323Y-90587485D01*
X175493323Y-90587485D02*
X175588561Y-90635104D01*
X175588561Y-90635104D02*
X175683800Y-90730342D01*
X175683800Y-90730342D02*
X175731419Y-90873199D01*
X175731419Y-90873199D02*
X175731419Y-91111294D01*
X175731419Y-89587485D02*
X175731419Y-90158913D01*
X175731419Y-89873199D02*
X174731419Y-89873199D01*
X174731419Y-89873199D02*
X174874276Y-89968437D01*
X174874276Y-89968437D02*
X174969514Y-90063675D01*
X174969514Y-90063675D02*
X175017133Y-90158913D01*
X156205019Y-95075333D02*
X156919304Y-95075333D01*
X156919304Y-95075333D02*
X157062161Y-95122952D01*
X157062161Y-95122952D02*
X157157400Y-95218190D01*
X157157400Y-95218190D02*
X157205019Y-95361047D01*
X157205019Y-95361047D02*
X157205019Y-95456285D01*
X156538352Y-94170571D02*
X157205019Y-94170571D01*
X156157400Y-94408666D02*
X156871685Y-94646761D01*
X156871685Y-94646761D02*
X156871685Y-94027714D01*
X184559409Y-118353715D02*
X184607028Y-118210858D01*
X184607028Y-118210858D02*
X184654647Y-118163239D01*
X184654647Y-118163239D02*
X184749885Y-118115620D01*
X184749885Y-118115620D02*
X184892742Y-118115620D01*
X184892742Y-118115620D02*
X184987980Y-118163239D01*
X184987980Y-118163239D02*
X185035600Y-118210858D01*
X185035600Y-118210858D02*
X185083219Y-118306096D01*
X185083219Y-118306096D02*
X185083219Y-118687048D01*
X185083219Y-118687048D02*
X184083219Y-118687048D01*
X184083219Y-118687048D02*
X184083219Y-118353715D01*
X184083219Y-118353715D02*
X184130838Y-118258477D01*
X184130838Y-118258477D02*
X184178457Y-118210858D01*
X184178457Y-118210858D02*
X184273695Y-118163239D01*
X184273695Y-118163239D02*
X184368933Y-118163239D01*
X184368933Y-118163239D02*
X184464171Y-118210858D01*
X184464171Y-118210858D02*
X184511790Y-118258477D01*
X184511790Y-118258477D02*
X184559409Y-118353715D01*
X184559409Y-118353715D02*
X184559409Y-118687048D01*
X184083219Y-117829905D02*
X184083219Y-117258477D01*
X185083219Y-117544191D02*
X184083219Y-117544191D01*
X185083219Y-116401334D02*
X185083219Y-116972762D01*
X185083219Y-116687048D02*
X184083219Y-116687048D01*
X184083219Y-116687048D02*
X184226076Y-116782286D01*
X184226076Y-116782286D02*
X184321314Y-116877524D01*
X184321314Y-116877524D02*
X184368933Y-116972762D01*
X189243100Y-114139429D02*
X189243100Y-112996572D01*
X189814528Y-113568000D02*
X188671671Y-113568000D01*
X202539695Y-59230419D02*
X202539695Y-58230419D01*
X202539695Y-58706609D02*
X203111123Y-58706609D01*
X203111123Y-59230419D02*
X203111123Y-58230419D01*
X203492076Y-58230419D02*
X204111123Y-58230419D01*
X204111123Y-58230419D02*
X203777790Y-58611371D01*
X203777790Y-58611371D02*
X203920647Y-58611371D01*
X203920647Y-58611371D02*
X204015885Y-58658990D01*
X204015885Y-58658990D02*
X204063504Y-58706609D01*
X204063504Y-58706609D02*
X204111123Y-58801847D01*
X204111123Y-58801847D02*
X204111123Y-59039942D01*
X204111123Y-59039942D02*
X204063504Y-59135180D01*
X204063504Y-59135180D02*
X204015885Y-59182800D01*
X204015885Y-59182800D02*
X203920647Y-59230419D01*
X203920647Y-59230419D02*
X203634933Y-59230419D01*
X203634933Y-59230419D02*
X203539695Y-59182800D01*
X203539695Y-59182800D02*
X203492076Y-59135180D01*
X202539695Y-117311219D02*
X202539695Y-116311219D01*
X202539695Y-116787409D02*
X203111123Y-116787409D01*
X203111123Y-117311219D02*
X203111123Y-116311219D01*
X204015885Y-116644552D02*
X204015885Y-117311219D01*
X203777790Y-116263600D02*
X203539695Y-116977885D01*
X203539695Y-116977885D02*
X204158742Y-116977885D01*
X117337219Y-101154494D02*
X116337219Y-101154494D01*
X116337219Y-101154494D02*
X116337219Y-100916399D01*
X116337219Y-100916399D02*
X116384838Y-100773542D01*
X116384838Y-100773542D02*
X116480076Y-100678304D01*
X116480076Y-100678304D02*
X116575314Y-100630685D01*
X116575314Y-100630685D02*
X116765790Y-100583066D01*
X116765790Y-100583066D02*
X116908647Y-100583066D01*
X116908647Y-100583066D02*
X117099123Y-100630685D01*
X117099123Y-100630685D02*
X117194361Y-100678304D01*
X117194361Y-100678304D02*
X117289600Y-100773542D01*
X117289600Y-100773542D02*
X117337219Y-100916399D01*
X117337219Y-100916399D02*
X117337219Y-101154494D01*
X117337219Y-100106875D02*
X117337219Y-99916399D01*
X117337219Y-99916399D02*
X117289600Y-99821161D01*
X117289600Y-99821161D02*
X117241980Y-99773542D01*
X117241980Y-99773542D02*
X117099123Y-99678304D01*
X117099123Y-99678304D02*
X116908647Y-99630685D01*
X116908647Y-99630685D02*
X116527695Y-99630685D01*
X116527695Y-99630685D02*
X116432457Y-99678304D01*
X116432457Y-99678304D02*
X116384838Y-99725923D01*
X116384838Y-99725923D02*
X116337219Y-99821161D01*
X116337219Y-99821161D02*
X116337219Y-100011637D01*
X116337219Y-100011637D02*
X116384838Y-100106875D01*
X116384838Y-100106875D02*
X116432457Y-100154494D01*
X116432457Y-100154494D02*
X116527695Y-100202113D01*
X116527695Y-100202113D02*
X116765790Y-100202113D01*
X116765790Y-100202113D02*
X116861028Y-100154494D01*
X116861028Y-100154494D02*
X116908647Y-100106875D01*
X116908647Y-100106875D02*
X116956266Y-100011637D01*
X116956266Y-100011637D02*
X116956266Y-99821161D01*
X116956266Y-99821161D02*
X116908647Y-99725923D01*
X116908647Y-99725923D02*
X116861028Y-99678304D01*
X116861028Y-99678304D02*
X116765790Y-99630685D01*
X145324533Y-63198819D02*
X144991200Y-62722628D01*
X144753105Y-63198819D02*
X144753105Y-62198819D01*
X144753105Y-62198819D02*
X145134057Y-62198819D01*
X145134057Y-62198819D02*
X145229295Y-62246438D01*
X145229295Y-62246438D02*
X145276914Y-62294057D01*
X145276914Y-62294057D02*
X145324533Y-62389295D01*
X145324533Y-62389295D02*
X145324533Y-62532152D01*
X145324533Y-62532152D02*
X145276914Y-62627390D01*
X145276914Y-62627390D02*
X145229295Y-62675009D01*
X145229295Y-62675009D02*
X145134057Y-62722628D01*
X145134057Y-62722628D02*
X144753105Y-62722628D01*
X146229295Y-62198819D02*
X145753105Y-62198819D01*
X145753105Y-62198819D02*
X145705486Y-62675009D01*
X145705486Y-62675009D02*
X145753105Y-62627390D01*
X145753105Y-62627390D02*
X145848343Y-62579771D01*
X145848343Y-62579771D02*
X146086438Y-62579771D01*
X146086438Y-62579771D02*
X146181676Y-62627390D01*
X146181676Y-62627390D02*
X146229295Y-62675009D01*
X146229295Y-62675009D02*
X146276914Y-62770247D01*
X146276914Y-62770247D02*
X146276914Y-63008342D01*
X146276914Y-63008342D02*
X146229295Y-63103580D01*
X146229295Y-63103580D02*
X146181676Y-63151200D01*
X146181676Y-63151200D02*
X146086438Y-63198819D01*
X146086438Y-63198819D02*
X145848343Y-63198819D01*
X145848343Y-63198819D02*
X145753105Y-63151200D01*
X145753105Y-63151200D02*
X145705486Y-63103580D01*
X150144314Y-67298819D02*
X150144314Y-66298819D01*
X150144314Y-66298819D02*
X150382409Y-66298819D01*
X150382409Y-66298819D02*
X150525266Y-66346438D01*
X150525266Y-66346438D02*
X150620504Y-66441676D01*
X150620504Y-66441676D02*
X150668123Y-66536914D01*
X150668123Y-66536914D02*
X150715742Y-66727390D01*
X150715742Y-66727390D02*
X150715742Y-66870247D01*
X150715742Y-66870247D02*
X150668123Y-67060723D01*
X150668123Y-67060723D02*
X150620504Y-67155961D01*
X150620504Y-67155961D02*
X150525266Y-67251200D01*
X150525266Y-67251200D02*
X150382409Y-67298819D01*
X150382409Y-67298819D02*
X150144314Y-67298819D01*
X151668123Y-67298819D02*
X151096695Y-67298819D01*
X151382409Y-67298819D02*
X151382409Y-66298819D01*
X151382409Y-66298819D02*
X151287171Y-66441676D01*
X151287171Y-66441676D02*
X151191933Y-66536914D01*
X151191933Y-66536914D02*
X151096695Y-66584533D01*
X152287171Y-66298819D02*
X152382409Y-66298819D01*
X152382409Y-66298819D02*
X152477647Y-66346438D01*
X152477647Y-66346438D02*
X152525266Y-66394057D01*
X152525266Y-66394057D02*
X152572885Y-66489295D01*
X152572885Y-66489295D02*
X152620504Y-66679771D01*
X152620504Y-66679771D02*
X152620504Y-66917866D01*
X152620504Y-66917866D02*
X152572885Y-67108342D01*
X152572885Y-67108342D02*
X152525266Y-67203580D01*
X152525266Y-67203580D02*
X152477647Y-67251200D01*
X152477647Y-67251200D02*
X152382409Y-67298819D01*
X152382409Y-67298819D02*
X152287171Y-67298819D01*
X152287171Y-67298819D02*
X152191933Y-67251200D01*
X152191933Y-67251200D02*
X152144314Y-67203580D01*
X152144314Y-67203580D02*
X152096695Y-67108342D01*
X152096695Y-67108342D02*
X152049076Y-66917866D01*
X152049076Y-66917866D02*
X152049076Y-66679771D01*
X152049076Y-66679771D02*
X152096695Y-66489295D01*
X152096695Y-66489295D02*
X152144314Y-66394057D01*
X152144314Y-66394057D02*
X152191933Y-66346438D01*
X152191933Y-66346438D02*
X152287171Y-66298819D01*
X136661333Y-68283380D02*
X136613714Y-68331000D01*
X136613714Y-68331000D02*
X136470857Y-68378619D01*
X136470857Y-68378619D02*
X136375619Y-68378619D01*
X136375619Y-68378619D02*
X136232762Y-68331000D01*
X136232762Y-68331000D02*
X136137524Y-68235761D01*
X136137524Y-68235761D02*
X136089905Y-68140523D01*
X136089905Y-68140523D02*
X136042286Y-67950047D01*
X136042286Y-67950047D02*
X136042286Y-67807190D01*
X136042286Y-67807190D02*
X136089905Y-67616714D01*
X136089905Y-67616714D02*
X136137524Y-67521476D01*
X136137524Y-67521476D02*
X136232762Y-67426238D01*
X136232762Y-67426238D02*
X136375619Y-67378619D01*
X136375619Y-67378619D02*
X136470857Y-67378619D01*
X136470857Y-67378619D02*
X136613714Y-67426238D01*
X136613714Y-67426238D02*
X136661333Y-67473857D01*
X137518476Y-67378619D02*
X137328000Y-67378619D01*
X137328000Y-67378619D02*
X137232762Y-67426238D01*
X137232762Y-67426238D02*
X137185143Y-67473857D01*
X137185143Y-67473857D02*
X137089905Y-67616714D01*
X137089905Y-67616714D02*
X137042286Y-67807190D01*
X137042286Y-67807190D02*
X137042286Y-68188142D01*
X137042286Y-68188142D02*
X137089905Y-68283380D01*
X137089905Y-68283380D02*
X137137524Y-68331000D01*
X137137524Y-68331000D02*
X137232762Y-68378619D01*
X137232762Y-68378619D02*
X137423238Y-68378619D01*
X137423238Y-68378619D02*
X137518476Y-68331000D01*
X137518476Y-68331000D02*
X137566095Y-68283380D01*
X137566095Y-68283380D02*
X137613714Y-68188142D01*
X137613714Y-68188142D02*
X137613714Y-67950047D01*
X137613714Y-67950047D02*
X137566095Y-67854809D01*
X137566095Y-67854809D02*
X137518476Y-67807190D01*
X137518476Y-67807190D02*
X137423238Y-67759571D01*
X137423238Y-67759571D02*
X137232762Y-67759571D01*
X137232762Y-67759571D02*
X137137524Y-67807190D01*
X137137524Y-67807190D02*
X137089905Y-67854809D01*
X137089905Y-67854809D02*
X137042286Y-67950047D01*
X160895495Y-68202219D02*
X160895495Y-69011742D01*
X160895495Y-69011742D02*
X160943114Y-69106980D01*
X160943114Y-69106980D02*
X160990733Y-69154600D01*
X160990733Y-69154600D02*
X161085971Y-69202219D01*
X161085971Y-69202219D02*
X161276447Y-69202219D01*
X161276447Y-69202219D02*
X161371685Y-69154600D01*
X161371685Y-69154600D02*
X161419304Y-69106980D01*
X161419304Y-69106980D02*
X161466923Y-69011742D01*
X161466923Y-69011742D02*
X161466923Y-68202219D01*
X162466923Y-69202219D02*
X161895495Y-69202219D01*
X162181209Y-69202219D02*
X162181209Y-68202219D01*
X162181209Y-68202219D02*
X162085971Y-68345076D01*
X162085971Y-68345076D02*
X161990733Y-68440314D01*
X161990733Y-68440314D02*
X161895495Y-68487933D01*
X128254219Y-101149494D02*
X127254219Y-101149494D01*
X127254219Y-101149494D02*
X127254219Y-100911399D01*
X127254219Y-100911399D02*
X127301838Y-100768542D01*
X127301838Y-100768542D02*
X127397076Y-100673304D01*
X127397076Y-100673304D02*
X127492314Y-100625685D01*
X127492314Y-100625685D02*
X127682790Y-100578066D01*
X127682790Y-100578066D02*
X127825647Y-100578066D01*
X127825647Y-100578066D02*
X128016123Y-100625685D01*
X128016123Y-100625685D02*
X128111361Y-100673304D01*
X128111361Y-100673304D02*
X128206600Y-100768542D01*
X128206600Y-100768542D02*
X128254219Y-100911399D01*
X128254219Y-100911399D02*
X128254219Y-101149494D01*
X127254219Y-99673304D02*
X127254219Y-100149494D01*
X127254219Y-100149494D02*
X127730409Y-100197113D01*
X127730409Y-100197113D02*
X127682790Y-100149494D01*
X127682790Y-100149494D02*
X127635171Y-100054256D01*
X127635171Y-100054256D02*
X127635171Y-99816161D01*
X127635171Y-99816161D02*
X127682790Y-99720923D01*
X127682790Y-99720923D02*
X127730409Y-99673304D01*
X127730409Y-99673304D02*
X127825647Y-99625685D01*
X127825647Y-99625685D02*
X128063742Y-99625685D01*
X128063742Y-99625685D02*
X128158980Y-99673304D01*
X128158980Y-99673304D02*
X128206600Y-99720923D01*
X128206600Y-99720923D02*
X128254219Y-99816161D01*
X128254219Y-99816161D02*
X128254219Y-100054256D01*
X128254219Y-100054256D02*
X128206600Y-100149494D01*
X128206600Y-100149494D02*
X128158980Y-100197113D01*
X179557409Y-58505828D02*
X179557409Y-58982019D01*
X179224076Y-57982019D02*
X179557409Y-58505828D01*
X179557409Y-58505828D02*
X179890742Y-57982019D01*
X180747885Y-58982019D02*
X180176457Y-58982019D01*
X180462171Y-58982019D02*
X180462171Y-57982019D01*
X180462171Y-57982019D02*
X180366933Y-58124876D01*
X180366933Y-58124876D02*
X180271695Y-58220114D01*
X180271695Y-58220114D02*
X180176457Y-58267733D01*
X117332219Y-113346494D02*
X116332219Y-113346494D01*
X116332219Y-113346494D02*
X116332219Y-113108399D01*
X116332219Y-113108399D02*
X116379838Y-112965542D01*
X116379838Y-112965542D02*
X116475076Y-112870304D01*
X116475076Y-112870304D02*
X116570314Y-112822685D01*
X116570314Y-112822685D02*
X116760790Y-112775066D01*
X116760790Y-112775066D02*
X116903647Y-112775066D01*
X116903647Y-112775066D02*
X117094123Y-112822685D01*
X117094123Y-112822685D02*
X117189361Y-112870304D01*
X117189361Y-112870304D02*
X117284600Y-112965542D01*
X117284600Y-112965542D02*
X117332219Y-113108399D01*
X117332219Y-113108399D02*
X117332219Y-113346494D01*
X116760790Y-112203637D02*
X116713171Y-112298875D01*
X116713171Y-112298875D02*
X116665552Y-112346494D01*
X116665552Y-112346494D02*
X116570314Y-112394113D01*
X116570314Y-112394113D02*
X116522695Y-112394113D01*
X116522695Y-112394113D02*
X116427457Y-112346494D01*
X116427457Y-112346494D02*
X116379838Y-112298875D01*
X116379838Y-112298875D02*
X116332219Y-112203637D01*
X116332219Y-112203637D02*
X116332219Y-112013161D01*
X116332219Y-112013161D02*
X116379838Y-111917923D01*
X116379838Y-111917923D02*
X116427457Y-111870304D01*
X116427457Y-111870304D02*
X116522695Y-111822685D01*
X116522695Y-111822685D02*
X116570314Y-111822685D01*
X116570314Y-111822685D02*
X116665552Y-111870304D01*
X116665552Y-111870304D02*
X116713171Y-111917923D01*
X116713171Y-111917923D02*
X116760790Y-112013161D01*
X116760790Y-112013161D02*
X116760790Y-112203637D01*
X116760790Y-112203637D02*
X116808409Y-112298875D01*
X116808409Y-112298875D02*
X116856028Y-112346494D01*
X116856028Y-112346494D02*
X116951266Y-112394113D01*
X116951266Y-112394113D02*
X117141742Y-112394113D01*
X117141742Y-112394113D02*
X117236980Y-112346494D01*
X117236980Y-112346494D02*
X117284600Y-112298875D01*
X117284600Y-112298875D02*
X117332219Y-112203637D01*
X117332219Y-112203637D02*
X117332219Y-112013161D01*
X117332219Y-112013161D02*
X117284600Y-111917923D01*
X117284600Y-111917923D02*
X117236980Y-111870304D01*
X117236980Y-111870304D02*
X117141742Y-111822685D01*
X117141742Y-111822685D02*
X116951266Y-111822685D01*
X116951266Y-111822685D02*
X116856028Y-111870304D01*
X116856028Y-111870304D02*
X116808409Y-111917923D01*
X116808409Y-111917923D02*
X116760790Y-112013161D01*
X142403533Y-66399219D02*
X142070200Y-65923028D01*
X141832105Y-66399219D02*
X141832105Y-65399219D01*
X141832105Y-65399219D02*
X142213057Y-65399219D01*
X142213057Y-65399219D02*
X142308295Y-65446838D01*
X142308295Y-65446838D02*
X142355914Y-65494457D01*
X142355914Y-65494457D02*
X142403533Y-65589695D01*
X142403533Y-65589695D02*
X142403533Y-65732552D01*
X142403533Y-65732552D02*
X142355914Y-65827790D01*
X142355914Y-65827790D02*
X142308295Y-65875409D01*
X142308295Y-65875409D02*
X142213057Y-65923028D01*
X142213057Y-65923028D02*
X141832105Y-65923028D01*
X142736867Y-65399219D02*
X143355914Y-65399219D01*
X143355914Y-65399219D02*
X143022581Y-65780171D01*
X143022581Y-65780171D02*
X143165438Y-65780171D01*
X143165438Y-65780171D02*
X143260676Y-65827790D01*
X143260676Y-65827790D02*
X143308295Y-65875409D01*
X143308295Y-65875409D02*
X143355914Y-65970647D01*
X143355914Y-65970647D02*
X143355914Y-66208742D01*
X143355914Y-66208742D02*
X143308295Y-66303980D01*
X143308295Y-66303980D02*
X143260676Y-66351600D01*
X143260676Y-66351600D02*
X143165438Y-66399219D01*
X143165438Y-66399219D02*
X142879724Y-66399219D01*
X142879724Y-66399219D02*
X142784486Y-66351600D01*
X142784486Y-66351600D02*
X142736867Y-66303980D01*
X147523295Y-59027219D02*
X147523295Y-58027219D01*
X147523295Y-58503409D02*
X148094723Y-58503409D01*
X148094723Y-59027219D02*
X148094723Y-58027219D01*
X149094723Y-59027219D02*
X148523295Y-59027219D01*
X148809009Y-59027219D02*
X148809009Y-58027219D01*
X148809009Y-58027219D02*
X148713771Y-58170076D01*
X148713771Y-58170076D02*
X148618533Y-58265314D01*
X148618533Y-58265314D02*
X148523295Y-58312933D01*
X122834495Y-76156219D02*
X122834495Y-76965742D01*
X122834495Y-76965742D02*
X122882114Y-77060980D01*
X122882114Y-77060980D02*
X122929733Y-77108600D01*
X122929733Y-77108600D02*
X123024971Y-77156219D01*
X123024971Y-77156219D02*
X123215447Y-77156219D01*
X123215447Y-77156219D02*
X123310685Y-77108600D01*
X123310685Y-77108600D02*
X123358304Y-77060980D01*
X123358304Y-77060980D02*
X123405923Y-76965742D01*
X123405923Y-76965742D02*
X123405923Y-76156219D01*
X123786876Y-76156219D02*
X124405923Y-76156219D01*
X124405923Y-76156219D02*
X124072590Y-76537171D01*
X124072590Y-76537171D02*
X124215447Y-76537171D01*
X124215447Y-76537171D02*
X124310685Y-76584790D01*
X124310685Y-76584790D02*
X124358304Y-76632409D01*
X124358304Y-76632409D02*
X124405923Y-76727647D01*
X124405923Y-76727647D02*
X124405923Y-76965742D01*
X124405923Y-76965742D02*
X124358304Y-77060980D01*
X124358304Y-77060980D02*
X124310685Y-77108600D01*
X124310685Y-77108600D02*
X124215447Y-77156219D01*
X124215447Y-77156219D02*
X123929733Y-77156219D01*
X123929733Y-77156219D02*
X123834495Y-77108600D01*
X123834495Y-77108600D02*
X123786876Y-77060980D01*
X111495219Y-101154494D02*
X110495219Y-101154494D01*
X110495219Y-101154494D02*
X110495219Y-100916399D01*
X110495219Y-100916399D02*
X110542838Y-100773542D01*
X110542838Y-100773542D02*
X110638076Y-100678304D01*
X110638076Y-100678304D02*
X110733314Y-100630685D01*
X110733314Y-100630685D02*
X110923790Y-100583066D01*
X110923790Y-100583066D02*
X111066647Y-100583066D01*
X111066647Y-100583066D02*
X111257123Y-100630685D01*
X111257123Y-100630685D02*
X111352361Y-100678304D01*
X111352361Y-100678304D02*
X111447600Y-100773542D01*
X111447600Y-100773542D02*
X111495219Y-100916399D01*
X111495219Y-100916399D02*
X111495219Y-101154494D01*
X110495219Y-100249732D02*
X110495219Y-99583066D01*
X110495219Y-99583066D02*
X111495219Y-100011637D01*
X111490219Y-113346494D02*
X110490219Y-113346494D01*
X110490219Y-113346494D02*
X110490219Y-113108399D01*
X110490219Y-113108399D02*
X110537838Y-112965542D01*
X110537838Y-112965542D02*
X110633076Y-112870304D01*
X110633076Y-112870304D02*
X110728314Y-112822685D01*
X110728314Y-112822685D02*
X110918790Y-112775066D01*
X110918790Y-112775066D02*
X111061647Y-112775066D01*
X111061647Y-112775066D02*
X111252123Y-112822685D01*
X111252123Y-112822685D02*
X111347361Y-112870304D01*
X111347361Y-112870304D02*
X111442600Y-112965542D01*
X111442600Y-112965542D02*
X111490219Y-113108399D01*
X111490219Y-113108399D02*
X111490219Y-113346494D01*
X110490219Y-111917923D02*
X110490219Y-112108399D01*
X110490219Y-112108399D02*
X110537838Y-112203637D01*
X110537838Y-112203637D02*
X110585457Y-112251256D01*
X110585457Y-112251256D02*
X110728314Y-112346494D01*
X110728314Y-112346494D02*
X110918790Y-112394113D01*
X110918790Y-112394113D02*
X111299742Y-112394113D01*
X111299742Y-112394113D02*
X111394980Y-112346494D01*
X111394980Y-112346494D02*
X111442600Y-112298875D01*
X111442600Y-112298875D02*
X111490219Y-112203637D01*
X111490219Y-112203637D02*
X111490219Y-112013161D01*
X111490219Y-112013161D02*
X111442600Y-111917923D01*
X111442600Y-111917923D02*
X111394980Y-111870304D01*
X111394980Y-111870304D02*
X111299742Y-111822685D01*
X111299742Y-111822685D02*
X111061647Y-111822685D01*
X111061647Y-111822685D02*
X110966409Y-111870304D01*
X110966409Y-111870304D02*
X110918790Y-111917923D01*
X110918790Y-111917923D02*
X110871171Y-112013161D01*
X110871171Y-112013161D02*
X110871171Y-112203637D01*
X110871171Y-112203637D02*
X110918790Y-112298875D01*
X110918790Y-112298875D02*
X110966409Y-112346494D01*
X110966409Y-112346494D02*
X111061647Y-112394113D01*
X135625219Y-101088494D02*
X134625219Y-101088494D01*
X134625219Y-101088494D02*
X134625219Y-100850399D01*
X134625219Y-100850399D02*
X134672838Y-100707542D01*
X134672838Y-100707542D02*
X134768076Y-100612304D01*
X134768076Y-100612304D02*
X134863314Y-100564685D01*
X134863314Y-100564685D02*
X135053790Y-100517066D01*
X135053790Y-100517066D02*
X135196647Y-100517066D01*
X135196647Y-100517066D02*
X135387123Y-100564685D01*
X135387123Y-100564685D02*
X135482361Y-100612304D01*
X135482361Y-100612304D02*
X135577600Y-100707542D01*
X135577600Y-100707542D02*
X135625219Y-100850399D01*
X135625219Y-100850399D02*
X135625219Y-101088494D01*
X134625219Y-100183732D02*
X134625219Y-99564685D01*
X134625219Y-99564685D02*
X135006171Y-99898018D01*
X135006171Y-99898018D02*
X135006171Y-99755161D01*
X135006171Y-99755161D02*
X135053790Y-99659923D01*
X135053790Y-99659923D02*
X135101409Y-99612304D01*
X135101409Y-99612304D02*
X135196647Y-99564685D01*
X135196647Y-99564685D02*
X135434742Y-99564685D01*
X135434742Y-99564685D02*
X135529980Y-99612304D01*
X135529980Y-99612304D02*
X135577600Y-99659923D01*
X135577600Y-99659923D02*
X135625219Y-99755161D01*
X135625219Y-99755161D02*
X135625219Y-100040875D01*
X135625219Y-100040875D02*
X135577600Y-100136113D01*
X135577600Y-100136113D02*
X135529980Y-100183732D01*
X128259219Y-113341494D02*
X127259219Y-113341494D01*
X127259219Y-113341494D02*
X127259219Y-113103399D01*
X127259219Y-113103399D02*
X127306838Y-112960542D01*
X127306838Y-112960542D02*
X127402076Y-112865304D01*
X127402076Y-112865304D02*
X127497314Y-112817685D01*
X127497314Y-112817685D02*
X127687790Y-112770066D01*
X127687790Y-112770066D02*
X127830647Y-112770066D01*
X127830647Y-112770066D02*
X128021123Y-112817685D01*
X128021123Y-112817685D02*
X128116361Y-112865304D01*
X128116361Y-112865304D02*
X128211600Y-112960542D01*
X128211600Y-112960542D02*
X128259219Y-113103399D01*
X128259219Y-113103399D02*
X128259219Y-113341494D01*
X127592552Y-111912923D02*
X128259219Y-111912923D01*
X127211600Y-112151018D02*
X127925885Y-112389113D01*
X127925885Y-112389113D02*
X127925885Y-111770066D01*
X133007313Y-61894200D02*
X133150170Y-61941819D01*
X133150170Y-61941819D02*
X133388265Y-61941819D01*
X133388265Y-61941819D02*
X133483503Y-61894200D01*
X133483503Y-61894200D02*
X133531122Y-61846580D01*
X133531122Y-61846580D02*
X133578741Y-61751342D01*
X133578741Y-61751342D02*
X133578741Y-61656104D01*
X133578741Y-61656104D02*
X133531122Y-61560866D01*
X133531122Y-61560866D02*
X133483503Y-61513247D01*
X133483503Y-61513247D02*
X133388265Y-61465628D01*
X133388265Y-61465628D02*
X133197789Y-61418009D01*
X133197789Y-61418009D02*
X133102551Y-61370390D01*
X133102551Y-61370390D02*
X133054932Y-61322771D01*
X133054932Y-61322771D02*
X133007313Y-61227533D01*
X133007313Y-61227533D02*
X133007313Y-61132295D01*
X133007313Y-61132295D02*
X133054932Y-61037057D01*
X133054932Y-61037057D02*
X133102551Y-60989438D01*
X133102551Y-60989438D02*
X133197789Y-60941819D01*
X133197789Y-60941819D02*
X133435884Y-60941819D01*
X133435884Y-60941819D02*
X133578741Y-60989438D01*
X133912075Y-60941819D02*
X134150170Y-61941819D01*
X134150170Y-61941819D02*
X134340646Y-61227533D01*
X134340646Y-61227533D02*
X134531122Y-61941819D01*
X134531122Y-61941819D02*
X134769218Y-60941819D01*
X135435884Y-60941819D02*
X135435884Y-61656104D01*
X135435884Y-61656104D02*
X135388265Y-61798961D01*
X135388265Y-61798961D02*
X135293027Y-61894200D01*
X135293027Y-61894200D02*
X135150170Y-61941819D01*
X135150170Y-61941819D02*
X135054932Y-61941819D01*
X136435884Y-61941819D02*
X135864456Y-61941819D01*
X136150170Y-61941819D02*
X136150170Y-60941819D01*
X136150170Y-60941819D02*
X136054932Y-61084676D01*
X136054932Y-61084676D02*
X135959694Y-61179914D01*
X135959694Y-61179914D02*
X135864456Y-61227533D01*
X118609466Y-63995619D02*
X118609466Y-64709904D01*
X118609466Y-64709904D02*
X118561847Y-64852761D01*
X118561847Y-64852761D02*
X118466609Y-64948000D01*
X118466609Y-64948000D02*
X118323752Y-64995619D01*
X118323752Y-64995619D02*
X118228514Y-64995619D01*
X119038038Y-64090857D02*
X119085657Y-64043238D01*
X119085657Y-64043238D02*
X119180895Y-63995619D01*
X119180895Y-63995619D02*
X119418990Y-63995619D01*
X119418990Y-63995619D02*
X119514228Y-64043238D01*
X119514228Y-64043238D02*
X119561847Y-64090857D01*
X119561847Y-64090857D02*
X119609466Y-64186095D01*
X119609466Y-64186095D02*
X119609466Y-64281333D01*
X119609466Y-64281333D02*
X119561847Y-64424190D01*
X119561847Y-64424190D02*
X118990419Y-64995619D01*
X118990419Y-64995619D02*
X119609466Y-64995619D01*
X135625219Y-113341494D02*
X134625219Y-113341494D01*
X134625219Y-113341494D02*
X134625219Y-113103399D01*
X134625219Y-113103399D02*
X134672838Y-112960542D01*
X134672838Y-112960542D02*
X134768076Y-112865304D01*
X134768076Y-112865304D02*
X134863314Y-112817685D01*
X134863314Y-112817685D02*
X135053790Y-112770066D01*
X135053790Y-112770066D02*
X135196647Y-112770066D01*
X135196647Y-112770066D02*
X135387123Y-112817685D01*
X135387123Y-112817685D02*
X135482361Y-112865304D01*
X135482361Y-112865304D02*
X135577600Y-112960542D01*
X135577600Y-112960542D02*
X135625219Y-113103399D01*
X135625219Y-113103399D02*
X135625219Y-113341494D01*
X134720457Y-112389113D02*
X134672838Y-112341494D01*
X134672838Y-112341494D02*
X134625219Y-112246256D01*
X134625219Y-112246256D02*
X134625219Y-112008161D01*
X134625219Y-112008161D02*
X134672838Y-111912923D01*
X134672838Y-111912923D02*
X134720457Y-111865304D01*
X134720457Y-111865304D02*
X134815695Y-111817685D01*
X134815695Y-111817685D02*
X134910933Y-111817685D01*
X134910933Y-111817685D02*
X135053790Y-111865304D01*
X135053790Y-111865304D02*
X135625219Y-112436732D01*
X135625219Y-112436732D02*
X135625219Y-111817685D01*
X170974219Y-102238133D02*
X171688504Y-102238133D01*
X171688504Y-102238133D02*
X171831361Y-102285752D01*
X171831361Y-102285752D02*
X171926600Y-102380990D01*
X171926600Y-102380990D02*
X171974219Y-102523847D01*
X171974219Y-102523847D02*
X171974219Y-102619085D01*
X170974219Y-101285752D02*
X170974219Y-101761942D01*
X170974219Y-101761942D02*
X171450409Y-101809561D01*
X171450409Y-101809561D02*
X171402790Y-101761942D01*
X171402790Y-101761942D02*
X171355171Y-101666704D01*
X171355171Y-101666704D02*
X171355171Y-101428609D01*
X171355171Y-101428609D02*
X171402790Y-101333371D01*
X171402790Y-101333371D02*
X171450409Y-101285752D01*
X171450409Y-101285752D02*
X171545647Y-101238133D01*
X171545647Y-101238133D02*
X171783742Y-101238133D01*
X171783742Y-101238133D02*
X171878980Y-101285752D01*
X171878980Y-101285752D02*
X171926600Y-101333371D01*
X171926600Y-101333371D02*
X171974219Y-101428609D01*
X171974219Y-101428609D02*
X171974219Y-101666704D01*
X171974219Y-101666704D02*
X171926600Y-101761942D01*
X171926600Y-101761942D02*
X171878980Y-101809561D01*
X136661333Y-65844980D02*
X136613714Y-65892600D01*
X136613714Y-65892600D02*
X136470857Y-65940219D01*
X136470857Y-65940219D02*
X136375619Y-65940219D01*
X136375619Y-65940219D02*
X136232762Y-65892600D01*
X136232762Y-65892600D02*
X136137524Y-65797361D01*
X136137524Y-65797361D02*
X136089905Y-65702123D01*
X136089905Y-65702123D02*
X136042286Y-65511647D01*
X136042286Y-65511647D02*
X136042286Y-65368790D01*
X136042286Y-65368790D02*
X136089905Y-65178314D01*
X136089905Y-65178314D02*
X136137524Y-65083076D01*
X136137524Y-65083076D02*
X136232762Y-64987838D01*
X136232762Y-64987838D02*
X136375619Y-64940219D01*
X136375619Y-64940219D02*
X136470857Y-64940219D01*
X136470857Y-64940219D02*
X136613714Y-64987838D01*
X136613714Y-64987838D02*
X136661333Y-65035457D01*
X137566095Y-64940219D02*
X137089905Y-64940219D01*
X137089905Y-64940219D02*
X137042286Y-65416409D01*
X137042286Y-65416409D02*
X137089905Y-65368790D01*
X137089905Y-65368790D02*
X137185143Y-65321171D01*
X137185143Y-65321171D02*
X137423238Y-65321171D01*
X137423238Y-65321171D02*
X137518476Y-65368790D01*
X137518476Y-65368790D02*
X137566095Y-65416409D01*
X137566095Y-65416409D02*
X137613714Y-65511647D01*
X137613714Y-65511647D02*
X137613714Y-65749742D01*
X137613714Y-65749742D02*
X137566095Y-65844980D01*
X137566095Y-65844980D02*
X137518476Y-65892600D01*
X137518476Y-65892600D02*
X137423238Y-65940219D01*
X137423238Y-65940219D02*
X137185143Y-65940219D01*
X137185143Y-65940219D02*
X137089905Y-65892600D01*
X137089905Y-65892600D02*
X137042286Y-65844980D01*
X172533819Y-90478366D02*
X172057628Y-90811699D01*
X172533819Y-91049794D02*
X171533819Y-91049794D01*
X171533819Y-91049794D02*
X171533819Y-90668842D01*
X171533819Y-90668842D02*
X171581438Y-90573604D01*
X171581438Y-90573604D02*
X171629057Y-90525985D01*
X171629057Y-90525985D02*
X171724295Y-90478366D01*
X171724295Y-90478366D02*
X171867152Y-90478366D01*
X171867152Y-90478366D02*
X171962390Y-90525985D01*
X171962390Y-90525985D02*
X172010009Y-90573604D01*
X172010009Y-90573604D02*
X172057628Y-90668842D01*
X172057628Y-90668842D02*
X172057628Y-91049794D01*
X171867152Y-89621223D02*
X172533819Y-89621223D01*
X171486200Y-89859318D02*
X172200485Y-90097413D01*
X172200485Y-90097413D02*
X172200485Y-89478366D01*
X110947295Y-117031819D02*
X110947295Y-116031819D01*
X110947295Y-116508009D02*
X111518723Y-116508009D01*
X111518723Y-117031819D02*
X111518723Y-116031819D01*
X111947295Y-116127057D02*
X111994914Y-116079438D01*
X111994914Y-116079438D02*
X112090152Y-116031819D01*
X112090152Y-116031819D02*
X112328247Y-116031819D01*
X112328247Y-116031819D02*
X112423485Y-116079438D01*
X112423485Y-116079438D02*
X112471104Y-116127057D01*
X112471104Y-116127057D02*
X112518723Y-116222295D01*
X112518723Y-116222295D02*
X112518723Y-116317533D01*
X112518723Y-116317533D02*
X112471104Y-116460390D01*
X112471104Y-116460390D02*
X111899676Y-117031819D01*
X111899676Y-117031819D02*
X112518723Y-117031819D01*
D11*
%TO.C,D1*%
X174591600Y-88088200D02*
X172321600Y-88088200D01*
X172321600Y-88088200D02*
X172321600Y-91973200D01*
X174591600Y-91973200D02*
X174591600Y-88088200D01*
%TO.C,J4*%
X157750200Y-96072000D02*
X157750200Y-94742000D01*
X159080200Y-96072000D02*
X157750200Y-96072000D01*
X160350200Y-96072000D02*
X173110200Y-96072000D01*
X160350200Y-96072000D02*
X160350200Y-93412000D01*
X173110200Y-96072000D02*
X173110200Y-93412000D01*
X160350200Y-93412000D02*
X173110200Y-93412000D01*
%TO.C,BT1*%
X186628400Y-118368001D02*
X191628400Y-118368001D01*
X192178400Y-117818001D02*
X192178400Y-115368001D01*
X186078400Y-115368001D02*
X186078400Y-117818001D01*
X186078400Y-117818001D02*
G75*
G03*
X186628400Y-118368001I549999J-1D01*
G01*
X191628400Y-118368001D02*
G75*
G03*
X192178400Y-117818001I1J549999D01*
G01*
X192648399Y-114667999D02*
G75*
G03*
X192178400Y-115368001I286281J-700002D01*
G01*
X186078397Y-115368001D02*
G75*
G03*
X185608400Y-114668002I-756277J0D01*
G01*
X189128400Y-87118001D02*
G75*
G03*
X185608400Y-114668001I31J-13999875D01*
G01*
X192648400Y-114668001D02*
G75*
G03*
X189128400Y-87118001I-3520032J13550125D01*
G01*
%TO.C,D9*%
X117572400Y-103551400D02*
X121492400Y-103551400D01*
X121492400Y-103551400D02*
X121492400Y-98166400D01*
X117572400Y-98166400D02*
X117572400Y-103551400D01*
%TO.C,R5*%
X144767463Y-63669000D02*
X146214937Y-63669000D01*
X144767463Y-66379000D02*
X146214937Y-66379000D01*
%TO.C,D10*%
X153643600Y-66159000D02*
X153643600Y-63889000D01*
X153643600Y-63889000D02*
X149758600Y-63889000D01*
X149758600Y-66159000D02*
X153643600Y-66159000D01*
%TO.C,C6*%
X136116748Y-68863800D02*
X137539252Y-68863800D01*
X136116748Y-70683800D02*
X137539252Y-70683800D01*
D12*
%TO.C,U1*%
X155082400Y-60637400D02*
X173082400Y-60637400D01*
X155082400Y-66827400D02*
X155082400Y-60637400D01*
X155082400Y-66827400D02*
X155082400Y-86137400D01*
X155082400Y-86137400D02*
X173082400Y-86137400D01*
X173082400Y-60637400D02*
X173082400Y-66827400D01*
X173082400Y-66827400D02*
X155082400Y-66827400D01*
X173082400Y-86137400D02*
X173082400Y-66827400D01*
D11*
%TO.C,D5*%
X128489400Y-103546400D02*
X132409400Y-103546400D01*
X132409400Y-103546400D02*
X132409400Y-98161400D01*
X128489400Y-98161400D02*
X128489400Y-103546400D01*
%TO.C,Y1*%
X176833600Y-59527200D02*
X183233600Y-59527200D01*
X176833600Y-64577200D02*
X183233600Y-64577200D01*
X176833600Y-59527200D02*
G75*
G03*
X176833600Y-64577200I0J-2525000D01*
G01*
X183233600Y-64577200D02*
G75*
G03*
X183233600Y-59527200I0J2525000D01*
G01*
%TO.C,D8*%
X117567400Y-115743400D02*
X121487400Y-115743400D01*
X121487400Y-115743400D02*
X121487400Y-110358400D01*
X117567400Y-110358400D02*
X117567400Y-115743400D01*
%TO.C,R3*%
X141846463Y-66869400D02*
X143293937Y-66869400D01*
X141846463Y-69579400D02*
X143293937Y-69579400D01*
%TO.C,U3*%
X113376400Y-77701400D02*
X113376400Y-82942400D01*
X113376400Y-77701400D02*
X133816400Y-77701400D01*
X113376400Y-79541400D02*
X133816400Y-79541400D01*
X113376400Y-82942400D02*
X115052400Y-82942400D01*
X114706400Y-82942400D02*
X114706400Y-86351400D01*
X116901400Y-82942400D02*
X117592400Y-82942400D01*
X117246400Y-82942400D02*
X117246400Y-86336400D01*
X119441400Y-82942400D02*
X120132400Y-82942400D01*
X119786400Y-82942400D02*
X119786400Y-86336400D01*
X121747400Y-77701400D02*
X121747400Y-79541400D01*
X121981400Y-82942400D02*
X122672400Y-82942400D01*
X122326400Y-82942400D02*
X122326400Y-86336400D01*
X124521400Y-82942400D02*
X125212400Y-82942400D01*
X124866400Y-82942400D02*
X124866400Y-86336400D01*
X125446400Y-77701400D02*
X125446400Y-79541400D01*
X127061400Y-82942400D02*
X127752400Y-82942400D01*
X127406400Y-82942400D02*
X127406400Y-86336400D01*
X129601400Y-82942400D02*
X130292400Y-82942400D01*
X129946400Y-82942400D02*
X129946400Y-86336400D01*
X132141400Y-82942400D02*
X133816400Y-82942400D01*
X132486400Y-82942400D02*
X132486400Y-86336400D01*
X133816400Y-77701400D02*
X133816400Y-82942400D01*
%TO.C,D7*%
X111730400Y-103551400D02*
X115650400Y-103551400D01*
X115650400Y-103551400D02*
X115650400Y-98166400D01*
X111730400Y-98166400D02*
X111730400Y-103551400D01*
%TO.C,D6*%
X111725400Y-115743400D02*
X115645400Y-115743400D01*
X115645400Y-115743400D02*
X115645400Y-110358400D01*
X111725400Y-110358400D02*
X111725400Y-115743400D01*
%TO.C,D3*%
X135860400Y-103485400D02*
X139780400Y-103485400D01*
X139780400Y-103485400D02*
X139780400Y-98100400D01*
X135860400Y-98100400D02*
X135860400Y-103485400D01*
%TO.C,D4*%
X128494400Y-115738400D02*
X132414400Y-115738400D01*
X132414400Y-115738400D02*
X132414400Y-110353400D01*
X128494400Y-110353400D02*
X128494400Y-115738400D01*
%TO.C,SWJ1*%
X130951599Y-56617000D02*
X130951599Y-60067000D01*
X130951599Y-62907000D02*
X130951599Y-63107000D01*
X131741599Y-63107000D02*
X130951599Y-63107000D01*
X131741599Y-63107000D02*
X131741599Y-62857000D01*
X132331599Y-60557000D02*
X137111599Y-60557000D01*
X137701599Y-63107000D02*
X137701599Y-62857000D01*
X138491599Y-56617000D02*
X130951599Y-56617000D01*
X138491599Y-60067000D02*
X138491599Y-56617000D01*
X138491599Y-62907000D02*
X138491599Y-63107000D01*
X138491599Y-63107000D02*
X137701599Y-63107000D01*
%TO.C,J2*%
X129082800Y-63550800D02*
X129082800Y-55930800D01*
X129082800Y-63550800D02*
X108762800Y-63550800D01*
X129082800Y-55930800D02*
X108762800Y-55930800D01*
X108762800Y-57200800D02*
X129082800Y-57200800D01*
X108762800Y-55930800D02*
X108762800Y-63550800D01*
%TO.C,D2*%
X135860400Y-115738400D02*
X139780400Y-115738400D01*
X139780400Y-115738400D02*
X139780400Y-110353400D01*
X135860400Y-110353400D02*
X135860400Y-115738400D01*
%TO.C,J5*%
X170519400Y-100574800D02*
X170519400Y-101904800D01*
X169189400Y-100574800D02*
X170519400Y-100574800D01*
X167919400Y-100574800D02*
X160239400Y-100574800D01*
X167919400Y-100574800D02*
X167919400Y-103234800D01*
X160239400Y-100574800D02*
X160239400Y-103234800D01*
X167919400Y-103234800D02*
X160239400Y-103234800D01*
%TO.C,C5*%
X136116748Y-66425400D02*
X137539252Y-66425400D01*
X136116748Y-68245400D02*
X137539252Y-68245400D01*
%TO.C,R4*%
X171154000Y-89587963D02*
X171154000Y-91035437D01*
X168444000Y-89587963D02*
X168444000Y-91035437D01*
%TD*%
M02*
