%TF.GenerationSoftware,KiCad,Pcbnew,7.0.7*%
%TF.CreationDate,2023-11-07T23:05:13-03:00*%
%TF.ProjectId,robot seg,726f626f-7420-4736-9567-2e6b69636164,rev?*%
%TF.SameCoordinates,Original*%
%TF.FileFunction,Soldermask,Top*%
%TF.FilePolarity,Negative*%
%FSLAX46Y46*%
G04 Gerber Fmt 4.6, Leading zero omitted, Abs format (unit mm)*
G04 Created by KiCad (PCBNEW 7.0.7) date 2023-11-07 23:05:13*
%MOMM*%
%LPD*%
G01*
G04 APERTURE LIST*
G04 Aperture macros list*
%AMRoundRect*
0 Rectangle with rounded corners*
0 $1 Rounding radius*
0 $2 $3 $4 $5 $6 $7 $8 $9 X,Y pos of 4 corners*
0 Add a 4 corners polygon primitive as box body*
4,1,4,$2,$3,$4,$5,$6,$7,$8,$9,$2,$3,0*
0 Add four circle primitives for the rounded corners*
1,1,$1+$1,$2,$3*
1,1,$1+$1,$4,$5*
1,1,$1+$1,$6,$7*
1,1,$1+$1,$8,$9*
0 Add four rect primitives between the rounded corners*
20,1,$1+$1,$2,$3,$4,$5,0*
20,1,$1+$1,$4,$5,$6,$7,0*
20,1,$1+$1,$6,$7,$8,$9,0*
20,1,$1+$1,$8,$9,$2,$3,0*%
G04 Aperture macros list end*
%ADD10RoundRect,0.250000X-0.625000X0.375000X-0.625000X-0.375000X0.625000X-0.375000X0.625000X0.375000X0*%
%ADD11R,1.700000X1.700000*%
%ADD12O,1.700000X1.700000*%
%ADD13R,3.000000X3.000000*%
%ADD14C,3.000000*%
%ADD15C,3.200000*%
%ADD16RoundRect,0.250000X1.450000X-0.400000X1.450000X0.400000X-1.450000X0.400000X-1.450000X-0.400000X0*%
%ADD17RoundRect,0.250000X-0.312500X-1.075000X0.312500X-1.075000X0.312500X1.075000X-0.312500X1.075000X0*%
%ADD18RoundRect,0.250000X0.375000X0.625000X-0.375000X0.625000X-0.375000X-0.625000X0.375000X-0.625000X0*%
%ADD19RoundRect,0.250000X-0.325000X-0.650000X0.325000X-0.650000X0.325000X0.650000X-0.325000X0.650000X0*%
%ADD20RoundRect,0.102000X-0.750000X-0.450000X0.750000X-0.450000X0.750000X0.450000X-0.750000X0.450000X0*%
%ADD21RoundRect,0.102000X0.450000X-0.750000X0.450000X0.750000X-0.450000X0.750000X-0.450000X-0.750000X0*%
%ADD22RoundRect,0.102000X0.750000X0.450000X-0.750000X0.450000X-0.750000X-0.450000X0.750000X-0.450000X0*%
%ADD23RoundRect,0.102000X-0.450000X-0.450000X0.450000X-0.450000X0.450000X0.450000X-0.450000X0.450000X0*%
%ADD24C,1.500000*%
%ADD25R,1.800000X1.800000*%
%ADD26O,1.800000X1.800000*%
%ADD27C,2.400000*%
%ADD28C,1.700000*%
%ADD29RoundRect,0.250000X-1.075000X0.312500X-1.075000X-0.312500X1.075000X-0.312500X1.075000X0.312500X0*%
%ADD30O,1.804000X1.004000*%
%ADD31O,0.954000X1.704000*%
%ADD32O,4.604000X2.404000*%
%ADD33O,4.204000X2.204000*%
%ADD34O,2.204000X4.204000*%
%ADD35RoundRect,0.102000X-0.605000X-0.605000X0.605000X-0.605000X0.605000X0.605000X-0.605000X0.605000X0*%
%ADD36C,1.414000*%
%ADD37C,2.300000*%
%ADD38RoundRect,0.102000X0.714000X0.714000X-0.714000X0.714000X-0.714000X-0.714000X0.714000X-0.714000X0*%
%ADD39C,1.632000*%
%ADD40O,4.404000X8.604000*%
%ADD41C,1.000000*%
G04 APERTURE END LIST*
D10*
%TO.C,D1*%
X173456600Y-88973200D03*
X173456600Y-91773200D03*
%TD*%
D11*
%TO.C,J4*%
X159080200Y-94742000D03*
D12*
X161620200Y-94742000D03*
X164160200Y-94742000D03*
X166700200Y-94742000D03*
X169240200Y-94742000D03*
X171780200Y-94742000D03*
%TD*%
D13*
%TO.C,BT1*%
X189128400Y-116318001D03*
D14*
X189128400Y-95828001D03*
%TD*%
D15*
%TO.C,H3*%
X203200000Y-59029600D03*
%TD*%
%TO.C,H4*%
X203301600Y-121056400D03*
%TD*%
D16*
%TO.C,D9*%
X119532400Y-102641400D03*
X119532400Y-98191400D03*
%TD*%
D17*
%TO.C,R5*%
X144028700Y-65024000D03*
X146953700Y-65024000D03*
%TD*%
D18*
%TO.C,D10*%
X152758600Y-65024000D03*
X149958600Y-65024000D03*
%TD*%
D19*
%TO.C,C6*%
X135353000Y-69773800D03*
X138303000Y-69773800D03*
%TD*%
D20*
%TO.C,U1*%
X155332400Y-68127400D03*
X155332400Y-69397400D03*
X155332400Y-70667400D03*
X155332400Y-71937400D03*
X155332400Y-73207400D03*
X155332400Y-74477400D03*
X155332400Y-75747400D03*
X155332400Y-77017400D03*
X155332400Y-78287400D03*
X155332400Y-79557400D03*
X155332400Y-80827400D03*
X155332400Y-82097400D03*
X155332400Y-83367400D03*
X155332400Y-84637400D03*
D21*
X158367400Y-85887400D03*
X159637400Y-85887400D03*
X160907400Y-85887400D03*
X162177400Y-85887400D03*
X163447400Y-85887400D03*
X164717400Y-85887400D03*
X165987400Y-85887400D03*
X167257400Y-85887400D03*
X168527400Y-85887400D03*
X169797400Y-85887400D03*
D22*
X172832400Y-84637400D03*
X172832400Y-83367400D03*
X172832400Y-82097400D03*
X172832400Y-80827400D03*
X172832400Y-79557400D03*
X172832400Y-78287400D03*
X172832400Y-77017400D03*
X172832400Y-75747400D03*
X172832400Y-74477400D03*
X172832400Y-73207400D03*
X172832400Y-71937400D03*
X172832400Y-70667400D03*
X172832400Y-69397400D03*
X172832400Y-68127400D03*
D23*
X161182400Y-74447400D03*
X162582400Y-74447400D03*
X163982400Y-74447400D03*
X161182400Y-75847400D03*
X162582400Y-75847400D03*
X163982400Y-75847400D03*
X161182400Y-77247400D03*
X162582400Y-77247400D03*
X163982400Y-77247400D03*
%TD*%
D16*
%TO.C,D5*%
X130449400Y-102636400D03*
X130449400Y-98186400D03*
%TD*%
D24*
%TO.C,Y1*%
X177593600Y-62052200D03*
X182473600Y-62052200D03*
%TD*%
D16*
%TO.C,D8*%
X119527400Y-114833400D03*
X119527400Y-110383400D03*
%TD*%
D17*
%TO.C,R3*%
X141107700Y-68224400D03*
X144032700Y-68224400D03*
%TD*%
D15*
%TO.C,H1*%
X148158200Y-58699400D03*
%TD*%
D25*
%TO.C,U3*%
X114706400Y-87401400D03*
D26*
X115976400Y-82321400D03*
X117246400Y-87401400D03*
X118516400Y-82321400D03*
X119786400Y-87401400D03*
X121056400Y-82321400D03*
X122326400Y-87401400D03*
X123596400Y-82321400D03*
X124866400Y-87401400D03*
X126136400Y-82321400D03*
X127406400Y-87401400D03*
X128676400Y-82321400D03*
X129946400Y-87401400D03*
X131216400Y-82321400D03*
X132486400Y-87401400D03*
%TD*%
D16*
%TO.C,D7*%
X113690400Y-102641400D03*
X113690400Y-98191400D03*
%TD*%
%TO.C,D6*%
X113685400Y-114833400D03*
X113685400Y-110383400D03*
%TD*%
%TO.C,D3*%
X137820400Y-102575400D03*
X137820400Y-98125400D03*
%TD*%
%TO.C,D4*%
X130454400Y-114828400D03*
X130454400Y-110378400D03*
%TD*%
D27*
%TO.C,SWJ1*%
X131221599Y-61487000D03*
X138221599Y-61487000D03*
D28*
X132471599Y-58987000D03*
X136971599Y-58987000D03*
%TD*%
D13*
%TO.C,J2*%
X126542800Y-59740800D03*
D14*
X121462800Y-59740800D03*
X116382800Y-59740800D03*
X111302800Y-59740800D03*
%TD*%
D16*
%TO.C,D2*%
X137820400Y-114828400D03*
X137820400Y-110378400D03*
%TD*%
D11*
%TO.C,J5*%
X169189400Y-101904800D03*
D12*
X166649400Y-101904800D03*
X164109400Y-101904800D03*
X161569400Y-101904800D03*
%TD*%
D19*
%TO.C,C5*%
X135353000Y-67335400D03*
X138303000Y-67335400D03*
%TD*%
D29*
%TO.C,R4*%
X169799000Y-88849200D03*
X169799000Y-91774200D03*
%TD*%
D15*
%TO.C,H2*%
X111709200Y-120777000D03*
%TD*%
D30*
%TO.C,J1*%
X189360800Y-63957200D03*
X194360800Y-63957200D03*
D31*
X188335800Y-61257200D03*
X195385800Y-61257200D03*
%TD*%
D32*
%TO.C,J3*%
X147853400Y-110337600D03*
D33*
X147853400Y-116637600D03*
D34*
X143053400Y-113237600D03*
%TD*%
D35*
%TO.C,U4*%
X145585200Y-95478600D03*
D36*
X145585200Y-92938600D03*
X145585200Y-90398600D03*
X145585200Y-87858600D03*
X153525200Y-87858600D03*
X153525200Y-90398600D03*
X153525200Y-92938600D03*
X153525200Y-95478600D03*
%TD*%
D37*
%TO.C,P1*%
X132646200Y-120566000D03*
X119506200Y-120566000D03*
D38*
X129576200Y-117856000D03*
D39*
X127076200Y-117856000D03*
X125076200Y-117856000D03*
X122576200Y-117856000D03*
%TD*%
D40*
%TO.C,S1*%
X159054300Y-116967000D03*
X169554300Y-116967000D03*
%TD*%
D41*
%TO.C,Y2*%
X148031200Y-84023200D03*
X149931200Y-84023200D03*
%TD*%
M02*
