%TF.GenerationSoftware,KiCad,Pcbnew,7.0.7*%
%TF.CreationDate,2023-11-07T23:05:13-03:00*%
%TF.ProjectId,robot seg,726f626f-7420-4736-9567-2e6b69636164,rev?*%
%TF.SameCoordinates,Original*%
%TF.FileFunction,Paste,Bot*%
%TF.FilePolarity,Positive*%
%FSLAX46Y46*%
G04 Gerber Fmt 4.6, Leading zero omitted, Abs format (unit mm)*
G04 Created by KiCad (PCBNEW 7.0.7) date 2023-11-07 23:05:13*
%MOMM*%
%LPD*%
G01*
G04 APERTURE LIST*
G04 Aperture macros list*
%AMRoundRect*
0 Rectangle with rounded corners*
0 $1 Rounding radius*
0 $2 $3 $4 $5 $6 $7 $8 $9 X,Y pos of 4 corners*
0 Add a 4 corners polygon primitive as box body*
4,1,4,$2,$3,$4,$5,$6,$7,$8,$9,$2,$3,0*
0 Add four circle primitives for the rounded corners*
1,1,$1+$1,$2,$3*
1,1,$1+$1,$4,$5*
1,1,$1+$1,$6,$7*
1,1,$1+$1,$8,$9*
0 Add four rect primitives between the rounded corners*
20,1,$1+$1,$2,$3,$4,$5,0*
20,1,$1+$1,$4,$5,$6,$7,0*
20,1,$1+$1,$6,$7,$8,$9,0*
20,1,$1+$1,$8,$9,$2,$3,0*%
G04 Aperture macros list end*
%ADD10C,0.010000*%
%ADD11RoundRect,0.049600X-0.605400X-0.260400X0.605400X-0.260400X0.605400X0.260400X-0.605400X0.260400X0*%
%ADD12R,0.400000X1.350000*%
%ADD13R,1.500000X1.550000*%
%ADD14RoundRect,0.250000X1.950000X1.000000X-1.950000X1.000000X-1.950000X-1.000000X1.950000X-1.000000X0*%
%ADD15RoundRect,0.250000X1.000000X-1.950000X1.000000X1.950000X-1.000000X1.950000X-1.000000X-1.950000X0*%
%ADD16RoundRect,0.250000X-0.650000X0.325000X-0.650000X-0.325000X0.650000X-0.325000X0.650000X0.325000X0*%
%ADD17RoundRect,0.150000X0.512500X0.150000X-0.512500X0.150000X-0.512500X-0.150000X0.512500X-0.150000X0*%
%ADD18RoundRect,0.250000X-0.850000X-0.350000X0.850000X-0.350000X0.850000X0.350000X-0.850000X0.350000X0*%
%ADD19RoundRect,0.250000X-1.275000X-1.125000X1.275000X-1.125000X1.275000X1.125000X-1.275000X1.125000X0*%
%ADD20R,1.500000X2.000000*%
%ADD21R,3.800000X2.000000*%
%ADD22RoundRect,0.250000X-0.325000X-0.650000X0.325000X-0.650000X0.325000X0.650000X-0.325000X0.650000X0*%
%ADD23RoundRect,0.250000X0.325000X0.650000X-0.325000X0.650000X-0.325000X-0.650000X0.325000X-0.650000X0*%
%ADD24RoundRect,0.250000X-1.000000X1.950000X-1.000000X-1.950000X1.000000X-1.950000X1.000000X1.950000X0*%
%ADD25RoundRect,0.250000X-1.075000X0.312500X-1.075000X-0.312500X1.075000X-0.312500X1.075000X0.312500X0*%
%ADD26RoundRect,0.250000X0.312500X1.075000X-0.312500X1.075000X-0.312500X-1.075000X0.312500X-1.075000X0*%
G04 APERTURE END LIST*
%TO.C,J1*%
D10*
X189560800Y-62032200D02*
X188415800Y-62032200D01*
X188389800Y-62031200D01*
X188363800Y-62029200D01*
X188337800Y-62026200D01*
X188311800Y-62021200D01*
X188286800Y-62015200D01*
X188260800Y-62008200D01*
X188236800Y-61999200D01*
X188212800Y-61989200D01*
X188188800Y-61978200D01*
X188165800Y-61965200D01*
X188143800Y-61951200D01*
X188121800Y-61937200D01*
X188100800Y-61921200D01*
X188080800Y-61904200D01*
X188061800Y-61886200D01*
X188043800Y-61867200D01*
X188026800Y-61847200D01*
X188010800Y-61826200D01*
X187996800Y-61804200D01*
X187982800Y-61782200D01*
X187969800Y-61759200D01*
X187958800Y-61735200D01*
X187948800Y-61711200D01*
X187939800Y-61687200D01*
X187932800Y-61661200D01*
X187926800Y-61636200D01*
X187921800Y-61610200D01*
X187918800Y-61584200D01*
X187916800Y-61558200D01*
X187915800Y-61532200D01*
X187915800Y-60982200D01*
X187916800Y-60956200D01*
X187918800Y-60930200D01*
X187921800Y-60904200D01*
X187926800Y-60878200D01*
X187932800Y-60853200D01*
X187939800Y-60827200D01*
X187948800Y-60803200D01*
X187958800Y-60779200D01*
X187969800Y-60755200D01*
X187982800Y-60732200D01*
X187996800Y-60710200D01*
X188010800Y-60688200D01*
X188026800Y-60667200D01*
X188043800Y-60647200D01*
X188061800Y-60628200D01*
X188080800Y-60610200D01*
X188100800Y-60593200D01*
X188121800Y-60577200D01*
X188143800Y-60563200D01*
X188165800Y-60549200D01*
X188188800Y-60536200D01*
X188212800Y-60525200D01*
X188236800Y-60515200D01*
X188260800Y-60506200D01*
X188286800Y-60499200D01*
X188311800Y-60493200D01*
X188337800Y-60488200D01*
X188363800Y-60485200D01*
X188389800Y-60483200D01*
X188415800Y-60482200D01*
X189560800Y-60482200D01*
X189560800Y-62032200D01*
G36*
X189560800Y-62032200D02*
G01*
X188415800Y-62032200D01*
X188389800Y-62031200D01*
X188363800Y-62029200D01*
X188337800Y-62026200D01*
X188311800Y-62021200D01*
X188286800Y-62015200D01*
X188260800Y-62008200D01*
X188236800Y-61999200D01*
X188212800Y-61989200D01*
X188188800Y-61978200D01*
X188165800Y-61965200D01*
X188143800Y-61951200D01*
X188121800Y-61937200D01*
X188100800Y-61921200D01*
X188080800Y-61904200D01*
X188061800Y-61886200D01*
X188043800Y-61867200D01*
X188026800Y-61847200D01*
X188010800Y-61826200D01*
X187996800Y-61804200D01*
X187982800Y-61782200D01*
X187969800Y-61759200D01*
X187958800Y-61735200D01*
X187948800Y-61711200D01*
X187939800Y-61687200D01*
X187932800Y-61661200D01*
X187926800Y-61636200D01*
X187921800Y-61610200D01*
X187918800Y-61584200D01*
X187916800Y-61558200D01*
X187915800Y-61532200D01*
X187915800Y-60982200D01*
X187916800Y-60956200D01*
X187918800Y-60930200D01*
X187921800Y-60904200D01*
X187926800Y-60878200D01*
X187932800Y-60853200D01*
X187939800Y-60827200D01*
X187948800Y-60803200D01*
X187958800Y-60779200D01*
X187969800Y-60755200D01*
X187982800Y-60732200D01*
X187996800Y-60710200D01*
X188010800Y-60688200D01*
X188026800Y-60667200D01*
X188043800Y-60647200D01*
X188061800Y-60628200D01*
X188080800Y-60610200D01*
X188100800Y-60593200D01*
X188121800Y-60577200D01*
X188143800Y-60563200D01*
X188165800Y-60549200D01*
X188188800Y-60536200D01*
X188212800Y-60525200D01*
X188236800Y-60515200D01*
X188260800Y-60506200D01*
X188286800Y-60499200D01*
X188311800Y-60493200D01*
X188337800Y-60488200D01*
X188363800Y-60485200D01*
X188389800Y-60483200D01*
X188415800Y-60482200D01*
X189560800Y-60482200D01*
X189560800Y-62032200D01*
G37*
X195331800Y-60483200D02*
X195357800Y-60485200D01*
X195383800Y-60488200D01*
X195409800Y-60493200D01*
X195434800Y-60499200D01*
X195460800Y-60506200D01*
X195484800Y-60515200D01*
X195508800Y-60525200D01*
X195532800Y-60536200D01*
X195555800Y-60549200D01*
X195577800Y-60563200D01*
X195599800Y-60577200D01*
X195620800Y-60593200D01*
X195640800Y-60610200D01*
X195659800Y-60628200D01*
X195677800Y-60647200D01*
X195694800Y-60667200D01*
X195710800Y-60688200D01*
X195724800Y-60710200D01*
X195738800Y-60732200D01*
X195751800Y-60755200D01*
X195762800Y-60779200D01*
X195772800Y-60803200D01*
X195781800Y-60827200D01*
X195788800Y-60853200D01*
X195794800Y-60878200D01*
X195799800Y-60904200D01*
X195802800Y-60930200D01*
X195804800Y-60956200D01*
X195805800Y-60982200D01*
X195805800Y-61532200D01*
X195804800Y-61558200D01*
X195802800Y-61584200D01*
X195799800Y-61610200D01*
X195794800Y-61636200D01*
X195788800Y-61661200D01*
X195781800Y-61687200D01*
X195772800Y-61711200D01*
X195762800Y-61735200D01*
X195751800Y-61759200D01*
X195738800Y-61782200D01*
X195724800Y-61804200D01*
X195710800Y-61826200D01*
X195694800Y-61847200D01*
X195677800Y-61867200D01*
X195659800Y-61886200D01*
X195640800Y-61904200D01*
X195620800Y-61921200D01*
X195599800Y-61937200D01*
X195577800Y-61951200D01*
X195555800Y-61965200D01*
X195532800Y-61978200D01*
X195508800Y-61989200D01*
X195484800Y-61999200D01*
X195460800Y-62008200D01*
X195434800Y-62015200D01*
X195409800Y-62021200D01*
X195383800Y-62026200D01*
X195357800Y-62029200D01*
X195331800Y-62031200D01*
X195305800Y-62032200D01*
X194160800Y-62032200D01*
X194160800Y-60482200D01*
X195305800Y-60482200D01*
X195331800Y-60483200D01*
G36*
X195331800Y-60483200D02*
G01*
X195357800Y-60485200D01*
X195383800Y-60488200D01*
X195409800Y-60493200D01*
X195434800Y-60499200D01*
X195460800Y-60506200D01*
X195484800Y-60515200D01*
X195508800Y-60525200D01*
X195532800Y-60536200D01*
X195555800Y-60549200D01*
X195577800Y-60563200D01*
X195599800Y-60577200D01*
X195620800Y-60593200D01*
X195640800Y-60610200D01*
X195659800Y-60628200D01*
X195677800Y-60647200D01*
X195694800Y-60667200D01*
X195710800Y-60688200D01*
X195724800Y-60710200D01*
X195738800Y-60732200D01*
X195751800Y-60755200D01*
X195762800Y-60779200D01*
X195772800Y-60803200D01*
X195781800Y-60827200D01*
X195788800Y-60853200D01*
X195794800Y-60878200D01*
X195799800Y-60904200D01*
X195802800Y-60930200D01*
X195804800Y-60956200D01*
X195805800Y-60982200D01*
X195805800Y-61532200D01*
X195804800Y-61558200D01*
X195802800Y-61584200D01*
X195799800Y-61610200D01*
X195794800Y-61636200D01*
X195788800Y-61661200D01*
X195781800Y-61687200D01*
X195772800Y-61711200D01*
X195762800Y-61735200D01*
X195751800Y-61759200D01*
X195738800Y-61782200D01*
X195724800Y-61804200D01*
X195710800Y-61826200D01*
X195694800Y-61847200D01*
X195677800Y-61867200D01*
X195659800Y-61886200D01*
X195640800Y-61904200D01*
X195620800Y-61921200D01*
X195599800Y-61937200D01*
X195577800Y-61951200D01*
X195555800Y-61965200D01*
X195532800Y-61978200D01*
X195508800Y-61989200D01*
X195484800Y-61999200D01*
X195460800Y-62008200D01*
X195434800Y-62015200D01*
X195409800Y-62021200D01*
X195383800Y-62026200D01*
X195357800Y-62029200D01*
X195331800Y-62031200D01*
X195305800Y-62032200D01*
X194160800Y-62032200D01*
X194160800Y-60482200D01*
X195305800Y-60482200D01*
X195331800Y-60483200D01*
G37*
%TD*%
D11*
%TO.C,U2*%
X182466800Y-77393800D03*
X182466800Y-76123800D03*
X182466800Y-74853800D03*
X182466800Y-73583800D03*
X182466800Y-72313800D03*
X182466800Y-71043800D03*
X182466800Y-69773800D03*
X182466800Y-68503800D03*
X187966800Y-68503800D03*
X187966800Y-69773800D03*
X187966800Y-71043800D03*
X187966800Y-72313800D03*
X187966800Y-73583800D03*
X187966800Y-74853800D03*
X187966800Y-76123800D03*
X187966800Y-77393800D03*
%TD*%
D12*
%TO.C,J1*%
X190560800Y-63932200D03*
X191210800Y-63932200D03*
X191860800Y-63932200D03*
X192510800Y-63932200D03*
X193160800Y-63932200D03*
D13*
X190860800Y-61257200D03*
X192860800Y-61257200D03*
%TD*%
D14*
%TO.C,C9*%
X201812400Y-98007200D03*
X193412400Y-98007200D03*
%TD*%
D15*
%TO.C,C7*%
X112772300Y-112489200D03*
X112772300Y-104089200D03*
%TD*%
D16*
%TO.C,C4*%
X197713600Y-62914000D03*
X197713600Y-65864000D03*
%TD*%
D17*
%TO.C,Q1*%
X195320500Y-75377000D03*
X195320500Y-77277000D03*
X193045500Y-76327000D03*
%TD*%
D14*
%TO.C,C8*%
X128834100Y-99339400D03*
X120434100Y-99339400D03*
%TD*%
D18*
%TO.C,U5*%
X128841500Y-112484600D03*
D19*
X133466500Y-108679600D03*
X133466500Y-111729600D03*
X136816500Y-108679600D03*
X136816500Y-111729600D03*
D18*
X128841500Y-107924600D03*
%TD*%
D16*
%TO.C,C3*%
X177444400Y-78103200D03*
X177444400Y-81053200D03*
%TD*%
D20*
%TO.C,U6*%
X199810400Y-90856200D03*
X197510400Y-90856200D03*
D21*
X197510400Y-84556200D03*
D20*
X195210400Y-90856200D03*
%TD*%
D17*
%TO.C,Q2*%
X195295100Y-71490800D03*
X195295100Y-73390800D03*
X193020100Y-72440800D03*
%TD*%
D22*
%TO.C,C2*%
X182471800Y-57531000D03*
X185421800Y-57531000D03*
%TD*%
D23*
%TO.C,C1*%
X177598600Y-57531000D03*
X174648600Y-57531000D03*
%TD*%
D24*
%TO.C,C10*%
X185724800Y-83623700D03*
X185724800Y-92023700D03*
%TD*%
D25*
%TO.C,R2*%
X199212200Y-73391300D03*
X199212200Y-76316300D03*
%TD*%
D26*
%TO.C,R1*%
X193842100Y-68783200D03*
X190917100Y-68783200D03*
%TD*%
M02*
