M48
; DRILL file {KiCad 7.0.7} date Tue Nov  7 23:07:15 2023
; FORMAT={-:-/ absolute / inch / decimal}
; #@! TF.CreationDate,2023-11-07T23:07:15-03:00
; #@! TF.GenerationSoftware,Kicad,Pcbnew,7.0.7
; #@! TF.FileFunction,Plated,1,2,PTH
FMAT,2
INCH
; #@! TA.AperFunction,Plated,PTH,ViaDrill
T1C0.0157
; #@! TA.AperFunction,Plated,PTH,ComponentDrill
T2C0.0197
; #@! TA.AperFunction,Plated,PTH,ComponentDrill
T3C0.0217
; #@! TA.AperFunction,Plated,PTH,ComponentDrill
T4C0.0236
; #@! TA.AperFunction,Plated,PTH,ComponentDrill
T5C0.0315
; #@! TA.AperFunction,Plated,PTH,ComponentDrill
T6C0.0339
; #@! TA.AperFunction,Plated,PTH,ComponentDrill
T7C0.0362
; #@! TA.AperFunction,Plated,PTH,ComponentDrill
T8C0.0394
; #@! TA.AperFunction,Plated,PTH,ComponentDrill
T9C0.0472
; #@! TA.AperFunction,Plated,PTH,ComponentDrill
T10C0.0591
; #@! TA.AperFunction,Plated,PTH,ComponentDrill
T11C0.0598
%
G90
G05
T1
X4.382Y-2.795
X4.559Y-3.736
X4.581Y-2.803
X4.782Y-2.802
X4.915Y-4.4285
X4.916Y-4.16
X4.982Y-2.801
X5.507Y-2.841
X5.516Y-2.921
X5.516Y-2.991
X5.516Y-3.061
X5.516Y-3.131
X5.516Y-3.211
X5.516Y-3.281
X5.548Y-2.782
X5.7317Y-4.1587
X5.917Y-2.732
X6.926Y-2.882
X6.928Y-2.832
X7.513Y-2.932
T2
X5.828Y-3.308
X5.9028Y-3.308
T5
X6.9919Y-2.443
X7.184Y-2.443
T6
X5.7317Y-3.459
X5.7317Y-3.559
X5.7317Y-3.659
X5.7317Y-3.759
X6.0443Y-3.459
X6.0443Y-3.559
X6.0443Y-3.659
X6.0443Y-3.759
T7
X4.8258Y-4.64
X4.9243Y-4.64
X5.003Y-4.64
X5.1014Y-4.64
T8
X4.516Y-3.441
X4.566Y-3.241
X4.616Y-3.441
X4.666Y-3.241
X4.716Y-3.441
X4.766Y-3.241
X4.816Y-3.441
X4.866Y-3.241
X4.916Y-3.441
X4.966Y-3.241
X5.016Y-3.441
X5.066Y-3.241
X5.116Y-3.441
X5.166Y-3.241
X5.2154Y-2.3223
X5.216Y-3.441
X5.3926Y-2.3223
X6.263Y-3.73
X6.361Y-4.012
X6.363Y-3.73
X6.461Y-4.012
X6.463Y-3.73
X6.561Y-4.012
X6.563Y-3.73
X6.661Y-4.012
X6.663Y-3.73
X6.763Y-3.73
T10
X5.1662Y-2.4207
X5.4418Y-2.4207
X7.446Y-3.7728
X7.446Y-4.5794
T11
X4.382Y-2.352
X4.582Y-2.352
X4.782Y-2.352
X4.982Y-2.352
T3
G00X7.4148Y-2.3989
M15
G01X7.4148Y-2.4245
M16
G05
G00X7.6924Y-2.3989
M15
G01X7.6924Y-2.4245
M16
G05
T4
G00X7.4492Y-2.518
M15
G01X7.4611Y-2.518
M16
G05
G00X7.6461Y-2.518
M15
G01X7.6579Y-2.518
M16
G05
T8
G00X5.632Y-4.5015
M15
G01X5.632Y-4.4149
M16
G05
G00X5.8722Y-4.344
M15
G01X5.7698Y-4.344
M16
G05
G00X5.8643Y-4.592
M15
G01X5.7777Y-4.592
M16
G05
T9
G00X6.262Y-4.7152
M15
G01X6.262Y-4.4948
M16
G05
G00X6.6754Y-4.7152
M15
G01X6.6754Y-4.4948
M16
G05
T0
M30
