%TF.GenerationSoftware,KiCad,Pcbnew,7.0.7*%
%TF.CreationDate,2023-11-07T23:05:13-03:00*%
%TF.ProjectId,robot seg,726f626f-7420-4736-9567-2e6b69636164,rev?*%
%TF.SameCoordinates,Original*%
%TF.FileFunction,Soldermask,Bot*%
%TF.FilePolarity,Negative*%
%FSLAX46Y46*%
G04 Gerber Fmt 4.6, Leading zero omitted, Abs format (unit mm)*
G04 Created by KiCad (PCBNEW 7.0.7) date 2023-11-07 23:05:13*
%MOMM*%
%LPD*%
G01*
G04 APERTURE LIST*
G04 Aperture macros list*
%AMRoundRect*
0 Rectangle with rounded corners*
0 $1 Rounding radius*
0 $2 $3 $4 $5 $6 $7 $8 $9 X,Y pos of 4 corners*
0 Add a 4 corners polygon primitive as box body*
4,1,4,$2,$3,$4,$5,$6,$7,$8,$9,$2,$3,0*
0 Add four circle primitives for the rounded corners*
1,1,$1+$1,$2,$3*
1,1,$1+$1,$4,$5*
1,1,$1+$1,$6,$7*
1,1,$1+$1,$8,$9*
0 Add four rect primitives between the rounded corners*
20,1,$1+$1,$2,$3,$4,$5,0*
20,1,$1+$1,$4,$5,$6,$7,0*
20,1,$1+$1,$6,$7,$8,$9,0*
20,1,$1+$1,$8,$9,$2,$3,0*%
G04 Aperture macros list end*
%ADD10C,0.010000*%
%ADD11R,1.700000X1.700000*%
%ADD12O,1.700000X1.700000*%
%ADD13R,3.000000X3.000000*%
%ADD14C,3.000000*%
%ADD15C,3.200000*%
%ADD16C,1.500000*%
%ADD17R,1.800000X1.800000*%
%ADD18O,1.800000X1.800000*%
%ADD19C,2.400000*%
%ADD20C,1.700000*%
%ADD21RoundRect,0.151600X-0.605400X-0.260400X0.605400X-0.260400X0.605400X0.260400X-0.605400X0.260400X0*%
%ADD22RoundRect,0.102000X-0.200000X-0.675000X0.200000X-0.675000X0.200000X0.675000X-0.200000X0.675000X0*%
%ADD23O,1.804000X1.004000*%
%ADD24O,0.954000X1.704000*%
%ADD25RoundRect,0.102000X-0.750000X-0.775000X0.750000X-0.775000X0.750000X0.775000X-0.750000X0.775000X0*%
%ADD26RoundRect,0.250000X1.950000X1.000000X-1.950000X1.000000X-1.950000X-1.000000X1.950000X-1.000000X0*%
%ADD27O,4.604000X2.404000*%
%ADD28O,4.204000X2.204000*%
%ADD29O,2.204000X4.204000*%
%ADD30RoundRect,0.250000X1.000000X-1.950000X1.000000X1.950000X-1.000000X1.950000X-1.000000X-1.950000X0*%
%ADD31RoundRect,0.250000X-0.650000X0.325000X-0.650000X-0.325000X0.650000X-0.325000X0.650000X0.325000X0*%
%ADD32RoundRect,0.150000X0.512500X0.150000X-0.512500X0.150000X-0.512500X-0.150000X0.512500X-0.150000X0*%
%ADD33RoundRect,0.250000X-0.850000X-0.350000X0.850000X-0.350000X0.850000X0.350000X-0.850000X0.350000X0*%
%ADD34RoundRect,0.249997X-2.950003X-2.650003X2.950003X-2.650003X2.950003X2.650003X-2.950003X2.650003X0*%
%ADD35RoundRect,0.102000X-0.605000X-0.605000X0.605000X-0.605000X0.605000X0.605000X-0.605000X0.605000X0*%
%ADD36C,1.414000*%
%ADD37R,1.500000X2.000000*%
%ADD38R,3.800000X2.000000*%
%ADD39RoundRect,0.250000X-0.325000X-0.650000X0.325000X-0.650000X0.325000X0.650000X-0.325000X0.650000X0*%
%ADD40C,2.300000*%
%ADD41RoundRect,0.102000X0.714000X0.714000X-0.714000X0.714000X-0.714000X-0.714000X0.714000X-0.714000X0*%
%ADD42C,1.632000*%
%ADD43RoundRect,0.250000X0.325000X0.650000X-0.325000X0.650000X-0.325000X-0.650000X0.325000X-0.650000X0*%
%ADD44RoundRect,0.250000X-1.000000X1.950000X-1.000000X-1.950000X1.000000X-1.950000X1.000000X1.950000X0*%
%ADD45RoundRect,0.250000X-1.075000X0.312500X-1.075000X-0.312500X1.075000X-0.312500X1.075000X0.312500X0*%
%ADD46O,4.404000X8.604000*%
%ADD47C,1.000000*%
%ADD48RoundRect,0.250000X0.312500X1.075000X-0.312500X1.075000X-0.312500X-1.075000X0.312500X-1.075000X0*%
G04 APERTURE END LIST*
%TO.C,J1*%
D10*
X189660800Y-62132200D02*
X188315800Y-62132200D01*
X188289800Y-62131200D01*
X188263800Y-62129200D01*
X188237800Y-62126200D01*
X188211800Y-62121200D01*
X188186800Y-62115200D01*
X188160800Y-62108200D01*
X188136800Y-62099200D01*
X188112800Y-62089200D01*
X188088800Y-62078200D01*
X188065800Y-62065200D01*
X188043800Y-62051200D01*
X188021800Y-62037200D01*
X188000800Y-62021200D01*
X187980800Y-62004200D01*
X187961800Y-61986200D01*
X187943800Y-61967200D01*
X187926800Y-61947200D01*
X187910800Y-61926200D01*
X187896800Y-61904200D01*
X187882800Y-61882200D01*
X187869800Y-61859200D01*
X187858800Y-61835200D01*
X187848800Y-61811200D01*
X187839800Y-61787200D01*
X187832800Y-61761200D01*
X187826800Y-61736200D01*
X187821800Y-61710200D01*
X187818800Y-61684200D01*
X187816800Y-61658200D01*
X187815800Y-61632200D01*
X187815800Y-60882200D01*
X187816800Y-60856200D01*
X187818800Y-60830200D01*
X187821800Y-60804200D01*
X187826800Y-60778200D01*
X187832800Y-60753200D01*
X187839800Y-60727200D01*
X187848800Y-60703200D01*
X187858800Y-60679200D01*
X187869800Y-60655200D01*
X187882800Y-60632200D01*
X187896800Y-60610200D01*
X187910800Y-60588200D01*
X187926800Y-60567200D01*
X187943800Y-60547200D01*
X187961800Y-60528200D01*
X187980800Y-60510200D01*
X188000800Y-60493200D01*
X188021800Y-60477200D01*
X188043800Y-60463200D01*
X188065800Y-60449200D01*
X188088800Y-60436200D01*
X188112800Y-60425200D01*
X188136800Y-60415200D01*
X188160800Y-60406200D01*
X188186800Y-60399200D01*
X188211800Y-60393200D01*
X188237800Y-60388200D01*
X188263800Y-60385200D01*
X188289800Y-60383200D01*
X188315800Y-60382200D01*
X189660800Y-60382200D01*
X189660800Y-62132200D01*
G36*
X189660800Y-62132200D02*
G01*
X188315800Y-62132200D01*
X188289800Y-62131200D01*
X188263800Y-62129200D01*
X188237800Y-62126200D01*
X188211800Y-62121200D01*
X188186800Y-62115200D01*
X188160800Y-62108200D01*
X188136800Y-62099200D01*
X188112800Y-62089200D01*
X188088800Y-62078200D01*
X188065800Y-62065200D01*
X188043800Y-62051200D01*
X188021800Y-62037200D01*
X188000800Y-62021200D01*
X187980800Y-62004200D01*
X187961800Y-61986200D01*
X187943800Y-61967200D01*
X187926800Y-61947200D01*
X187910800Y-61926200D01*
X187896800Y-61904200D01*
X187882800Y-61882200D01*
X187869800Y-61859200D01*
X187858800Y-61835200D01*
X187848800Y-61811200D01*
X187839800Y-61787200D01*
X187832800Y-61761200D01*
X187826800Y-61736200D01*
X187821800Y-61710200D01*
X187818800Y-61684200D01*
X187816800Y-61658200D01*
X187815800Y-61632200D01*
X187815800Y-60882200D01*
X187816800Y-60856200D01*
X187818800Y-60830200D01*
X187821800Y-60804200D01*
X187826800Y-60778200D01*
X187832800Y-60753200D01*
X187839800Y-60727200D01*
X187848800Y-60703200D01*
X187858800Y-60679200D01*
X187869800Y-60655200D01*
X187882800Y-60632200D01*
X187896800Y-60610200D01*
X187910800Y-60588200D01*
X187926800Y-60567200D01*
X187943800Y-60547200D01*
X187961800Y-60528200D01*
X187980800Y-60510200D01*
X188000800Y-60493200D01*
X188021800Y-60477200D01*
X188043800Y-60463200D01*
X188065800Y-60449200D01*
X188088800Y-60436200D01*
X188112800Y-60425200D01*
X188136800Y-60415200D01*
X188160800Y-60406200D01*
X188186800Y-60399200D01*
X188211800Y-60393200D01*
X188237800Y-60388200D01*
X188263800Y-60385200D01*
X188289800Y-60383200D01*
X188315800Y-60382200D01*
X189660800Y-60382200D01*
X189660800Y-62132200D01*
G37*
X195431800Y-60383200D02*
X195457800Y-60385200D01*
X195483800Y-60388200D01*
X195509800Y-60393200D01*
X195534800Y-60399200D01*
X195560800Y-60406200D01*
X195584800Y-60415200D01*
X195608800Y-60425200D01*
X195632800Y-60436200D01*
X195655800Y-60449200D01*
X195677800Y-60463200D01*
X195699800Y-60477200D01*
X195720800Y-60493200D01*
X195740800Y-60510200D01*
X195759800Y-60528200D01*
X195777800Y-60547200D01*
X195794800Y-60567200D01*
X195810800Y-60588200D01*
X195824800Y-60610200D01*
X195838800Y-60632200D01*
X195851800Y-60655200D01*
X195862800Y-60679200D01*
X195872800Y-60703200D01*
X195881800Y-60727200D01*
X195888800Y-60753200D01*
X195894800Y-60778200D01*
X195899800Y-60804200D01*
X195902800Y-60830200D01*
X195904800Y-60856200D01*
X195905800Y-60882200D01*
X195905800Y-61632200D01*
X195904800Y-61658200D01*
X195902800Y-61684200D01*
X195899800Y-61710200D01*
X195894800Y-61736200D01*
X195888800Y-61761200D01*
X195881800Y-61787200D01*
X195872800Y-61811200D01*
X195862800Y-61835200D01*
X195851800Y-61859200D01*
X195838800Y-61882200D01*
X195824800Y-61904200D01*
X195810800Y-61926200D01*
X195794800Y-61947200D01*
X195777800Y-61967200D01*
X195759800Y-61986200D01*
X195740800Y-62004200D01*
X195720800Y-62021200D01*
X195699800Y-62037200D01*
X195677800Y-62051200D01*
X195655800Y-62065200D01*
X195632800Y-62078200D01*
X195608800Y-62089200D01*
X195584800Y-62099200D01*
X195560800Y-62108200D01*
X195534800Y-62115200D01*
X195509800Y-62121200D01*
X195483800Y-62126200D01*
X195457800Y-62129200D01*
X195431800Y-62131200D01*
X195405800Y-62132200D01*
X194060800Y-62132200D01*
X194060800Y-60382200D01*
X195405800Y-60382200D01*
X195431800Y-60383200D01*
G36*
X195431800Y-60383200D02*
G01*
X195457800Y-60385200D01*
X195483800Y-60388200D01*
X195509800Y-60393200D01*
X195534800Y-60399200D01*
X195560800Y-60406200D01*
X195584800Y-60415200D01*
X195608800Y-60425200D01*
X195632800Y-60436200D01*
X195655800Y-60449200D01*
X195677800Y-60463200D01*
X195699800Y-60477200D01*
X195720800Y-60493200D01*
X195740800Y-60510200D01*
X195759800Y-60528200D01*
X195777800Y-60547200D01*
X195794800Y-60567200D01*
X195810800Y-60588200D01*
X195824800Y-60610200D01*
X195838800Y-60632200D01*
X195851800Y-60655200D01*
X195862800Y-60679200D01*
X195872800Y-60703200D01*
X195881800Y-60727200D01*
X195888800Y-60753200D01*
X195894800Y-60778200D01*
X195899800Y-60804200D01*
X195902800Y-60830200D01*
X195904800Y-60856200D01*
X195905800Y-60882200D01*
X195905800Y-61632200D01*
X195904800Y-61658200D01*
X195902800Y-61684200D01*
X195899800Y-61710200D01*
X195894800Y-61736200D01*
X195888800Y-61761200D01*
X195881800Y-61787200D01*
X195872800Y-61811200D01*
X195862800Y-61835200D01*
X195851800Y-61859200D01*
X195838800Y-61882200D01*
X195824800Y-61904200D01*
X195810800Y-61926200D01*
X195794800Y-61947200D01*
X195777800Y-61967200D01*
X195759800Y-61986200D01*
X195740800Y-62004200D01*
X195720800Y-62021200D01*
X195699800Y-62037200D01*
X195677800Y-62051200D01*
X195655800Y-62065200D01*
X195632800Y-62078200D01*
X195608800Y-62089200D01*
X195584800Y-62099200D01*
X195560800Y-62108200D01*
X195534800Y-62115200D01*
X195509800Y-62121200D01*
X195483800Y-62126200D01*
X195457800Y-62129200D01*
X195431800Y-62131200D01*
X195405800Y-62132200D01*
X194060800Y-62132200D01*
X194060800Y-60382200D01*
X195405800Y-60382200D01*
X195431800Y-60383200D01*
G37*
%TD*%
D11*
%TO.C,J4*%
X159080200Y-94742000D03*
D12*
X161620200Y-94742000D03*
X164160200Y-94742000D03*
X166700200Y-94742000D03*
X169240200Y-94742000D03*
X171780200Y-94742000D03*
%TD*%
D13*
%TO.C,BT1*%
X189128400Y-116318001D03*
D14*
X189128400Y-95828001D03*
%TD*%
D15*
%TO.C,H3*%
X203200000Y-59029600D03*
%TD*%
%TO.C,H4*%
X203301600Y-121056400D03*
%TD*%
D16*
%TO.C,Y1*%
X177593600Y-62052200D03*
X182473600Y-62052200D03*
%TD*%
D15*
%TO.C,H1*%
X148158200Y-58699400D03*
%TD*%
D17*
%TO.C,U3*%
X114706400Y-87401400D03*
D18*
X115976400Y-82321400D03*
X117246400Y-87401400D03*
X118516400Y-82321400D03*
X119786400Y-87401400D03*
X121056400Y-82321400D03*
X122326400Y-87401400D03*
X123596400Y-82321400D03*
X124866400Y-87401400D03*
X126136400Y-82321400D03*
X127406400Y-87401400D03*
X128676400Y-82321400D03*
X129946400Y-87401400D03*
X131216400Y-82321400D03*
X132486400Y-87401400D03*
%TD*%
D19*
%TO.C,SWJ1*%
X131221599Y-61487000D03*
X138221599Y-61487000D03*
D20*
X132471599Y-58987000D03*
X136971599Y-58987000D03*
%TD*%
D13*
%TO.C,J2*%
X126542800Y-59740800D03*
D14*
X121462800Y-59740800D03*
X116382800Y-59740800D03*
X111302800Y-59740800D03*
%TD*%
D11*
%TO.C,J5*%
X169189400Y-101904800D03*
D12*
X166649400Y-101904800D03*
X164109400Y-101904800D03*
X161569400Y-101904800D03*
%TD*%
D15*
%TO.C,H2*%
X111709200Y-120777000D03*
%TD*%
D21*
%TO.C,U2*%
X182466800Y-77393800D03*
X182466800Y-76123800D03*
X182466800Y-74853800D03*
X182466800Y-73583800D03*
X182466800Y-72313800D03*
X182466800Y-71043800D03*
X182466800Y-69773800D03*
X182466800Y-68503800D03*
X187966800Y-68503800D03*
X187966800Y-69773800D03*
X187966800Y-71043800D03*
X187966800Y-72313800D03*
X187966800Y-73583800D03*
X187966800Y-74853800D03*
X187966800Y-76123800D03*
X187966800Y-77393800D03*
%TD*%
D22*
%TO.C,J1*%
X190560800Y-63932200D03*
X191210800Y-63932200D03*
X191860800Y-63932200D03*
X192510800Y-63932200D03*
X193160800Y-63932200D03*
D23*
X189360800Y-63957200D03*
X194360800Y-63957200D03*
D24*
X188335800Y-61257200D03*
D25*
X190860800Y-61257200D03*
X192860800Y-61257200D03*
D24*
X195385800Y-61257200D03*
%TD*%
D26*
%TO.C,C9*%
X201812400Y-98007200D03*
X193412400Y-98007200D03*
%TD*%
D27*
%TO.C,J3*%
X147853400Y-110337600D03*
D28*
X147853400Y-116637600D03*
D29*
X143053400Y-113237600D03*
%TD*%
D30*
%TO.C,C7*%
X112772300Y-112489200D03*
X112772300Y-104089200D03*
%TD*%
D31*
%TO.C,C4*%
X197713600Y-62914000D03*
X197713600Y-65864000D03*
%TD*%
D32*
%TO.C,Q1*%
X195320500Y-75377000D03*
X195320500Y-77277000D03*
X193045500Y-76327000D03*
%TD*%
D26*
%TO.C,C8*%
X128834100Y-99339400D03*
X120434100Y-99339400D03*
%TD*%
D33*
%TO.C,U5*%
X128841500Y-112484600D03*
D34*
X135141500Y-110204600D03*
D33*
X128841500Y-107924600D03*
%TD*%
D35*
%TO.C,U4*%
X145585200Y-95478600D03*
D36*
X145585200Y-92938600D03*
X145585200Y-90398600D03*
X145585200Y-87858600D03*
X153525200Y-87858600D03*
X153525200Y-90398600D03*
X153525200Y-92938600D03*
X153525200Y-95478600D03*
%TD*%
D31*
%TO.C,C3*%
X177444400Y-78103200D03*
X177444400Y-81053200D03*
%TD*%
D37*
%TO.C,U6*%
X199810400Y-90856200D03*
X197510400Y-90856200D03*
D38*
X197510400Y-84556200D03*
D37*
X195210400Y-90856200D03*
%TD*%
D32*
%TO.C,Q2*%
X195295100Y-71490800D03*
X195295100Y-73390800D03*
X193020100Y-72440800D03*
%TD*%
D39*
%TO.C,C2*%
X182471800Y-57531000D03*
X185421800Y-57531000D03*
%TD*%
D40*
%TO.C,P1*%
X132646200Y-120566000D03*
X119506200Y-120566000D03*
D41*
X129576200Y-117856000D03*
D42*
X127076200Y-117856000D03*
X125076200Y-117856000D03*
X122576200Y-117856000D03*
%TD*%
D43*
%TO.C,C1*%
X177598600Y-57531000D03*
X174648600Y-57531000D03*
%TD*%
D44*
%TO.C,C10*%
X185724800Y-83623700D03*
X185724800Y-92023700D03*
%TD*%
D45*
%TO.C,R2*%
X199212200Y-73391300D03*
X199212200Y-76316300D03*
%TD*%
D46*
%TO.C,S1*%
X159054300Y-116967000D03*
X169554300Y-116967000D03*
%TD*%
D47*
%TO.C,Y2*%
X148031200Y-84023200D03*
X149931200Y-84023200D03*
%TD*%
D48*
%TO.C,R1*%
X193842100Y-68783200D03*
X190917100Y-68783200D03*
%TD*%
M02*
