%TF.GenerationSoftware,KiCad,Pcbnew,7.0.7*%
%TF.CreationDate,2023-11-07T23:05:13-03:00*%
%TF.ProjectId,robot seg,726f626f-7420-4736-9567-2e6b69636164,rev?*%
%TF.SameCoordinates,Original*%
%TF.FileFunction,Copper,L1,Top*%
%TF.FilePolarity,Positive*%
%FSLAX46Y46*%
G04 Gerber Fmt 4.6, Leading zero omitted, Abs format (unit mm)*
G04 Created by KiCad (PCBNEW 7.0.7) date 2023-11-07 23:05:13*
%MOMM*%
%LPD*%
G01*
G04 APERTURE LIST*
G04 Aperture macros list*
%AMRoundRect*
0 Rectangle with rounded corners*
0 $1 Rounding radius*
0 $2 $3 $4 $5 $6 $7 $8 $9 X,Y pos of 4 corners*
0 Add a 4 corners polygon primitive as box body*
4,1,4,$2,$3,$4,$5,$6,$7,$8,$9,$2,$3,0*
0 Add four circle primitives for the rounded corners*
1,1,$1+$1,$2,$3*
1,1,$1+$1,$4,$5*
1,1,$1+$1,$6,$7*
1,1,$1+$1,$8,$9*
0 Add four rect primitives between the rounded corners*
20,1,$1+$1,$2,$3,$4,$5,0*
20,1,$1+$1,$4,$5,$6,$7,0*
20,1,$1+$1,$6,$7,$8,$9,0*
20,1,$1+$1,$8,$9,$2,$3,0*%
G04 Aperture macros list end*
%TA.AperFunction,SMDPad,CuDef*%
%ADD10RoundRect,0.250000X-0.625000X0.375000X-0.625000X-0.375000X0.625000X-0.375000X0.625000X0.375000X0*%
%TD*%
%TA.AperFunction,ComponentPad*%
%ADD11R,1.700000X1.700000*%
%TD*%
%TA.AperFunction,ComponentPad*%
%ADD12O,1.700000X1.700000*%
%TD*%
%TA.AperFunction,ComponentPad*%
%ADD13R,3.000000X3.000000*%
%TD*%
%TA.AperFunction,ComponentPad*%
%ADD14C,3.000000*%
%TD*%
%TA.AperFunction,SMDPad,CuDef*%
%ADD15RoundRect,0.250000X1.450000X-0.400000X1.450000X0.400000X-1.450000X0.400000X-1.450000X-0.400000X0*%
%TD*%
%TA.AperFunction,SMDPad,CuDef*%
%ADD16RoundRect,0.250000X-0.312500X-1.075000X0.312500X-1.075000X0.312500X1.075000X-0.312500X1.075000X0*%
%TD*%
%TA.AperFunction,SMDPad,CuDef*%
%ADD17RoundRect,0.250000X0.375000X0.625000X-0.375000X0.625000X-0.375000X-0.625000X0.375000X-0.625000X0*%
%TD*%
%TA.AperFunction,SMDPad,CuDef*%
%ADD18RoundRect,0.250000X-0.325000X-0.650000X0.325000X-0.650000X0.325000X0.650000X-0.325000X0.650000X0*%
%TD*%
%TA.AperFunction,SMDPad,CuDef*%
%ADD19R,1.500000X0.900000*%
%TD*%
%TA.AperFunction,SMDPad,CuDef*%
%ADD20R,0.900000X1.500000*%
%TD*%
%TA.AperFunction,SMDPad,CuDef*%
%ADD21R,0.900000X0.900000*%
%TD*%
%TA.AperFunction,ComponentPad*%
%ADD22C,1.500000*%
%TD*%
%TA.AperFunction,ComponentPad*%
%ADD23R,1.800000X1.800000*%
%TD*%
%TA.AperFunction,ComponentPad*%
%ADD24O,1.800000X1.800000*%
%TD*%
%TA.AperFunction,ComponentPad*%
%ADD25C,2.400000*%
%TD*%
%TA.AperFunction,ComponentPad*%
%ADD26C,1.700000*%
%TD*%
%TA.AperFunction,SMDPad,CuDef*%
%ADD27RoundRect,0.250000X-1.075000X0.312500X-1.075000X-0.312500X1.075000X-0.312500X1.075000X0.312500X0*%
%TD*%
%TA.AperFunction,ComponentPad*%
%ADD28O,1.600000X0.800000*%
%TD*%
%TA.AperFunction,ComponentPad*%
%ADD29O,0.750000X1.500000*%
%TD*%
%TA.AperFunction,ComponentPad*%
%ADD30O,4.400000X2.200000*%
%TD*%
%TA.AperFunction,ComponentPad*%
%ADD31O,4.000000X2.000000*%
%TD*%
%TA.AperFunction,ComponentPad*%
%ADD32O,2.000000X4.000000*%
%TD*%
%TA.AperFunction,ComponentPad*%
%ADD33R,1.210000X1.210000*%
%TD*%
%TA.AperFunction,ComponentPad*%
%ADD34C,1.210000*%
%TD*%
%TA.AperFunction,ComponentPad*%
%ADD35R,1.428000X1.428000*%
%TD*%
%TA.AperFunction,ComponentPad*%
%ADD36C,1.428000*%
%TD*%
%TA.AperFunction,ComponentPad*%
%ADD37O,4.200000X8.400000*%
%TD*%
%TA.AperFunction,ComponentPad*%
%ADD38C,1.000000*%
%TD*%
%TA.AperFunction,ViaPad*%
%ADD39C,0.800000*%
%TD*%
%TA.AperFunction,Conductor*%
%ADD40C,0.500000*%
%TD*%
%TA.AperFunction,Conductor*%
%ADD41C,0.750000*%
%TD*%
%TA.AperFunction,Conductor*%
%ADD42C,1.500000*%
%TD*%
%TA.AperFunction,Conductor*%
%ADD43C,1.000000*%
%TD*%
%TA.AperFunction,Conductor*%
%ADD44C,2.000000*%
%TD*%
G04 APERTURE END LIST*
D10*
%TO.P,D1,1,K*%
%TO.N,GND*%
X173456600Y-88973200D03*
%TO.P,D1,2,A*%
%TO.N,Net-(D1-A)*%
X173456600Y-91773200D03*
%TD*%
D11*
%TO.P,J4,1,Pin_1*%
%TO.N,GND*%
X159080200Y-94742000D03*
D12*
%TO.P,J4,2,Pin_2*%
%TO.N,unconnected-(J4-Pin_2-Pad2)*%
X161620200Y-94742000D03*
%TO.P,J4,3,Pin_3*%
%TO.N,/SCL*%
X164160200Y-94742000D03*
%TO.P,J4,4,Pin_4*%
%TO.N,/SDA*%
X166700200Y-94742000D03*
%TO.P,J4,5,Pin_5*%
%TO.N,+5V*%
X169240200Y-94742000D03*
%TO.P,J4,6,Pin_6*%
%TO.N,unconnected-(J4-Pin_6-Pad6)*%
X171780200Y-94742000D03*
%TD*%
D13*
%TO.P,BT1,1,+*%
%TO.N,/Vpila*%
X189128400Y-116318001D03*
D14*
%TO.P,BT1,2,-*%
%TO.N,GND*%
X189128400Y-95828001D03*
%TD*%
D15*
%TO.P,D9,1,K*%
%TO.N,/OUT_2*%
X119532400Y-102641400D03*
%TO.P,D9,2,A*%
%TO.N,GND*%
X119532400Y-98191400D03*
%TD*%
D16*
%TO.P,R5,1*%
%TO.N,+3V3*%
X144028700Y-65024000D03*
%TO.P,R5,2*%
%TO.N,Net-(D10-A)*%
X146953700Y-65024000D03*
%TD*%
D17*
%TO.P,D10,1,K*%
%TO.N,GND*%
X152758600Y-65024000D03*
%TO.P,D10,2,A*%
%TO.N,Net-(D10-A)*%
X149958600Y-65024000D03*
%TD*%
D18*
%TO.P,C6,1*%
%TO.N,GND*%
X135353000Y-69773800D03*
%TO.P,C6,2*%
%TO.N,/EN*%
X138303000Y-69773800D03*
%TD*%
D19*
%TO.P,U1,1,GND@1*%
%TO.N,GND*%
X155332400Y-68127400D03*
%TO.P,U1,2,VDD*%
%TO.N,+3V3*%
X155332400Y-69397400D03*
%TO.P,U1,3,EN*%
%TO.N,/EN*%
X155332400Y-70667400D03*
%TO.P,U1,4,IO36*%
%TO.N,/EN_A*%
X155332400Y-71937400D03*
%TO.P,U1,5,IO39*%
%TO.N,/MB_1*%
X155332400Y-73207400D03*
%TO.P,U1,6,IO34*%
%TO.N,/MB_2*%
X155332400Y-74477400D03*
%TO.P,U1,7,IO35*%
%TO.N,/EN_B*%
X155332400Y-75747400D03*
%TO.P,U1,8,IO32*%
%TO.N,/MA_2*%
X155332400Y-77017400D03*
%TO.P,U1,9,IO33*%
%TO.N,/MA_1*%
X155332400Y-78287400D03*
%TO.P,U1,10,IO25*%
%TO.N,unconnected-(U1-IO25-Pad10)*%
X155332400Y-79557400D03*
%TO.P,U1,11,IO26*%
%TO.N,unconnected-(U1-IO26-Pad11)*%
X155332400Y-80827400D03*
%TO.P,U1,12,IO27*%
%TO.N,/Data*%
X155332400Y-82097400D03*
%TO.P,U1,13,IO14*%
%TO.N,/RESET*%
X155332400Y-83367400D03*
%TO.P,U1,14,IO12*%
%TO.N,/CLK*%
X155332400Y-84637400D03*
D20*
%TO.P,U1,15,GND@15*%
%TO.N,GND*%
X158367400Y-85887400D03*
%TO.P,U1,16,IO13*%
%TO.N,/Servos*%
X159637400Y-85887400D03*
%TO.P,U1,17,NC@17*%
%TO.N,unconnected-(U1-NC@17-Pad17)*%
X160907400Y-85887400D03*
%TO.P,U1,18,NC@18*%
%TO.N,unconnected-(U1-NC@18-Pad18)*%
X162177400Y-85887400D03*
%TO.P,U1,19,NC@19*%
%TO.N,unconnected-(U1-NC@19-Pad19)*%
X163447400Y-85887400D03*
%TO.P,U1,20,NC@20*%
%TO.N,unconnected-(U1-NC@20-Pad20)*%
X164717400Y-85887400D03*
%TO.P,U1,21,NC@21*%
%TO.N,/SCL*%
X165987400Y-85887400D03*
%TO.P,U1,22,NC@22*%
%TO.N,/SDA*%
X167257400Y-85887400D03*
%TO.P,U1,23,IO15*%
%TO.N,unconnected-(U1-IO15-Pad23)*%
X168527400Y-85887400D03*
%TO.P,U1,24,IO2*%
%TO.N,/Led prueba*%
X169797400Y-85887400D03*
D19*
%TO.P,U1,25,IO0*%
%TO.N,unconnected-(U1-IO0-Pad25)*%
X172832400Y-84637400D03*
%TO.P,U1,26,IO4*%
%TO.N,unconnected-(U1-IO4-Pad26)*%
X172832400Y-83367400D03*
%TO.P,U1,27,IO16*%
%TO.N,unconnected-(U1-IO16-Pad27)*%
X172832400Y-82097400D03*
%TO.P,U1,28,IO17*%
%TO.N,unconnected-(U1-IO17-Pad28)*%
X172832400Y-80827400D03*
%TO.P,U1,29,IO5*%
%TO.N,unconnected-(U1-IO5-Pad29)*%
X172832400Y-79557400D03*
%TO.P,U1,30,IO18*%
%TO.N,unconnected-(U1-IO18-Pad30)*%
X172832400Y-78287400D03*
%TO.P,U1,31,IO19*%
%TO.N,unconnected-(U1-IO19-Pad31)*%
X172832400Y-77017400D03*
%TO.P,U1,32,NC@32*%
%TO.N,unconnected-(U1-NC@32-Pad32)*%
X172832400Y-75747400D03*
%TO.P,U1,33,IO21*%
%TO.N,/ID0*%
X172832400Y-74477400D03*
%TO.P,U1,34,IO3*%
%TO.N,/Tx*%
X172832400Y-73207400D03*
%TO.P,U1,35,IO1*%
%TO.N,/Rx*%
X172832400Y-71937400D03*
%TO.P,U1,36,IO22*%
%TO.N,unconnected-(U1-IO22-Pad36)*%
X172832400Y-70667400D03*
%TO.P,U1,37,IO23*%
%TO.N,unconnected-(U1-IO23-Pad37)*%
X172832400Y-69397400D03*
%TO.P,U1,38,GND@38*%
%TO.N,GND*%
X172832400Y-68127400D03*
D21*
%TO.P,U1,GND@39,THERMAL@39*%
%TO.N,Net-(U1-THERMAL@39-PadGND@39)*%
X161182400Y-74447400D03*
%TO.P,U1,GND@40,THERMAL@39*%
X162582400Y-74447400D03*
%TO.P,U1,GND@41,THERMAL@39*%
X163982400Y-74447400D03*
%TO.P,U1,GND@42,THERMAL@39*%
X161182400Y-75847400D03*
%TO.P,U1,GND@43,THERMAL@39*%
X162582400Y-75847400D03*
%TO.P,U1,GND@44,THERMAL@39*%
X163982400Y-75847400D03*
%TO.P,U1,GND@45,THERMAL@39*%
X161182400Y-77247400D03*
%TO.P,U1,GND@46,THERMAL@39*%
X162582400Y-77247400D03*
%TO.P,U1,GND@47,THERMAL@39*%
X163982400Y-77247400D03*
%TD*%
D15*
%TO.P,D5,1,K*%
%TO.N,/OUT_3*%
X130449400Y-102636400D03*
%TO.P,D5,2,A*%
%TO.N,GND*%
X130449400Y-98186400D03*
%TD*%
D22*
%TO.P,Y1,1,1*%
%TO.N,/XI*%
X177593600Y-62052200D03*
%TO.P,Y1,2,2*%
%TO.N,/XO*%
X182473600Y-62052200D03*
%TD*%
D15*
%TO.P,D8,1,K*%
%TO.N,VCC*%
X119527400Y-114833400D03*
%TO.P,D8,2,A*%
%TO.N,/OUT_2*%
X119527400Y-110383400D03*
%TD*%
D16*
%TO.P,R3,1*%
%TO.N,/EN*%
X141107700Y-68224400D03*
%TO.P,R3,2*%
%TO.N,+3V3*%
X144032700Y-68224400D03*
%TD*%
D23*
%TO.P,U3,1,SENSE_A*%
%TO.N,GND*%
X114706400Y-87401400D03*
D24*
%TO.P,U3,2,OUT1*%
%TO.N,/OUT_1*%
X115976400Y-82321400D03*
%TO.P,U3,3,OUT2*%
%TO.N,/OUT_2*%
X117246400Y-87401400D03*
%TO.P,U3,4,Vs*%
%TO.N,VCC*%
X118516400Y-82321400D03*
%TO.P,U3,5,IN1*%
%TO.N,/MA_1*%
X119786400Y-87401400D03*
%TO.P,U3,6,EnA*%
%TO.N,/EN_A*%
X121056400Y-82321400D03*
%TO.P,U3,7,IN2*%
%TO.N,/MA_2*%
X122326400Y-87401400D03*
%TO.P,U3,8,GND*%
%TO.N,GND*%
X123596400Y-82321400D03*
%TO.P,U3,9,Vss*%
%TO.N,+5V*%
X124866400Y-87401400D03*
%TO.P,U3,10,IN3*%
%TO.N,/MB_1*%
X126136400Y-82321400D03*
%TO.P,U3,11,EnB*%
%TO.N,/EN_B*%
X127406400Y-87401400D03*
%TO.P,U3,12,IN4*%
%TO.N,/MB_2*%
X128676400Y-82321400D03*
%TO.P,U3,13,OUT3*%
%TO.N,/OUT_3*%
X129946400Y-87401400D03*
%TO.P,U3,14,OUT4*%
%TO.N,/OUT_4*%
X131216400Y-82321400D03*
%TO.P,U3,15,SENSE_B*%
%TO.N,GND*%
X132486400Y-87401400D03*
%TD*%
D15*
%TO.P,D7,1,K*%
%TO.N,/OUT_1*%
X113690400Y-102641400D03*
%TO.P,D7,2,A*%
%TO.N,GND*%
X113690400Y-98191400D03*
%TD*%
%TO.P,D6,1,K*%
%TO.N,VCC*%
X113685400Y-114833400D03*
%TO.P,D6,2,A*%
%TO.N,/OUT_1*%
X113685400Y-110383400D03*
%TD*%
%TO.P,D3,1,K*%
%TO.N,/OUT_4*%
X137820400Y-102575400D03*
%TO.P,D3,2,A*%
%TO.N,GND*%
X137820400Y-98125400D03*
%TD*%
%TO.P,D4,1,K*%
%TO.N,VCC*%
X130454400Y-114828400D03*
%TO.P,D4,2,A*%
%TO.N,/OUT_3*%
X130454400Y-110378400D03*
%TD*%
D25*
%TO.P,SWJ1,*%
%TO.N,*%
X131221599Y-61487000D03*
X138221599Y-61487000D03*
D26*
%TO.P,SWJ1,1,A*%
%TO.N,GND*%
X132471599Y-58987000D03*
%TO.P,SWJ1,2,B*%
%TO.N,/EN*%
X136971599Y-58987000D03*
%TD*%
D13*
%TO.P,J2,1,Pin_1*%
%TO.N,/MB_2*%
X126542800Y-59740800D03*
D14*
%TO.P,J2,2,Pin_2*%
%TO.N,/MB_1*%
X121462800Y-59740800D03*
%TO.P,J2,3,Pin_3*%
%TO.N,/MA_2*%
X116382800Y-59740800D03*
%TO.P,J2,4,Pin_4*%
%TO.N,/MA_1*%
X111302800Y-59740800D03*
%TD*%
D15*
%TO.P,D2,1,K*%
%TO.N,VCC*%
X137820400Y-114828400D03*
%TO.P,D2,2,A*%
%TO.N,/OUT_4*%
X137820400Y-110378400D03*
%TD*%
D11*
%TO.P,J5,1,Pin_1*%
%TO.N,+5V*%
X169189400Y-101904800D03*
D12*
%TO.P,J5,2,Pin_2*%
%TO.N,GND*%
X166649400Y-101904800D03*
%TO.P,J5,3,Pin_3*%
%TO.N,/Servos*%
X164109400Y-101904800D03*
%TO.P,J5,4,Pin_4*%
%TO.N,unconnected-(J5-Pin_4-Pad4)*%
X161569400Y-101904800D03*
%TD*%
D18*
%TO.P,C5,1*%
%TO.N,GND*%
X135353000Y-67335400D03*
%TO.P,C5,2*%
%TO.N,/EN*%
X138303000Y-67335400D03*
%TD*%
D27*
%TO.P,R4,1*%
%TO.N,/Led prueba*%
X169799000Y-88849200D03*
%TO.P,R4,2*%
%TO.N,Net-(D1-A)*%
X169799000Y-91774200D03*
%TD*%
D28*
%TO.P,J1,S1,SHIELD*%
%TO.N,GND*%
X189360800Y-63957200D03*
%TO.P,J1,S2,SHIELD*%
X194360800Y-63957200D03*
D29*
%TO.P,J1,S3,SHIELD*%
X188335800Y-61257200D03*
%TO.P,J1,S6,SHIELD*%
X195385800Y-61257200D03*
%TD*%
D30*
%TO.P,J3,1*%
%TO.N,/Vin*%
X147853400Y-110337600D03*
D31*
%TO.P,J3,2*%
%TO.N,GND*%
X147853400Y-116637600D03*
D32*
%TO.P,J3,3*%
X143053400Y-113237600D03*
%TD*%
D33*
%TO.P,U4,1,VCC*%
%TO.N,+5V*%
X145585200Y-95478600D03*
D34*
%TO.P,U4,2,X1*%
%TO.N,Net-(U4-X1)*%
X145585200Y-92938600D03*
%TO.P,U4,3,X2*%
%TO.N,Net-(U4-X2)*%
X145585200Y-90398600D03*
%TO.P,U4,4,GND*%
%TO.N,GND*%
X145585200Y-87858600D03*
%TO.P,U4,5,CE*%
%TO.N,/RESET*%
X153525200Y-87858600D03*
%TO.P,U4,6,I/O*%
%TO.N,/Data*%
X153525200Y-90398600D03*
%TO.P,U4,7,SCLK*%
%TO.N,/CLK*%
X153525200Y-92938600D03*
%TO.P,U4,8,VBAT*%
%TO.N,/Vpila*%
X153525200Y-95478600D03*
%TD*%
D35*
%TO.P,P1,1,VBUS*%
%TO.N,+5V*%
X129576200Y-117856000D03*
D36*
%TO.P,P1,2,D-*%
%TO.N,unconnected-(P1-D--Pad2)*%
X127076200Y-117856000D03*
%TO.P,P1,3,D+*%
%TO.N,unconnected-(P1-D+-Pad3)*%
X125076200Y-117856000D03*
%TO.P,P1,4,GND*%
%TO.N,GND*%
X122576200Y-117856000D03*
%TD*%
D37*
%TO.P,S1,1*%
%TO.N,VCC*%
X159054300Y-116967000D03*
%TO.P,S1,2*%
%TO.N,/Vin*%
X169554300Y-116967000D03*
%TD*%
D38*
%TO.P,Y2,1,1*%
%TO.N,Net-(U4-X2)*%
X148031200Y-84023200D03*
%TO.P,Y2,2,2*%
%TO.N,Net-(U4-X1)*%
X149931200Y-84023200D03*
%TD*%
D39*
%TO.N,/EN*%
X140919200Y-70662800D03*
%TO.N,+3V3*%
X139877800Y-72161400D03*
X150291800Y-69392800D03*
%TO.N,/MB_2*%
X126542800Y-71145400D03*
X140106400Y-77749400D03*
%TO.N,/MB_1*%
X140106400Y-75971400D03*
X121462800Y-71170800D03*
%TO.N,VCC*%
X124841000Y-112484600D03*
X115798600Y-94894400D03*
%TO.N,/MA_2*%
X116357400Y-71196200D03*
X140106400Y-81559400D03*
%TO.N,/MA_1*%
X111302800Y-70993000D03*
X140106400Y-83337400D03*
%TO.N,/Tx*%
X175920400Y-73202800D03*
%TO.N,/Rx*%
X175971200Y-71932800D03*
%TO.N,+5V*%
X124866400Y-105664000D03*
X145585200Y-105631000D03*
%TO.N,/EN_A*%
X140106400Y-74193400D03*
%TO.N,/EN_B*%
X140106400Y-79527400D03*
%TO.N,/ID0*%
X190830200Y-74472800D03*
%TD*%
D40*
%TO.N,/EN*%
X141107700Y-70204100D02*
X141107700Y-68224400D01*
X140919200Y-70392600D02*
X141107700Y-70204100D01*
D41*
X138303000Y-67335400D02*
X138303000Y-69773800D01*
D40*
X140919200Y-70662800D02*
X140182600Y-70662800D01*
X139293600Y-69773800D02*
X138303000Y-69773800D01*
X140182600Y-70662800D02*
X139293600Y-69773800D01*
X140919200Y-70662800D02*
X155327800Y-70662800D01*
X140919200Y-70662800D02*
X140919200Y-70392600D01*
X155327800Y-70662800D02*
X155332400Y-70667400D01*
D41*
%TO.N,Net-(D1-A)*%
X169800000Y-91773200D02*
X169799000Y-91774200D01*
X173456600Y-91773200D02*
X169800000Y-91773200D01*
D42*
%TO.N,/OUT_4*%
X136017000Y-83845400D02*
X136017000Y-89001600D01*
X137820400Y-102575400D02*
X137820400Y-110378400D01*
X142646400Y-101117400D02*
X141188400Y-102575400D01*
X131216400Y-82321400D02*
X134493000Y-82321400D01*
X142646400Y-95631000D02*
X142646400Y-101117400D01*
X134493000Y-82321400D02*
X136017000Y-83845400D01*
X136017000Y-89001600D02*
X142646400Y-95631000D01*
X141188400Y-102575400D02*
X137820400Y-102575400D01*
%TO.N,/OUT_3*%
X126898400Y-102387400D02*
X126898400Y-94767400D01*
X129946400Y-91719400D02*
X129946400Y-87401400D01*
X130449400Y-102636400D02*
X130444400Y-102641400D01*
X126898400Y-94767400D02*
X129946400Y-91719400D01*
X130454400Y-110378400D02*
X130454400Y-102641400D01*
X130444400Y-102641400D02*
X127152400Y-102641400D01*
X127152400Y-102641400D02*
X126898400Y-102387400D01*
X130454400Y-102641400D02*
X130449400Y-102636400D01*
%TO.N,/OUT_1*%
X113690400Y-110378400D02*
X113685400Y-110383400D01*
X111150400Y-102641400D02*
X109372400Y-100863400D01*
X113690400Y-102641400D02*
X113690400Y-110378400D01*
X112420400Y-82321400D02*
X115976400Y-82321400D01*
X109372400Y-100863400D02*
X109372400Y-85369400D01*
X109372400Y-85369400D02*
X112420400Y-82321400D01*
X113690400Y-102641400D02*
X111150400Y-102641400D01*
%TO.N,/OUT_2*%
X122834400Y-94742000D02*
X120116600Y-92024200D01*
X121818400Y-102641400D02*
X122834400Y-101625400D01*
X117246400Y-90754200D02*
X117246400Y-87401400D01*
X119532400Y-102641400D02*
X121818400Y-102641400D01*
X120116600Y-92024200D02*
X118516400Y-92024200D01*
X118516400Y-92024200D02*
X117246400Y-90754200D01*
X119532400Y-110378400D02*
X119527400Y-110383400D01*
X119532400Y-102641400D02*
X119532400Y-110378400D01*
X122834400Y-101625400D02*
X122834400Y-94742000D01*
D41*
%TO.N,Net-(D10-A)*%
X149958600Y-65024000D02*
X146953700Y-65024000D01*
D43*
%TO.N,+3V3*%
X146405600Y-68224400D02*
X147574000Y-69392800D01*
X136829800Y-71094600D02*
X136829800Y-66490097D01*
X137896600Y-72161400D02*
X136829800Y-71094600D01*
X144028700Y-65024000D02*
X144028700Y-68209700D01*
X138295897Y-65024000D02*
X144028700Y-65024000D01*
D40*
X150291800Y-69392800D02*
X150266400Y-69367400D01*
D43*
X147574000Y-69392800D02*
X150291800Y-69392800D01*
X136829800Y-66490097D02*
X138295897Y-65024000D01*
X139877800Y-72161400D02*
X137896600Y-72161400D01*
X144032700Y-68224400D02*
X146405600Y-68224400D01*
D40*
X150296400Y-69397400D02*
X150291800Y-69392800D01*
X155332400Y-69397400D02*
X150296400Y-69397400D01*
D41*
%TO.N,/Led prueba*%
X169799000Y-85889000D02*
X169797400Y-85887400D01*
D40*
X169797400Y-88792800D02*
X169824400Y-88819800D01*
X169797400Y-85887400D02*
X169797400Y-88792800D01*
D41*
X169799000Y-88849200D02*
X169799000Y-85889000D01*
D40*
%TO.N,/SCL*%
X164160200Y-92049600D02*
X164160200Y-94742000D01*
X165987400Y-85887400D02*
X165987400Y-90222400D01*
X165987400Y-90222400D02*
X164160200Y-92049600D01*
%TO.N,/SDA*%
X166700200Y-91059000D02*
X167257400Y-90501800D01*
X166700200Y-94742000D02*
X166700200Y-91059000D01*
X167257400Y-90501800D02*
X167257400Y-85887400D01*
D43*
%TO.N,/MB_2*%
X128676400Y-78841600D02*
X128676400Y-82321400D01*
X126542800Y-76708000D02*
X128676400Y-78841600D01*
X126542800Y-71145400D02*
X126542800Y-76708000D01*
D40*
X146972500Y-74477400D02*
X155332400Y-74477400D01*
D43*
X126542800Y-71145400D02*
X126542800Y-59740800D01*
D40*
X140106400Y-77749400D02*
X143700500Y-77749400D01*
X143700500Y-77749400D02*
X146972500Y-74477400D01*
%TO.N,Net-(U1-THERMAL@39-PadGND@39)*%
X162582400Y-75847400D02*
X161182400Y-74447400D01*
X161182400Y-74447400D02*
X163982400Y-74447400D01*
X161182400Y-75847400D02*
X163982400Y-75847400D01*
X161182400Y-74447400D02*
X161182400Y-77247400D01*
X163982400Y-77247400D02*
X161182400Y-77247400D01*
X163982400Y-77247400D02*
X162582400Y-75847400D01*
X163982400Y-74447400D02*
X163982400Y-77247400D01*
X162582400Y-75847400D02*
X163982400Y-74447400D01*
X162582400Y-74447400D02*
X162582400Y-77247400D01*
X162582400Y-75847400D02*
X161182400Y-77247400D01*
%TO.N,/MB_1*%
X143408400Y-75971400D02*
X146172400Y-73207400D01*
X140106400Y-75971400D02*
X143408400Y-75971400D01*
D43*
X126136400Y-80416400D02*
X126136400Y-82321400D01*
X121462800Y-75742800D02*
X126136400Y-80416400D01*
X121462800Y-71170800D02*
X121462800Y-59740800D01*
D40*
X146172400Y-73207400D02*
X155332400Y-73207400D01*
D43*
X121462800Y-71170800D02*
X121462800Y-75742800D01*
D42*
%TO.N,GND*%
X130388400Y-98125400D02*
X130449400Y-98186400D01*
D41*
%TO.N,VCC*%
X111379000Y-92837000D02*
X113436400Y-94894400D01*
X112903000Y-84886800D02*
X111379000Y-86410800D01*
X117652800Y-84912200D02*
X112928400Y-84912200D01*
D42*
X137815400Y-114833400D02*
X137820400Y-114828400D01*
X124841000Y-113766600D02*
X123774200Y-114833400D01*
D44*
X157276800Y-123317000D02*
X142214600Y-123317000D01*
X159054300Y-116967000D02*
X159054300Y-121539500D01*
D41*
X111379000Y-86410800D02*
X111379000Y-92837000D01*
X118516400Y-84048600D02*
X117652800Y-84912200D01*
X115798600Y-94894400D02*
X115824000Y-94894400D01*
D44*
X137820400Y-118922800D02*
X137820400Y-114828400D01*
D42*
X123774200Y-114833400D02*
X113685400Y-114833400D01*
D44*
X159054300Y-121539500D02*
X157276800Y-123317000D01*
D41*
X113436400Y-94894400D02*
X115798600Y-94894400D01*
X112928400Y-84912200D02*
X112903000Y-84886800D01*
D44*
X142214600Y-123317000D02*
X137820400Y-118922800D01*
D42*
X124841000Y-112484600D02*
X124841000Y-113766600D01*
X119527400Y-114833400D02*
X137815400Y-114833400D01*
D41*
X118516400Y-82321400D02*
X118516400Y-84048600D01*
D42*
X113685400Y-114833400D02*
X119527400Y-114833400D01*
D40*
%TO.N,/MA_2*%
X155332400Y-77017400D02*
X148966400Y-77017400D01*
D41*
X116357400Y-66268600D02*
X116382800Y-66243200D01*
X116382800Y-66243200D02*
X116382800Y-59740800D01*
D40*
X144424400Y-81559400D02*
X140106400Y-81559400D01*
X148966400Y-77017400D02*
X144424400Y-81559400D01*
D41*
X116357400Y-71196200D02*
X116357400Y-66268600D01*
D40*
%TO.N,/MA_1*%
X144830800Y-83337400D02*
X140106400Y-83337400D01*
X149880800Y-78287400D02*
X144830800Y-83337400D01*
D41*
X111302800Y-70993000D02*
X111302800Y-59740800D01*
D40*
X155332400Y-78287400D02*
X149880800Y-78287400D01*
%TO.N,/Tx*%
X175915800Y-73207400D02*
X172832400Y-73207400D01*
X175920400Y-73202800D02*
X175915800Y-73207400D01*
%TO.N,/Rx*%
X175966600Y-71937400D02*
X172832400Y-71937400D01*
X175971200Y-71932800D02*
X175966600Y-71937400D01*
D43*
%TO.N,+5V*%
X124866400Y-105664000D02*
X124866400Y-105587800D01*
X124866400Y-87401400D02*
X124866400Y-105664000D01*
D41*
X145585200Y-105631000D02*
X145585200Y-95478600D01*
%TO.N,Net-(U4-X1)*%
X149895600Y-84023200D02*
X149931200Y-84058800D01*
X148082000Y-92938600D02*
X145585200Y-92938600D01*
X149931200Y-84058800D02*
X149931200Y-91089400D01*
X149931200Y-91089400D02*
X148082000Y-92938600D01*
%TO.N,Net-(U4-X2)*%
X145585200Y-90398600D02*
X147091400Y-90398600D01*
X147091400Y-90398600D02*
X148031200Y-89458800D01*
X148031200Y-89458800D02*
X148031200Y-84023200D01*
D40*
%TO.N,/RESET*%
X153525200Y-83888600D02*
X153525200Y-87858600D01*
X155332400Y-83367400D02*
X154046400Y-83367400D01*
X154046400Y-83367400D02*
X153525200Y-83888600D01*
%TO.N,/Data*%
X153538400Y-82097400D02*
X151688800Y-83947000D01*
X151688800Y-83947000D02*
X151688800Y-89662000D01*
X155332400Y-82097400D02*
X153538400Y-82097400D01*
X151688800Y-89662000D02*
X152425400Y-90398600D01*
X152425400Y-90398600D02*
X153525200Y-90398600D01*
%TO.N,/CLK*%
X155332400Y-92216000D02*
X154609800Y-92938600D01*
X155332400Y-84637400D02*
X155332400Y-92216000D01*
X154609800Y-92938600D02*
X153525200Y-92938600D01*
D43*
%TO.N,/Vpila*%
X189128400Y-110464600D02*
X189128400Y-116433600D01*
X153525200Y-101506000D02*
X157632400Y-105613200D01*
X153525200Y-95478600D02*
X153525200Y-101506000D01*
X157632400Y-105613200D02*
X184277000Y-105613200D01*
X184277000Y-105613200D02*
X189128400Y-110464600D01*
D40*
%TO.N,/Servos*%
X157988000Y-97917000D02*
X163068000Y-97917000D01*
X159637400Y-88673000D02*
X157149800Y-91160600D01*
X159637400Y-85887400D02*
X159637400Y-88673000D01*
X164109400Y-98958400D02*
X164109400Y-101904800D01*
X157149800Y-91160600D02*
X157149800Y-97078800D01*
X157149800Y-97078800D02*
X157988000Y-97917000D01*
X163068000Y-97917000D02*
X164109400Y-98958400D01*
%TO.N,/EN_A*%
X145664400Y-71937400D02*
X143408400Y-74193400D01*
X146456400Y-71937400D02*
X145664400Y-71937400D01*
X155332400Y-71937400D02*
X145664400Y-71937400D01*
X143408400Y-74193400D02*
X140106400Y-74193400D01*
%TO.N,/EN_B*%
X147975800Y-75747400D02*
X155332400Y-75747400D01*
X140106400Y-79527400D02*
X144195800Y-79527400D01*
X144195800Y-79527400D02*
X147975800Y-75747400D01*
D41*
%TO.N,/ID0*%
X190825600Y-74477400D02*
X190830200Y-74472800D01*
X172832400Y-74477400D02*
X190825600Y-74477400D01*
%TD*%
%TA.AperFunction,Conductor*%
%TO.N,GND*%
G36*
X207562639Y-54934485D02*
G01*
X207608394Y-54987289D01*
X207619600Y-55038800D01*
X207619600Y-125021831D01*
X207599915Y-125088870D01*
X207547111Y-125134625D01*
X207495631Y-125145831D01*
X107616830Y-125171168D01*
X107549786Y-125151500D01*
X107504018Y-125098708D01*
X107492800Y-125047172D01*
X107492800Y-120844763D01*
X109854987Y-120844763D01*
X109884613Y-121114013D01*
X109884615Y-121114024D01*
X109939348Y-121323379D01*
X109953128Y-121376088D01*
X110059070Y-121625390D01*
X110157897Y-121787323D01*
X110200179Y-121856605D01*
X110200186Y-121856615D01*
X110373453Y-122064819D01*
X110373459Y-122064824D01*
X110478440Y-122158887D01*
X110575198Y-122245582D01*
X110801110Y-122395044D01*
X111046376Y-122510020D01*
X111046383Y-122510022D01*
X111046385Y-122510023D01*
X111305757Y-122588057D01*
X111305764Y-122588058D01*
X111305769Y-122588060D01*
X111573761Y-122627500D01*
X111573766Y-122627500D01*
X111776836Y-122627500D01*
X111828333Y-122623730D01*
X111979356Y-122612677D01*
X112091958Y-122587593D01*
X112243746Y-122553782D01*
X112243748Y-122553781D01*
X112243753Y-122553780D01*
X112496758Y-122457014D01*
X112732977Y-122324441D01*
X112947377Y-122158888D01*
X113135386Y-121963881D01*
X113292999Y-121743579D01*
X113366987Y-121599669D01*
X113416849Y-121502690D01*
X113416851Y-121502684D01*
X113416856Y-121502675D01*
X113504318Y-121246305D01*
X113553519Y-120979933D01*
X113563412Y-120709235D01*
X113541088Y-120506346D01*
X118101902Y-120506346D01*
X118112019Y-120744528D01*
X118112019Y-120744532D01*
X118162245Y-120977580D01*
X118251135Y-121198788D01*
X118251136Y-121198790D01*
X118374592Y-121399296D01*
X118376132Y-121401796D01*
X118483976Y-121524331D01*
X118533636Y-121580755D01*
X118719120Y-121730523D01*
X118927246Y-121846790D01*
X119053151Y-121891275D01*
X119152029Y-121926211D01*
X119386990Y-121966499D01*
X119386998Y-121966499D01*
X119387000Y-121966500D01*
X119387001Y-121966500D01*
X119565702Y-121966500D01*
X119743736Y-121951347D01*
X119743739Y-121951346D01*
X119743741Y-121951346D01*
X119974449Y-121891275D01*
X120139869Y-121816500D01*
X120191680Y-121793080D01*
X120191681Y-121793078D01*
X120191686Y-121793077D01*
X120335634Y-121695784D01*
X120389193Y-121659586D01*
X120389194Y-121659584D01*
X120389203Y-121659579D01*
X120561318Y-121494621D01*
X120703079Y-121302947D01*
X120810407Y-121090074D01*
X120880216Y-120862123D01*
X120910498Y-120625654D01*
X120905430Y-120506346D01*
X131241902Y-120506346D01*
X131252019Y-120744528D01*
X131252019Y-120744532D01*
X131302245Y-120977580D01*
X131391135Y-121198788D01*
X131391136Y-121198790D01*
X131514592Y-121399296D01*
X131516132Y-121401796D01*
X131623976Y-121524331D01*
X131673636Y-121580755D01*
X131859120Y-121730523D01*
X132067246Y-121846790D01*
X132193151Y-121891275D01*
X132292029Y-121926211D01*
X132526990Y-121966499D01*
X132526998Y-121966499D01*
X132527000Y-121966500D01*
X132527001Y-121966500D01*
X132705702Y-121966500D01*
X132883736Y-121951347D01*
X132883739Y-121951346D01*
X132883741Y-121951346D01*
X133114449Y-121891275D01*
X133279869Y-121816500D01*
X133331680Y-121793080D01*
X133331681Y-121793078D01*
X133331686Y-121793077D01*
X133475634Y-121695784D01*
X133529193Y-121659586D01*
X133529194Y-121659584D01*
X133529203Y-121659579D01*
X133701318Y-121494621D01*
X133843079Y-121302947D01*
X133950407Y-121090074D01*
X134020216Y-120862123D01*
X134050498Y-120625654D01*
X134040380Y-120387468D01*
X134028151Y-120330727D01*
X133990154Y-120154419D01*
X133948727Y-120051325D01*
X133901264Y-119933210D01*
X133776269Y-119730205D01*
X133618764Y-119551245D01*
X133433280Y-119401477D01*
X133266698Y-119308418D01*
X133225155Y-119285210D01*
X133000370Y-119205788D01*
X132765409Y-119165500D01*
X132765400Y-119165500D01*
X132586703Y-119165500D01*
X132586698Y-119165500D01*
X132408663Y-119180652D01*
X132177951Y-119240724D01*
X131960719Y-119338919D01*
X131960711Y-119338924D01*
X131763206Y-119472413D01*
X131763197Y-119472421D01*
X131591081Y-119637379D01*
X131449323Y-119829050D01*
X131449320Y-119829054D01*
X131341996Y-120041920D01*
X131341993Y-120041926D01*
X131272183Y-120269878D01*
X131241902Y-120506346D01*
X120905430Y-120506346D01*
X120900380Y-120387468D01*
X120888151Y-120330727D01*
X120850154Y-120154419D01*
X120808727Y-120051325D01*
X120761264Y-119933210D01*
X120636269Y-119730205D01*
X120478764Y-119551245D01*
X120293280Y-119401477D01*
X120126698Y-119308418D01*
X120085155Y-119285210D01*
X119860370Y-119205788D01*
X119625409Y-119165500D01*
X119625400Y-119165500D01*
X119446703Y-119165500D01*
X119446698Y-119165500D01*
X119268663Y-119180652D01*
X119037951Y-119240724D01*
X118820719Y-119338919D01*
X118820711Y-119338924D01*
X118623206Y-119472413D01*
X118623197Y-119472421D01*
X118451081Y-119637379D01*
X118309323Y-119829050D01*
X118309320Y-119829054D01*
X118201996Y-120041920D01*
X118201993Y-120041926D01*
X118132183Y-120269878D01*
X118101902Y-120506346D01*
X113541088Y-120506346D01*
X113533786Y-120439982D01*
X113465272Y-120177912D01*
X113359330Y-119928610D01*
X113218218Y-119697390D01*
X113199179Y-119674512D01*
X113044946Y-119489180D01*
X113044940Y-119489175D01*
X112843202Y-119308418D01*
X112617292Y-119158957D01*
X112592039Y-119147119D01*
X112372024Y-119043980D01*
X112372019Y-119043978D01*
X112372014Y-119043976D01*
X112112642Y-118965942D01*
X112112628Y-118965939D01*
X111996991Y-118948921D01*
X111844639Y-118926500D01*
X111641569Y-118926500D01*
X111641564Y-118926500D01*
X111439044Y-118941323D01*
X111439031Y-118941325D01*
X111174653Y-119000217D01*
X111174646Y-119000220D01*
X110921639Y-119096987D01*
X110685426Y-119229557D01*
X110685424Y-119229558D01*
X110685423Y-119229559D01*
X110664987Y-119245339D01*
X110471022Y-119395112D01*
X110283022Y-119590109D01*
X110283016Y-119590116D01*
X110125402Y-119810419D01*
X110125399Y-119810424D01*
X110001550Y-120051309D01*
X110001543Y-120051327D01*
X109914084Y-120307685D01*
X109914082Y-120307695D01*
X109865200Y-120572343D01*
X109864881Y-120574068D01*
X109864880Y-120574075D01*
X109854987Y-120844763D01*
X107492800Y-120844763D01*
X107492800Y-117856002D01*
X123857061Y-117856002D01*
X123875581Y-118067695D01*
X123875583Y-118067705D01*
X123930581Y-118272962D01*
X123930583Y-118272966D01*
X123930584Y-118272970D01*
X123993109Y-118407055D01*
X124020395Y-118465570D01*
X124020397Y-118465574D01*
X124142281Y-118639642D01*
X124142286Y-118639648D01*
X124292551Y-118789913D01*
X124292557Y-118789918D01*
X124466625Y-118911802D01*
X124466627Y-118911803D01*
X124466630Y-118911805D01*
X124659230Y-119001616D01*
X124864499Y-119056618D01*
X125015713Y-119069847D01*
X125076198Y-119075139D01*
X125076200Y-119075139D01*
X125076202Y-119075139D01*
X125129248Y-119070498D01*
X125287901Y-119056618D01*
X125493170Y-119001616D01*
X125685770Y-118911805D01*
X125859847Y-118789915D01*
X125988518Y-118661243D01*
X126049842Y-118627758D01*
X126119534Y-118632742D01*
X126163881Y-118661243D01*
X126292551Y-118789913D01*
X126292557Y-118789918D01*
X126466625Y-118911802D01*
X126466627Y-118911803D01*
X126466630Y-118911805D01*
X126659230Y-119001616D01*
X126864499Y-119056618D01*
X127015714Y-119069847D01*
X127076198Y-119075139D01*
X127076200Y-119075139D01*
X127076202Y-119075139D01*
X127129248Y-119070498D01*
X127287901Y-119056618D01*
X127493170Y-119001616D01*
X127685770Y-118911805D01*
X127859847Y-118789915D01*
X128010115Y-118639647D01*
X128132005Y-118465570D01*
X128135110Y-118461136D01*
X128136807Y-118462324D01*
X128180827Y-118420311D01*
X128249427Y-118407055D01*
X128314304Y-118432991D01*
X128354860Y-118489886D01*
X128361700Y-118530498D01*
X128361700Y-118617869D01*
X128361701Y-118617876D01*
X128368108Y-118677483D01*
X128418402Y-118812328D01*
X128418406Y-118812335D01*
X128504652Y-118927544D01*
X128504655Y-118927547D01*
X128619864Y-119013793D01*
X128619871Y-119013797D01*
X128754717Y-119064091D01*
X128754716Y-119064091D01*
X128761644Y-119064835D01*
X128814327Y-119070500D01*
X130338072Y-119070499D01*
X130397683Y-119064091D01*
X130532531Y-119013796D01*
X130647746Y-118927546D01*
X130733996Y-118812331D01*
X130784291Y-118677483D01*
X130790700Y-118617873D01*
X130790699Y-117094128D01*
X130784291Y-117034517D01*
X130733996Y-116899669D01*
X130733995Y-116899668D01*
X130733993Y-116899664D01*
X130647747Y-116784455D01*
X130647744Y-116784452D01*
X130532535Y-116698206D01*
X130532528Y-116698202D01*
X130397682Y-116647908D01*
X130397683Y-116647908D01*
X130338083Y-116641501D01*
X130338081Y-116641500D01*
X130338073Y-116641500D01*
X130338064Y-116641500D01*
X128814329Y-116641500D01*
X128814323Y-116641501D01*
X128754716Y-116647908D01*
X128619871Y-116698202D01*
X128619864Y-116698206D01*
X128504655Y-116784452D01*
X128504652Y-116784455D01*
X128418406Y-116899664D01*
X128418402Y-116899671D01*
X128368108Y-117034517D01*
X128362763Y-117084241D01*
X128361701Y-117094123D01*
X128361700Y-117094135D01*
X128361700Y-117181500D01*
X128342015Y-117248539D01*
X128289211Y-117294294D01*
X128220053Y-117304238D01*
X128156497Y-117275213D01*
X128135920Y-117250298D01*
X128135110Y-117250866D01*
X128010116Y-117072354D01*
X127972278Y-117034516D01*
X127859847Y-116922085D01*
X127859843Y-116922082D01*
X127859842Y-116922081D01*
X127685774Y-116800197D01*
X127685770Y-116800195D01*
X127685766Y-116800193D01*
X127493170Y-116710384D01*
X127493166Y-116710383D01*
X127493162Y-116710381D01*
X127287905Y-116655383D01*
X127287903Y-116655382D01*
X127287901Y-116655382D01*
X127287899Y-116655381D01*
X127287895Y-116655381D01*
X127076202Y-116636861D01*
X127076198Y-116636861D01*
X126864504Y-116655381D01*
X126864494Y-116655383D01*
X126659237Y-116710381D01*
X126659228Y-116710385D01*
X126466633Y-116800193D01*
X126292554Y-116922083D01*
X126163880Y-117050757D01*
X126102557Y-117084241D01*
X126032865Y-117079257D01*
X125988518Y-117050756D01*
X125859848Y-116922086D01*
X125859842Y-116922081D01*
X125685774Y-116800197D01*
X125685770Y-116800195D01*
X125685766Y-116800193D01*
X125493170Y-116710384D01*
X125493166Y-116710383D01*
X125493162Y-116710381D01*
X125287905Y-116655383D01*
X125287903Y-116655382D01*
X125287901Y-116655382D01*
X125287899Y-116655381D01*
X125287895Y-116655381D01*
X125076202Y-116636861D01*
X125076198Y-116636861D01*
X124864504Y-116655381D01*
X124864494Y-116655383D01*
X124659237Y-116710381D01*
X124659228Y-116710385D01*
X124466633Y-116800193D01*
X124292550Y-116922086D01*
X124142286Y-117072350D01*
X124020393Y-117246433D01*
X123930585Y-117439028D01*
X123930581Y-117439037D01*
X123875583Y-117644294D01*
X123875581Y-117644304D01*
X123857061Y-117855997D01*
X123857061Y-117856002D01*
X107492800Y-117856002D01*
X107492800Y-115283401D01*
X111484900Y-115283401D01*
X111484901Y-115283419D01*
X111495400Y-115386196D01*
X111495401Y-115386199D01*
X111548928Y-115547731D01*
X111550586Y-115552734D01*
X111642688Y-115702056D01*
X111766744Y-115826112D01*
X111916066Y-115918214D01*
X112082603Y-115973399D01*
X112185391Y-115983900D01*
X113169516Y-115983899D01*
X113213087Y-115991806D01*
X113351376Y-116043707D01*
X113572850Y-116083900D01*
X113572853Y-116083900D01*
X119414853Y-116083900D01*
X123700493Y-116083900D01*
X123707431Y-116084289D01*
X123746027Y-116088638D01*
X123746029Y-116088637D01*
X123746030Y-116088638D01*
X123763786Y-116087440D01*
X123814232Y-116084039D01*
X123818388Y-116083900D01*
X136195900Y-116083900D01*
X136262939Y-116103585D01*
X136308694Y-116156389D01*
X136319900Y-116207900D01*
X136319900Y-118825781D01*
X136319424Y-118833456D01*
X136316043Y-118860579D01*
X136319900Y-118953835D01*
X136319900Y-118984864D01*
X136322462Y-119015790D01*
X136326318Y-119109033D01*
X136331926Y-119135783D01*
X136333035Y-119143390D01*
X136335291Y-119170618D01*
X136335291Y-119170619D01*
X136347979Y-119220723D01*
X136358201Y-119261088D01*
X136377351Y-119352414D01*
X136377352Y-119352416D01*
X136387282Y-119377867D01*
X136389627Y-119385187D01*
X136393752Y-119401477D01*
X136396337Y-119411681D01*
X136430331Y-119489180D01*
X136433820Y-119497135D01*
X136467744Y-119584075D01*
X136481732Y-119607550D01*
X136485252Y-119614388D01*
X136496225Y-119639404D01*
X136496227Y-119639407D01*
X136547260Y-119717520D01*
X136595034Y-119797694D01*
X136612696Y-119818547D01*
X136617287Y-119824704D01*
X136632236Y-119847585D01*
X136632237Y-119847586D01*
X136695433Y-119916235D01*
X136715500Y-119939929D01*
X136737449Y-119961878D01*
X136800657Y-120030539D01*
X136822222Y-120047324D01*
X136827987Y-120052415D01*
X141084984Y-124309412D01*
X141090073Y-124315174D01*
X141106862Y-124336744D01*
X141106864Y-124336746D01*
X141106865Y-124336747D01*
X141175521Y-124399950D01*
X141197466Y-124421894D01*
X141197474Y-124421902D01*
X141221164Y-124441966D01*
X141289815Y-124505164D01*
X141289817Y-124505165D01*
X141289818Y-124505166D01*
X141312686Y-124520106D01*
X141318850Y-124524702D01*
X141339706Y-124542366D01*
X141339713Y-124542370D01*
X141419878Y-124590139D01*
X141470912Y-124623480D01*
X141497993Y-124641173D01*
X141523012Y-124652147D01*
X141529843Y-124655663D01*
X141543257Y-124663656D01*
X141553320Y-124669653D01*
X141553330Y-124669658D01*
X141640263Y-124703579D01*
X141677747Y-124720020D01*
X141725719Y-124741063D01*
X141750508Y-124747340D01*
X141752209Y-124747771D01*
X141759532Y-124750116D01*
X141784986Y-124760049D01*
X141876302Y-124779196D01*
X141966779Y-124802108D01*
X141994015Y-124804364D01*
X142001618Y-124805471D01*
X142028363Y-124811080D01*
X142121594Y-124814936D01*
X142152533Y-124817500D01*
X142152535Y-124817500D01*
X142183574Y-124817500D01*
X142276821Y-124821357D01*
X142293514Y-124819276D01*
X142303942Y-124817977D01*
X142311618Y-124817500D01*
X157179781Y-124817500D01*
X157187452Y-124817975D01*
X157214579Y-124821357D01*
X157307835Y-124817500D01*
X157338867Y-124817500D01*
X157369790Y-124814937D01*
X157463037Y-124811081D01*
X157489782Y-124805472D01*
X157497382Y-124804364D01*
X157524621Y-124802108D01*
X157524624Y-124802107D01*
X157524626Y-124802107D01*
X157524629Y-124802106D01*
X157615088Y-124779198D01*
X157615098Y-124779196D01*
X157706414Y-124760049D01*
X157731877Y-124750112D01*
X157739174Y-124747774D01*
X157765681Y-124741063D01*
X157851135Y-124703579D01*
X157938074Y-124669656D01*
X157961561Y-124655659D01*
X157968381Y-124652149D01*
X157993407Y-124641173D01*
X158071520Y-124590139D01*
X158151694Y-124542366D01*
X158172554Y-124524697D01*
X158178694Y-124520117D01*
X158201585Y-124505164D01*
X158270235Y-124441966D01*
X158293926Y-124421902D01*
X158315878Y-124399949D01*
X158384538Y-124336744D01*
X158401330Y-124315167D01*
X158406404Y-124309422D01*
X160046726Y-122669099D01*
X160052463Y-122664034D01*
X160074044Y-122647238D01*
X160137260Y-122578566D01*
X160159202Y-122556625D01*
X160159200Y-122556628D01*
X160166238Y-122548316D01*
X160179257Y-122532945D01*
X160242464Y-122464285D01*
X160257417Y-122441394D01*
X160261997Y-122435254D01*
X160279666Y-122414394D01*
X160327436Y-122334224D01*
X160378473Y-122256107D01*
X160389454Y-122231071D01*
X160392957Y-122224264D01*
X160406956Y-122200773D01*
X160440880Y-122113832D01*
X160478363Y-122028381D01*
X160485071Y-122001885D01*
X160487410Y-121994583D01*
X160497350Y-121969114D01*
X160516502Y-121877774D01*
X160539408Y-121787321D01*
X160541664Y-121760093D01*
X160542773Y-121752482D01*
X160544639Y-121743580D01*
X160548381Y-121725737D01*
X160552237Y-121632490D01*
X160554800Y-121601567D01*
X160554800Y-121570535D01*
X160558657Y-121477279D01*
X160555275Y-121450151D01*
X160554800Y-121442481D01*
X160554800Y-121258913D01*
X160574485Y-121191874D01*
X160610310Y-121155544D01*
X160624430Y-121146188D01*
X160868037Y-120937478D01*
X161084149Y-120700414D01*
X161256237Y-120457312D01*
X161269487Y-120438594D01*
X161269493Y-120438584D01*
X161421248Y-120155983D01*
X161421249Y-120155980D01*
X161421254Y-120155971D01*
X161537135Y-119856847D01*
X161615379Y-119545749D01*
X161639319Y-119352414D01*
X161654800Y-119227397D01*
X161654800Y-119147126D01*
X166953800Y-119147126D01*
X166958751Y-119227393D01*
X166968605Y-119387175D01*
X167022318Y-119674512D01*
X167027550Y-119702503D01*
X167124798Y-120008194D01*
X167258874Y-120299617D01*
X167258874Y-120299618D01*
X167427737Y-120572343D01*
X167427751Y-120572363D01*
X167628851Y-120822271D01*
X167628854Y-120822274D01*
X167628855Y-120822275D01*
X167859152Y-121045585D01*
X168115145Y-121238903D01*
X168392955Y-121399296D01*
X168688369Y-121524334D01*
X168688382Y-121524337D01*
X168688386Y-121524339D01*
X168996902Y-121612120D01*
X168996905Y-121612120D01*
X168996910Y-121612122D01*
X169186862Y-121641608D01*
X169313892Y-121661327D01*
X169313895Y-121661327D01*
X169313900Y-121661328D01*
X169634535Y-121671206D01*
X169634535Y-121671205D01*
X169634536Y-121671206D01*
X169741148Y-121661327D01*
X169953953Y-121641608D01*
X170267313Y-121572981D01*
X170569864Y-121466366D01*
X170857021Y-121323379D01*
X171092074Y-121167628D01*
X171124426Y-121146191D01*
X171124426Y-121146190D01*
X171124430Y-121146188D01*
X171150138Y-121124163D01*
X201447387Y-121124163D01*
X201477013Y-121393413D01*
X201477015Y-121393424D01*
X201541899Y-121641607D01*
X201545528Y-121655488D01*
X201651470Y-121904790D01*
X201708453Y-121998160D01*
X201792579Y-122136005D01*
X201792586Y-122136015D01*
X201965853Y-122344219D01*
X201965859Y-122344224D01*
X202167598Y-122524982D01*
X202393510Y-122674444D01*
X202638776Y-122789420D01*
X202638783Y-122789422D01*
X202638785Y-122789423D01*
X202898157Y-122867457D01*
X202898164Y-122867458D01*
X202898169Y-122867460D01*
X203166161Y-122906900D01*
X203166166Y-122906900D01*
X203369236Y-122906900D01*
X203420733Y-122903130D01*
X203571756Y-122892077D01*
X203684358Y-122866993D01*
X203836146Y-122833182D01*
X203836148Y-122833181D01*
X203836153Y-122833180D01*
X204089158Y-122736414D01*
X204325377Y-122603841D01*
X204539777Y-122438288D01*
X204727786Y-122243281D01*
X204885399Y-122022979D01*
X204960054Y-121877774D01*
X205009249Y-121782090D01*
X205009251Y-121782084D01*
X205009256Y-121782075D01*
X205096718Y-121525705D01*
X205145919Y-121259333D01*
X205145935Y-121258913D01*
X205155812Y-120988635D01*
X205141892Y-120862123D01*
X205126186Y-120719382D01*
X205057672Y-120457312D01*
X204951730Y-120208010D01*
X204810618Y-119976790D01*
X204779940Y-119939926D01*
X204637346Y-119768580D01*
X204637340Y-119768575D01*
X204435602Y-119587818D01*
X204209692Y-119438357D01*
X204152774Y-119411675D01*
X203964424Y-119323380D01*
X203964419Y-119323378D01*
X203964414Y-119323376D01*
X203705042Y-119245342D01*
X203705028Y-119245339D01*
X203589391Y-119228321D01*
X203437039Y-119205900D01*
X203233969Y-119205900D01*
X203233964Y-119205900D01*
X203031444Y-119220723D01*
X203031431Y-119220725D01*
X202767053Y-119279617D01*
X202767046Y-119279620D01*
X202514039Y-119376387D01*
X202277826Y-119508957D01*
X202063422Y-119674512D01*
X201875422Y-119869509D01*
X201875416Y-119869516D01*
X201717802Y-120089819D01*
X201717799Y-120089824D01*
X201593950Y-120330709D01*
X201593943Y-120330727D01*
X201506484Y-120587085D01*
X201506481Y-120587099D01*
X201499360Y-120625654D01*
X201463043Y-120822275D01*
X201457281Y-120853468D01*
X201457280Y-120853475D01*
X201447387Y-121124163D01*
X171150138Y-121124163D01*
X171368037Y-120937478D01*
X171584149Y-120700414D01*
X171756237Y-120457312D01*
X171769487Y-120438594D01*
X171769493Y-120438584D01*
X171921248Y-120155983D01*
X171921249Y-120155980D01*
X171921254Y-120155971D01*
X172037135Y-119856847D01*
X172115379Y-119545749D01*
X172139319Y-119352414D01*
X172154800Y-119227397D01*
X172154800Y-114786881D01*
X172153767Y-114770136D01*
X172139994Y-114546822D01*
X172081050Y-114231497D01*
X171983802Y-113925806D01*
X171849726Y-113634382D01*
X171763675Y-113495405D01*
X171680862Y-113361656D01*
X171680848Y-113361636D01*
X171479748Y-113111728D01*
X171249446Y-112888413D01*
X170993452Y-112695095D01*
X170891761Y-112636384D01*
X170715645Y-112534704D01*
X170715641Y-112534702D01*
X170715639Y-112534701D01*
X170420237Y-112409668D01*
X170420213Y-112409660D01*
X170111697Y-112321879D01*
X170111692Y-112321878D01*
X169794707Y-112272672D01*
X169794696Y-112272671D01*
X169474063Y-112262793D01*
X169154648Y-112292391D01*
X169154642Y-112292392D01*
X168841286Y-112361018D01*
X168538733Y-112467635D01*
X168251578Y-112610621D01*
X167984173Y-112787808D01*
X167984173Y-112787809D01*
X167740568Y-112996517D01*
X167740566Y-112996519D01*
X167524456Y-113233579D01*
X167524448Y-113233589D01*
X167339112Y-113495405D01*
X167339106Y-113495415D01*
X167187351Y-113778016D01*
X167187344Y-113778034D01*
X167071467Y-114077144D01*
X167071466Y-114077148D01*
X166993220Y-114388254D01*
X166953800Y-114706602D01*
X166953800Y-114706606D01*
X166953800Y-114706607D01*
X166953800Y-119147126D01*
X161654800Y-119147126D01*
X161654800Y-114786881D01*
X161653767Y-114770136D01*
X161639994Y-114546822D01*
X161581050Y-114231497D01*
X161483802Y-113925806D01*
X161349726Y-113634382D01*
X161263675Y-113495405D01*
X161180862Y-113361656D01*
X161180848Y-113361636D01*
X160979748Y-113111728D01*
X160749446Y-112888413D01*
X160493452Y-112695095D01*
X160391761Y-112636384D01*
X160215645Y-112534704D01*
X160215641Y-112534702D01*
X160215639Y-112534701D01*
X159920237Y-112409668D01*
X159920213Y-112409660D01*
X159611697Y-112321879D01*
X159611692Y-112321878D01*
X159294707Y-112272672D01*
X159294696Y-112272671D01*
X158974063Y-112262793D01*
X158654648Y-112292391D01*
X158654642Y-112292392D01*
X158341286Y-112361018D01*
X158038733Y-112467635D01*
X157751578Y-112610621D01*
X157484173Y-112787808D01*
X157484173Y-112787809D01*
X157240568Y-112996517D01*
X157240566Y-112996519D01*
X157024456Y-113233579D01*
X157024448Y-113233589D01*
X156839112Y-113495405D01*
X156839106Y-113495415D01*
X156687351Y-113778016D01*
X156687344Y-113778034D01*
X156571467Y-114077144D01*
X156571466Y-114077148D01*
X156493220Y-114388254D01*
X156453800Y-114706602D01*
X156453800Y-114706606D01*
X156453800Y-114706607D01*
X156453800Y-119147126D01*
X156458751Y-119227393D01*
X156468605Y-119387175D01*
X156522318Y-119674512D01*
X156527550Y-119702503D01*
X156624798Y-120008194D01*
X156758874Y-120299618D01*
X156927737Y-120572343D01*
X156927751Y-120572363D01*
X157128854Y-120822274D01*
X157128856Y-120822277D01*
X157302782Y-120990926D01*
X157337208Y-121051726D01*
X157333297Y-121121486D01*
X157304143Y-121167628D01*
X156691591Y-121780181D01*
X156630268Y-121813666D01*
X156603910Y-121816500D01*
X142887490Y-121816500D01*
X142820451Y-121796815D01*
X142799809Y-121780181D01*
X139357219Y-118337591D01*
X139323734Y-118276268D01*
X139320900Y-118249910D01*
X139320900Y-116090562D01*
X139340585Y-116023523D01*
X139393389Y-115977768D01*
X139418952Y-115969307D01*
X139423188Y-115968399D01*
X139423197Y-115968399D01*
X139589734Y-115913214D01*
X139739056Y-115821112D01*
X139863112Y-115697056D01*
X139955214Y-115547734D01*
X140010399Y-115381197D01*
X140020900Y-115278409D01*
X140020899Y-114378392D01*
X140020471Y-114374207D01*
X140010399Y-114275603D01*
X140010398Y-114275600D01*
X139983193Y-114193501D01*
X139955214Y-114109066D01*
X139863112Y-113959744D01*
X139739056Y-113835688D01*
X139597842Y-113748587D01*
X139589736Y-113743587D01*
X139589731Y-113743585D01*
X139588262Y-113743098D01*
X139423197Y-113688401D01*
X139423195Y-113688400D01*
X139320416Y-113677900D01*
X139320409Y-113677900D01*
X138827772Y-113677900D01*
X138760733Y-113658215D01*
X138751610Y-113651753D01*
X138643912Y-113567928D01*
X138643908Y-113567925D01*
X138425211Y-113449572D01*
X138425202Y-113449569D01*
X138190016Y-113368829D01*
X137944735Y-113327900D01*
X137696065Y-113327900D01*
X137450783Y-113368829D01*
X137215597Y-113449569D01*
X137215588Y-113449572D01*
X137103169Y-113510411D01*
X136996891Y-113567926D01*
X136996889Y-113567927D01*
X136996838Y-113567955D01*
X136937820Y-113582900D01*
X126215500Y-113582900D01*
X126148461Y-113563215D01*
X126102706Y-113510411D01*
X126091500Y-113458900D01*
X126091500Y-112428452D01*
X126091500Y-112428445D01*
X126076377Y-112260412D01*
X126046064Y-112150576D01*
X126016496Y-112043439D01*
X126016491Y-112043426D01*
X125918832Y-111840633D01*
X125918828Y-111840625D01*
X125786526Y-111658527D01*
X125786525Y-111658525D01*
X125749886Y-111623495D01*
X125623825Y-111502968D01*
X125623823Y-111502966D01*
X125435966Y-111378963D01*
X125228995Y-111290499D01*
X125228982Y-111290495D01*
X125009542Y-111240410D01*
X125009538Y-111240409D01*
X125009537Y-111240409D01*
X125009536Y-111240408D01*
X125009531Y-111240408D01*
X124784674Y-111230310D01*
X124784673Y-111230310D01*
X124784670Y-111230310D01*
X124561613Y-111260525D01*
X124561610Y-111260525D01*
X124561609Y-111260526D01*
X124347534Y-111330083D01*
X124149321Y-111436746D01*
X124149318Y-111436748D01*
X123973336Y-111577089D01*
X123825236Y-111746603D01*
X123709787Y-111939832D01*
X123709786Y-111939834D01*
X123630692Y-112150576D01*
X123590500Y-112372050D01*
X123590500Y-113197264D01*
X123570815Y-113264303D01*
X123554181Y-113284945D01*
X123292545Y-113546581D01*
X123231222Y-113580066D01*
X123204864Y-113582900D01*
X113629245Y-113582900D01*
X113590799Y-113586360D01*
X113461213Y-113598022D01*
X113461207Y-113598023D01*
X113244230Y-113657906D01*
X113217828Y-113670621D01*
X113164028Y-113682900D01*
X112185398Y-113682900D01*
X112185380Y-113682901D01*
X112082603Y-113693400D01*
X112082600Y-113693401D01*
X111916068Y-113748585D01*
X111916063Y-113748587D01*
X111766742Y-113840689D01*
X111642689Y-113964742D01*
X111550587Y-114114063D01*
X111550585Y-114114066D01*
X111550586Y-114114066D01*
X111495401Y-114280603D01*
X111495401Y-114280604D01*
X111495400Y-114280604D01*
X111484900Y-114383383D01*
X111484900Y-115283401D01*
X107492800Y-115283401D01*
X107492800Y-100835232D01*
X108117161Y-100835232D01*
X108121759Y-100903413D01*
X108121900Y-100907586D01*
X108121900Y-100919556D01*
X108125677Y-100961524D01*
X108132303Y-101059807D01*
X108132303Y-101059812D01*
X108133372Y-101064052D01*
X108136630Y-101083224D01*
X108137023Y-101087590D01*
X108163235Y-101182565D01*
X108187303Y-101278081D01*
X108189115Y-101282070D01*
X108195740Y-101300344D01*
X108196904Y-101304562D01*
X108196907Y-101304570D01*
X108239653Y-101393335D01*
X108280393Y-101483026D01*
X108280394Y-101483029D01*
X108282883Y-101486621D01*
X108292669Y-101503426D01*
X108294566Y-101507365D01*
X108294574Y-101507379D01*
X108352478Y-101587076D01*
X108408580Y-101668055D01*
X108411673Y-101671148D01*
X108424307Y-101685939D01*
X108426878Y-101689478D01*
X108426881Y-101689481D01*
X108498079Y-101757553D01*
X110214042Y-103473516D01*
X110218679Y-103478704D01*
X110242892Y-103509066D01*
X110294367Y-103554039D01*
X110297400Y-103556874D01*
X110305867Y-103565341D01*
X110305869Y-103565343D01*
X110305878Y-103565351D01*
X110331716Y-103586922D01*
X110338219Y-103592351D01*
X110412404Y-103657165D01*
X110416078Y-103659360D01*
X110416153Y-103659405D01*
X110432022Y-103670664D01*
X110435380Y-103673467D01*
X110435383Y-103673470D01*
X110509277Y-103715398D01*
X110521082Y-103722096D01*
X110605636Y-103772615D01*
X110609726Y-103774149D01*
X110627350Y-103782395D01*
X110631149Y-103784551D01*
X110631150Y-103784551D01*
X110631155Y-103784554D01*
X110724162Y-103817098D01*
X110816376Y-103851707D01*
X110820666Y-103852485D01*
X110839494Y-103857455D01*
X110843618Y-103858898D01*
X110940939Y-103874312D01*
X110961498Y-103878043D01*
X111037851Y-103891900D01*
X111037853Y-103891900D01*
X111042222Y-103891900D01*
X111061620Y-103893426D01*
X111065941Y-103894111D01*
X111164448Y-103891900D01*
X112315900Y-103891900D01*
X112382939Y-103911585D01*
X112428694Y-103964389D01*
X112439900Y-104015900D01*
X112439900Y-109108900D01*
X112420215Y-109175939D01*
X112367411Y-109221694D01*
X112315901Y-109232900D01*
X112185399Y-109232900D01*
X112185380Y-109232901D01*
X112082603Y-109243400D01*
X112082600Y-109243401D01*
X111916068Y-109298585D01*
X111916063Y-109298587D01*
X111766742Y-109390689D01*
X111642689Y-109514742D01*
X111550587Y-109664063D01*
X111550585Y-109664066D01*
X111550586Y-109664066D01*
X111495401Y-109830603D01*
X111495401Y-109830604D01*
X111495400Y-109830604D01*
X111484900Y-109933383D01*
X111484900Y-110833401D01*
X111484901Y-110833419D01*
X111495400Y-110936196D01*
X111495401Y-110936199D01*
X111548928Y-111097731D01*
X111550586Y-111102734D01*
X111642688Y-111252056D01*
X111766744Y-111376112D01*
X111916066Y-111468214D01*
X112082603Y-111523399D01*
X112185391Y-111533900D01*
X113159148Y-111533899D01*
X113212730Y-111546764D01*
X113212787Y-111546622D01*
X113213755Y-111547010D01*
X113215445Y-111547416D01*
X113217951Y-111548693D01*
X113217957Y-111548695D01*
X113217965Y-111548699D01*
X113433549Y-111613436D01*
X113657227Y-111638638D01*
X113657228Y-111638637D01*
X113657230Y-111638638D01*
X113742847Y-111632865D01*
X113746727Y-111632689D01*
X113746730Y-111632690D01*
X113746732Y-111632689D01*
X113747212Y-111632668D01*
X113750088Y-111632376D01*
X113824757Y-111627342D01*
X113881802Y-111623497D01*
X113881804Y-111623496D01*
X113881812Y-111623496D01*
X113956574Y-111604656D01*
X113963395Y-111603340D01*
X113969787Y-111602475D01*
X113983552Y-111598001D01*
X113987518Y-111596859D01*
X114100083Y-111568496D01*
X114151809Y-111545000D01*
X114203092Y-111533899D01*
X115185402Y-111533899D01*
X115185408Y-111533899D01*
X115288197Y-111523399D01*
X115454734Y-111468214D01*
X115604056Y-111376112D01*
X115728112Y-111252056D01*
X115820214Y-111102734D01*
X115875399Y-110936197D01*
X115885900Y-110833409D01*
X115885899Y-109933392D01*
X115885387Y-109928383D01*
X115875399Y-109830603D01*
X115875398Y-109830600D01*
X115860524Y-109785713D01*
X115820214Y-109664066D01*
X115728112Y-109514744D01*
X115604056Y-109390688D01*
X115454734Y-109298586D01*
X115288197Y-109243401D01*
X115288195Y-109243400D01*
X115185416Y-109232900D01*
X115185409Y-109232900D01*
X115064900Y-109232900D01*
X114997861Y-109213215D01*
X114952106Y-109160411D01*
X114940900Y-109108900D01*
X114940900Y-103915899D01*
X114960585Y-103848860D01*
X115013389Y-103803105D01*
X115064900Y-103791899D01*
X115190402Y-103791899D01*
X115190408Y-103791899D01*
X115293197Y-103781399D01*
X115459734Y-103726214D01*
X115609056Y-103634112D01*
X115733112Y-103510056D01*
X115825214Y-103360734D01*
X115880399Y-103194197D01*
X115890900Y-103091409D01*
X115890899Y-102191392D01*
X115890234Y-102184886D01*
X115880399Y-102088603D01*
X115880398Y-102088600D01*
X115859940Y-102026863D01*
X115825214Y-101922066D01*
X115733112Y-101772744D01*
X115609056Y-101648688D01*
X115516288Y-101591468D01*
X115459736Y-101556587D01*
X115459731Y-101556585D01*
X115444642Y-101551585D01*
X115293197Y-101501401D01*
X115293195Y-101501400D01*
X115190416Y-101490900D01*
X115190409Y-101490900D01*
X114206284Y-101490900D01*
X114162719Y-101482995D01*
X114160091Y-101482009D01*
X114157384Y-101480993D01*
X114154807Y-101479959D01*
X114121922Y-101465904D01*
X114078388Y-101447297D01*
X114078383Y-101447296D01*
X114078381Y-101447295D01*
X114069438Y-101445254D01*
X114054925Y-101441941D01*
X114046942Y-101439543D01*
X114041127Y-101437361D01*
X114024423Y-101431092D01*
X113948549Y-101417323D01*
X113942664Y-101416255D01*
X113939951Y-101415699D01*
X113924426Y-101412156D01*
X113858945Y-101397210D01*
X113858939Y-101397209D01*
X113858937Y-101397209D01*
X113834904Y-101396129D01*
X113826611Y-101395194D01*
X113802949Y-101390900D01*
X113802947Y-101390900D01*
X113719848Y-101390900D01*
X113717091Y-101390838D01*
X113644784Y-101387591D01*
X113634072Y-101387110D01*
X113634069Y-101387110D01*
X113610236Y-101390338D01*
X113601905Y-101390900D01*
X111719736Y-101390900D01*
X111652697Y-101371215D01*
X111632055Y-101354581D01*
X110659219Y-100381745D01*
X110625734Y-100320422D01*
X110622900Y-100294064D01*
X110622900Y-93618405D01*
X110642585Y-93551366D01*
X110695389Y-93505611D01*
X110764547Y-93495667D01*
X110828103Y-93524692D01*
X110834566Y-93530710D01*
X112790392Y-95486536D01*
X112793796Y-95490229D01*
X112830762Y-95533750D01*
X112830763Y-95533751D01*
X112830765Y-95533752D01*
X112830769Y-95533757D01*
X112874879Y-95567288D01*
X112897137Y-95584208D01*
X112962099Y-95636427D01*
X112962101Y-95636429D01*
X112962272Y-95636514D01*
X112982214Y-95648883D01*
X112982371Y-95649002D01*
X113058040Y-95684010D01*
X113132707Y-95721041D01*
X113132881Y-95721084D01*
X113155026Y-95728880D01*
X113155203Y-95728962D01*
X113155206Y-95728962D01*
X113155207Y-95728963D01*
X113155206Y-95728963D01*
X113236628Y-95746885D01*
X113252737Y-95750890D01*
X113317511Y-95767000D01*
X113317684Y-95767004D01*
X113341002Y-95769860D01*
X113341184Y-95769900D01*
X113341187Y-95769900D01*
X113424560Y-95769900D01*
X113507873Y-95772157D01*
X113508055Y-95772121D01*
X113531423Y-95769900D01*
X115573306Y-95769900D01*
X115599086Y-95772609D01*
X115703954Y-95794900D01*
X115703955Y-95794900D01*
X115893244Y-95794900D01*
X115893246Y-95794900D01*
X116078403Y-95755544D01*
X116251330Y-95678551D01*
X116404471Y-95567288D01*
X116531133Y-95426616D01*
X116588645Y-95327000D01*
X116590994Y-95323252D01*
X116602075Y-95306910D01*
X116602826Y-95305024D01*
X116610629Y-95288923D01*
X116625779Y-95262684D01*
X116652050Y-95181826D01*
X116653407Y-95178075D01*
X116672562Y-95130001D01*
X116674776Y-95116494D01*
X116679212Y-95098231D01*
X116684274Y-95082656D01*
X116691147Y-95017254D01*
X116691616Y-95013770D01*
X116703370Y-94942078D01*
X116702433Y-94924806D01*
X116702930Y-94905142D01*
X116704060Y-94894400D01*
X116697455Y-94831562D01*
X116697211Y-94828488D01*
X116693061Y-94751925D01*
X116689426Y-94738832D01*
X116685585Y-94718617D01*
X116684274Y-94706147D01*
X116684274Y-94706144D01*
X116657299Y-94623125D01*
X116642114Y-94568433D01*
X116640484Y-94565358D01*
X116632105Y-94545586D01*
X116625779Y-94526117D01*
X116625777Y-94526113D01*
X116619969Y-94516054D01*
X116570172Y-94429802D01*
X116531134Y-94362185D01*
X116404470Y-94221511D01*
X116251334Y-94110251D01*
X116251329Y-94110248D01*
X116078407Y-94033257D01*
X116078402Y-94033255D01*
X115918251Y-93999215D01*
X115893246Y-93993900D01*
X115703954Y-93993900D01*
X115599087Y-94016190D01*
X115573306Y-94018900D01*
X113850406Y-94018900D01*
X113783367Y-93999215D01*
X113762725Y-93982581D01*
X112290819Y-92510675D01*
X112257334Y-92449352D01*
X112254500Y-92422994D01*
X112254500Y-86824804D01*
X112274185Y-86757765D01*
X112290814Y-86737128D01*
X113203924Y-85824019D01*
X113265247Y-85790534D01*
X113291605Y-85787700D01*
X116911530Y-85787700D01*
X116978569Y-85807385D01*
X117024324Y-85860189D01*
X117034268Y-85929347D01*
X117005243Y-85992903D01*
X116946465Y-86030677D01*
X116931939Y-86034009D01*
X116901416Y-86039102D01*
X116681904Y-86114461D01*
X116681895Y-86114464D01*
X116477771Y-86224931D01*
X116477765Y-86224935D01*
X116294622Y-86367481D01*
X116294619Y-86367484D01*
X116137416Y-86538252D01*
X116010475Y-86732551D01*
X115917242Y-86945099D01*
X115860266Y-87170091D01*
X115860264Y-87170102D01*
X115841100Y-87401393D01*
X115841100Y-87401406D01*
X115860264Y-87632697D01*
X115860266Y-87632708D01*
X115915771Y-87851887D01*
X115917243Y-87857700D01*
X115985456Y-88013210D01*
X115995900Y-88063019D01*
X115995900Y-90680493D01*
X115995510Y-90687431D01*
X115993192Y-90708004D01*
X115991162Y-90726023D01*
X115991161Y-90726031D01*
X115995759Y-90794213D01*
X115995900Y-90798386D01*
X115995900Y-90810356D01*
X115999677Y-90852324D01*
X116006303Y-90950607D01*
X116006303Y-90950612D01*
X116007372Y-90954852D01*
X116010630Y-90974024D01*
X116011023Y-90978390D01*
X116037235Y-91073365D01*
X116061303Y-91168881D01*
X116063115Y-91172870D01*
X116069740Y-91191144D01*
X116070904Y-91195362D01*
X116070907Y-91195370D01*
X116113653Y-91284135D01*
X116154393Y-91373826D01*
X116154394Y-91373829D01*
X116156883Y-91377421D01*
X116166669Y-91394226D01*
X116168566Y-91398165D01*
X116168574Y-91398179D01*
X116226478Y-91477876D01*
X116282580Y-91558855D01*
X116285673Y-91561948D01*
X116298307Y-91576739D01*
X116300878Y-91580278D01*
X116300881Y-91580281D01*
X116372079Y-91648353D01*
X117580042Y-92856316D01*
X117584679Y-92861504D01*
X117608892Y-92891866D01*
X117660367Y-92936839D01*
X117663400Y-92939674D01*
X117671870Y-92948144D01*
X117704214Y-92975147D01*
X117778404Y-93039965D01*
X117782150Y-93042203D01*
X117798024Y-93053465D01*
X117801381Y-93056268D01*
X117887059Y-93104883D01*
X117971636Y-93155415D01*
X117975727Y-93156950D01*
X117993355Y-93165196D01*
X117997155Y-93167353D01*
X118090146Y-93199892D01*
X118182376Y-93234507D01*
X118184965Y-93234976D01*
X118186674Y-93235287D01*
X118205489Y-93240253D01*
X118209617Y-93241698D01*
X118306926Y-93257110D01*
X118306927Y-93257110D01*
X118403850Y-93274700D01*
X118403853Y-93274700D01*
X118408228Y-93274700D01*
X118427631Y-93276228D01*
X118429338Y-93276497D01*
X118431940Y-93276910D01*
X118530402Y-93274700D01*
X119547264Y-93274700D01*
X119614303Y-93294385D01*
X119634945Y-93311019D01*
X121547581Y-95223655D01*
X121581066Y-95284978D01*
X121583900Y-95311336D01*
X121583899Y-101056064D01*
X121564214Y-101123103D01*
X121547580Y-101143745D01*
X121336745Y-101354581D01*
X121275422Y-101388066D01*
X121249064Y-101390900D01*
X119561848Y-101390900D01*
X119559091Y-101390838D01*
X119486784Y-101387591D01*
X119476072Y-101387110D01*
X119476071Y-101387110D01*
X119476070Y-101387110D01*
X119393731Y-101398263D01*
X119390967Y-101398574D01*
X119308214Y-101406022D01*
X119285023Y-101412421D01*
X119276848Y-101414095D01*
X119253019Y-101417323D01*
X119253004Y-101417327D01*
X119173974Y-101443005D01*
X119171310Y-101443805D01*
X119091238Y-101465904D01*
X119091223Y-101465909D01*
X119069557Y-101476343D01*
X119061809Y-101479450D01*
X119045249Y-101484831D01*
X119006931Y-101490900D01*
X118032398Y-101490900D01*
X118032380Y-101490901D01*
X117929603Y-101501400D01*
X117929600Y-101501401D01*
X117763068Y-101556585D01*
X117763063Y-101556587D01*
X117613742Y-101648689D01*
X117489689Y-101772742D01*
X117397587Y-101922063D01*
X117397585Y-101922068D01*
X117384376Y-101961930D01*
X117342401Y-102088603D01*
X117342401Y-102088604D01*
X117342400Y-102088604D01*
X117331900Y-102191383D01*
X117331900Y-103091401D01*
X117331901Y-103091419D01*
X117342400Y-103194196D01*
X117342401Y-103194199D01*
X117375716Y-103294736D01*
X117397586Y-103360734D01*
X117489688Y-103510056D01*
X117613744Y-103634112D01*
X117763066Y-103726214D01*
X117929603Y-103781399D01*
X118032391Y-103791900D01*
X118157900Y-103791899D01*
X118224939Y-103811583D01*
X118270694Y-103864387D01*
X118281900Y-103915899D01*
X118281900Y-109108900D01*
X118262215Y-109175939D01*
X118209411Y-109221694D01*
X118157901Y-109232900D01*
X118027399Y-109232900D01*
X118027380Y-109232901D01*
X117924603Y-109243400D01*
X117924600Y-109243401D01*
X117758068Y-109298585D01*
X117758063Y-109298587D01*
X117608742Y-109390689D01*
X117484689Y-109514742D01*
X117392587Y-109664063D01*
X117392585Y-109664066D01*
X117392586Y-109664066D01*
X117337401Y-109830603D01*
X117337401Y-109830604D01*
X117337400Y-109830604D01*
X117326900Y-109933383D01*
X117326900Y-110833401D01*
X117326901Y-110833419D01*
X117337400Y-110936196D01*
X117337401Y-110936199D01*
X117390928Y-111097731D01*
X117392586Y-111102734D01*
X117484688Y-111252056D01*
X117608744Y-111376112D01*
X117758066Y-111468214D01*
X117924603Y-111523399D01*
X118027391Y-111533900D01*
X119001148Y-111533899D01*
X119054730Y-111546764D01*
X119054787Y-111546622D01*
X119055755Y-111547010D01*
X119057445Y-111547416D01*
X119059951Y-111548693D01*
X119059957Y-111548695D01*
X119059965Y-111548699D01*
X119275549Y-111613436D01*
X119499227Y-111638638D01*
X119499228Y-111638637D01*
X119499230Y-111638638D01*
X119584847Y-111632865D01*
X119588727Y-111632689D01*
X119588730Y-111632690D01*
X119588732Y-111632689D01*
X119589212Y-111632668D01*
X119592088Y-111632376D01*
X119666757Y-111627342D01*
X119723802Y-111623497D01*
X119723804Y-111623496D01*
X119723812Y-111623496D01*
X119798574Y-111604656D01*
X119805395Y-111603340D01*
X119811787Y-111602475D01*
X119825552Y-111598001D01*
X119829518Y-111596859D01*
X119942083Y-111568496D01*
X119993809Y-111545000D01*
X120045092Y-111533899D01*
X121027402Y-111533899D01*
X121027408Y-111533899D01*
X121130197Y-111523399D01*
X121296734Y-111468214D01*
X121446056Y-111376112D01*
X121570112Y-111252056D01*
X121662214Y-111102734D01*
X121717399Y-110936197D01*
X121727900Y-110833409D01*
X121727899Y-109933392D01*
X121727387Y-109928383D01*
X121717399Y-109830603D01*
X121717398Y-109830600D01*
X121702524Y-109785713D01*
X121662214Y-109664066D01*
X121570112Y-109514744D01*
X121446056Y-109390688D01*
X121296734Y-109298586D01*
X121130197Y-109243401D01*
X121130195Y-109243400D01*
X121027416Y-109232900D01*
X121027409Y-109232900D01*
X120906900Y-109232900D01*
X120839861Y-109213215D01*
X120794106Y-109160411D01*
X120782900Y-109108900D01*
X120782900Y-104015900D01*
X120802585Y-103948861D01*
X120855389Y-103903106D01*
X120906900Y-103891900D01*
X121744693Y-103891900D01*
X121751631Y-103892289D01*
X121790227Y-103896638D01*
X121790229Y-103896637D01*
X121790230Y-103896638D01*
X121807986Y-103895440D01*
X121858432Y-103892039D01*
X121862588Y-103891900D01*
X121874547Y-103891900D01*
X121874555Y-103891900D01*
X121916523Y-103888122D01*
X122014812Y-103881496D01*
X122019046Y-103880428D01*
X122038241Y-103877167D01*
X122042588Y-103876777D01*
X122137565Y-103850564D01*
X122233083Y-103826496D01*
X122237055Y-103824691D01*
X122255362Y-103818054D01*
X122259570Y-103816893D01*
X122348335Y-103774146D01*
X122438026Y-103733407D01*
X122441620Y-103730916D01*
X122458435Y-103721124D01*
X122462373Y-103719229D01*
X122542076Y-103661321D01*
X122623054Y-103605220D01*
X122626143Y-103602130D01*
X122640945Y-103589488D01*
X122644478Y-103586922D01*
X122712553Y-103515720D01*
X123654219Y-102574053D01*
X123715542Y-102540569D01*
X123785234Y-102545553D01*
X123841167Y-102587425D01*
X123865584Y-102652889D01*
X123865900Y-102661735D01*
X123865899Y-105714743D01*
X123881325Y-105866439D01*
X123942237Y-106060579D01*
X123942244Y-106060594D01*
X124040989Y-106238499D01*
X124040992Y-106238504D01*
X124173532Y-106392893D01*
X124173534Y-106392895D01*
X124334437Y-106517445D01*
X124334438Y-106517445D01*
X124334442Y-106517448D01*
X124517129Y-106607060D01*
X124714115Y-106658063D01*
X124917336Y-106668369D01*
X125118471Y-106637556D01*
X125309287Y-106566886D01*
X125481971Y-106459252D01*
X125629453Y-106319059D01*
X125745695Y-106152049D01*
X125825940Y-105965058D01*
X125866900Y-105765741D01*
X125866899Y-103423735D01*
X125886585Y-103356696D01*
X125939389Y-103310941D01*
X126008547Y-103300997D01*
X126072103Y-103330022D01*
X126078553Y-103336027D01*
X126216051Y-103473525D01*
X126220679Y-103478704D01*
X126244892Y-103509066D01*
X126296367Y-103554039D01*
X126299400Y-103556874D01*
X126307870Y-103565344D01*
X126333712Y-103586919D01*
X126340214Y-103592347D01*
X126414404Y-103657165D01*
X126418150Y-103659403D01*
X126434022Y-103670664D01*
X126437381Y-103673468D01*
X126523059Y-103722083D01*
X126607636Y-103772615D01*
X126611727Y-103774150D01*
X126629355Y-103782396D01*
X126633155Y-103784553D01*
X126721582Y-103815495D01*
X126726146Y-103817092D01*
X126815330Y-103850564D01*
X126818376Y-103851707D01*
X126820965Y-103852176D01*
X126822674Y-103852487D01*
X126841489Y-103857453D01*
X126845617Y-103858898D01*
X126942926Y-103874310D01*
X126942927Y-103874310D01*
X127039850Y-103891900D01*
X127039853Y-103891900D01*
X127044228Y-103891900D01*
X127063631Y-103893428D01*
X127065338Y-103893697D01*
X127067940Y-103894110D01*
X127166402Y-103891900D01*
X129079900Y-103891900D01*
X129146939Y-103911585D01*
X129192694Y-103964389D01*
X129203900Y-104015900D01*
X129203900Y-109103900D01*
X129184215Y-109170939D01*
X129131411Y-109216694D01*
X129079901Y-109227900D01*
X128954399Y-109227900D01*
X128954380Y-109227901D01*
X128851603Y-109238400D01*
X128851600Y-109238401D01*
X128685068Y-109293585D01*
X128685063Y-109293587D01*
X128535742Y-109385689D01*
X128411689Y-109509742D01*
X128319587Y-109659063D01*
X128319585Y-109659066D01*
X128319586Y-109659066D01*
X128264401Y-109825603D01*
X128264401Y-109825604D01*
X128264400Y-109825604D01*
X128253900Y-109928383D01*
X128253900Y-110828401D01*
X128253901Y-110828419D01*
X128264400Y-110931196D01*
X128264401Y-110931199D01*
X128309222Y-111066459D01*
X128319586Y-111097734D01*
X128411688Y-111247056D01*
X128535744Y-111371112D01*
X128685066Y-111463214D01*
X128851603Y-111518399D01*
X128954391Y-111528900D01*
X129939007Y-111528899D01*
X129987743Y-111538878D01*
X130026459Y-111555426D01*
X130066412Y-111572503D01*
X130285863Y-111622591D01*
X130510730Y-111632690D01*
X130733787Y-111602475D01*
X130862869Y-111560533D01*
X130941553Y-111534968D01*
X130979871Y-111528899D01*
X131954402Y-111528899D01*
X131954408Y-111528899D01*
X132057197Y-111518399D01*
X132223734Y-111463214D01*
X132373056Y-111371112D01*
X132497112Y-111247056D01*
X132589214Y-111097734D01*
X132644399Y-110931197D01*
X132654900Y-110828409D01*
X132654899Y-109928392D01*
X132648019Y-109861045D01*
X132644399Y-109825603D01*
X132644398Y-109825600D01*
X132630035Y-109782255D01*
X132589214Y-109659066D01*
X132497112Y-109509744D01*
X132373056Y-109385688D01*
X132231842Y-109298587D01*
X132223736Y-109293587D01*
X132223731Y-109293585D01*
X132222262Y-109293098D01*
X132057197Y-109238401D01*
X132057195Y-109238400D01*
X131954416Y-109227900D01*
X131954409Y-109227900D01*
X131828900Y-109227900D01*
X131761861Y-109208215D01*
X131716106Y-109155411D01*
X131704900Y-109103900D01*
X131704900Y-103910899D01*
X131724585Y-103843860D01*
X131777389Y-103798105D01*
X131828900Y-103786899D01*
X131949402Y-103786899D01*
X131949408Y-103786899D01*
X132052197Y-103776399D01*
X132218734Y-103721214D01*
X132368056Y-103629112D01*
X132492112Y-103505056D01*
X132584214Y-103355734D01*
X132639399Y-103189197D01*
X132649900Y-103086409D01*
X132649899Y-102186392D01*
X132639399Y-102083603D01*
X132584214Y-101917066D01*
X132492112Y-101767744D01*
X132368056Y-101643688D01*
X132226842Y-101556587D01*
X132218736Y-101551587D01*
X132218731Y-101551585D01*
X132194794Y-101543653D01*
X132052197Y-101496401D01*
X132052195Y-101496400D01*
X131949416Y-101485900D01*
X131949409Y-101485900D01*
X130975647Y-101485900D01*
X130922064Y-101473035D01*
X130922008Y-101473177D01*
X130921041Y-101472789D01*
X130919349Y-101472383D01*
X130916837Y-101471103D01*
X130916833Y-101471101D01*
X130857124Y-101453170D01*
X130850588Y-101450801D01*
X130842388Y-101447297D01*
X130831236Y-101444751D01*
X130824553Y-101442825D01*
X130756183Y-101418902D01*
X130732425Y-101415138D01*
X130724289Y-101413281D01*
X130708378Y-101408504D01*
X130701251Y-101406364D01*
X130701249Y-101406363D01*
X130701247Y-101406363D01*
X130652503Y-101400871D01*
X130629257Y-101398252D01*
X130623814Y-101397327D01*
X130622939Y-101397209D01*
X130622176Y-101397174D01*
X130621221Y-101397131D01*
X130614305Y-101396430D01*
X130545979Y-101385609D01*
X130533860Y-101383690D01*
X130533859Y-101383690D01*
X130533853Y-101383689D01*
X130509814Y-101384228D01*
X130501477Y-101383854D01*
X130477575Y-101381162D01*
X130477567Y-101381161D01*
X130400882Y-101386332D01*
X130394681Y-101386750D01*
X130391908Y-101386875D01*
X130308814Y-101388740D01*
X130303287Y-101389363D01*
X130303259Y-101389121D01*
X130285707Y-101390900D01*
X128272900Y-101390900D01*
X128205861Y-101371215D01*
X128160106Y-101318411D01*
X128148900Y-101266900D01*
X128148900Y-98402638D01*
X128148900Y-95336731D01*
X128168584Y-95269696D01*
X128185209Y-95249064D01*
X130778527Y-92655745D01*
X130783687Y-92651133D01*
X130814066Y-92626908D01*
X130859045Y-92575423D01*
X130861862Y-92572410D01*
X130870345Y-92563929D01*
X130897350Y-92531581D01*
X130962165Y-92457396D01*
X130964406Y-92453643D01*
X130975674Y-92437764D01*
X130978468Y-92434419D01*
X131027083Y-92348740D01*
X131077615Y-92264164D01*
X131079147Y-92260079D01*
X131087403Y-92242433D01*
X131089553Y-92238645D01*
X131122090Y-92145659D01*
X131156707Y-92053424D01*
X131157485Y-92049134D01*
X131162455Y-92030304D01*
X131163898Y-92026182D01*
X131179309Y-91928876D01*
X131196900Y-91831947D01*
X131196899Y-91827577D01*
X131198427Y-91808168D01*
X131199110Y-91803860D01*
X131196900Y-91705378D01*
X131196900Y-88063019D01*
X131207343Y-88013210D01*
X131275557Y-87857700D01*
X131332534Y-87632705D01*
X131351700Y-87401400D01*
X131351700Y-87401393D01*
X131332535Y-87170102D01*
X131332533Y-87170091D01*
X131275557Y-86945099D01*
X131182324Y-86732551D01*
X131055383Y-86538252D01*
X131055380Y-86538249D01*
X131055379Y-86538247D01*
X130898184Y-86367487D01*
X130898179Y-86367483D01*
X130898177Y-86367481D01*
X130715034Y-86224935D01*
X130715028Y-86224931D01*
X130510904Y-86114464D01*
X130510895Y-86114461D01*
X130291384Y-86039102D01*
X130119682Y-86010450D01*
X130062449Y-86000900D01*
X129830351Y-86000900D01*
X129784564Y-86008540D01*
X129601415Y-86039102D01*
X129381904Y-86114461D01*
X129381895Y-86114464D01*
X129177771Y-86224931D01*
X129177765Y-86224935D01*
X128994622Y-86367481D01*
X128994619Y-86367484D01*
X128837416Y-86538252D01*
X128780209Y-86625816D01*
X128727062Y-86671173D01*
X128657831Y-86680597D01*
X128594495Y-86651095D01*
X128572591Y-86625816D01*
X128515383Y-86538252D01*
X128515380Y-86538249D01*
X128515379Y-86538247D01*
X128358184Y-86367487D01*
X128358179Y-86367483D01*
X128358177Y-86367481D01*
X128175034Y-86224935D01*
X128175028Y-86224931D01*
X127970904Y-86114464D01*
X127970895Y-86114461D01*
X127751384Y-86039102D01*
X127579681Y-86010450D01*
X127522449Y-86000900D01*
X127290351Y-86000900D01*
X127244564Y-86008540D01*
X127061415Y-86039102D01*
X126841904Y-86114461D01*
X126841895Y-86114464D01*
X126637771Y-86224931D01*
X126637765Y-86224935D01*
X126454622Y-86367481D01*
X126454619Y-86367484D01*
X126297415Y-86538254D01*
X126240207Y-86625817D01*
X126187060Y-86671174D01*
X126117829Y-86680597D01*
X126054494Y-86651094D01*
X126032591Y-86625817D01*
X125975384Y-86538254D01*
X125975383Y-86538252D01*
X125975380Y-86538249D01*
X125975379Y-86538247D01*
X125818184Y-86367487D01*
X125818179Y-86367483D01*
X125818177Y-86367481D01*
X125635034Y-86224935D01*
X125635028Y-86224931D01*
X125430904Y-86114464D01*
X125430895Y-86114461D01*
X125211384Y-86039102D01*
X125039681Y-86010450D01*
X124982449Y-86000900D01*
X124750351Y-86000900D01*
X124704564Y-86008540D01*
X124521415Y-86039102D01*
X124301904Y-86114461D01*
X124301895Y-86114464D01*
X124097771Y-86224931D01*
X124097765Y-86224935D01*
X123914622Y-86367481D01*
X123914619Y-86367484D01*
X123757416Y-86538252D01*
X123700209Y-86625816D01*
X123647062Y-86671173D01*
X123577831Y-86680597D01*
X123514495Y-86651095D01*
X123492591Y-86625816D01*
X123435383Y-86538252D01*
X123435380Y-86538249D01*
X123435379Y-86538247D01*
X123278184Y-86367487D01*
X123278179Y-86367483D01*
X123278177Y-86367481D01*
X123095034Y-86224935D01*
X123095028Y-86224931D01*
X122890904Y-86114464D01*
X122890895Y-86114461D01*
X122671384Y-86039102D01*
X122499681Y-86010450D01*
X122442449Y-86000900D01*
X122210351Y-86000900D01*
X122164564Y-86008540D01*
X121981415Y-86039102D01*
X121761904Y-86114461D01*
X121761895Y-86114464D01*
X121557771Y-86224931D01*
X121557765Y-86224935D01*
X121374622Y-86367481D01*
X121374619Y-86367484D01*
X121217416Y-86538252D01*
X121160209Y-86625816D01*
X121107062Y-86671173D01*
X121037831Y-86680597D01*
X120974495Y-86651095D01*
X120952591Y-86625816D01*
X120895383Y-86538252D01*
X120895380Y-86538249D01*
X120895379Y-86538247D01*
X120738184Y-86367487D01*
X120738179Y-86367483D01*
X120738177Y-86367481D01*
X120555034Y-86224935D01*
X120555028Y-86224931D01*
X120350904Y-86114464D01*
X120350895Y-86114461D01*
X120131384Y-86039102D01*
X119959682Y-86010450D01*
X119902449Y-86000900D01*
X119670351Y-86000900D01*
X119624564Y-86008540D01*
X119441415Y-86039102D01*
X119221904Y-86114461D01*
X119221895Y-86114464D01*
X119017771Y-86224931D01*
X119017765Y-86224935D01*
X118834622Y-86367481D01*
X118834619Y-86367484D01*
X118677415Y-86538254D01*
X118620207Y-86625817D01*
X118567060Y-86671174D01*
X118497829Y-86680597D01*
X118434494Y-86651094D01*
X118412591Y-86625817D01*
X118355384Y-86538254D01*
X118355383Y-86538252D01*
X118355380Y-86538249D01*
X118355379Y-86538247D01*
X118198184Y-86367487D01*
X118198179Y-86367483D01*
X118198177Y-86367481D01*
X118015034Y-86224935D01*
X118015028Y-86224931D01*
X117810904Y-86114464D01*
X117810895Y-86114461D01*
X117591383Y-86039102D01*
X117560861Y-86034009D01*
X117497975Y-86003559D01*
X117461536Y-85943944D01*
X117463111Y-85874092D01*
X117502200Y-85816180D01*
X117566394Y-85788596D01*
X117581270Y-85787700D01*
X117614698Y-85787700D01*
X117619732Y-85787905D01*
X117676644Y-85792539D01*
X117676645Y-85792538D01*
X117676648Y-85792539D01*
X117759241Y-85781285D01*
X117842116Y-85772273D01*
X117842281Y-85772217D01*
X117865157Y-85766855D01*
X117865337Y-85766831D01*
X117943593Y-85738080D01*
X118022580Y-85711467D01*
X118022727Y-85711378D01*
X118043916Y-85701224D01*
X118044088Y-85701161D01*
X118114336Y-85656259D01*
X118185754Y-85613289D01*
X118185883Y-85613166D01*
X118204397Y-85598694D01*
X118204407Y-85598687D01*
X118204544Y-85598600D01*
X118234019Y-85569123D01*
X118263496Y-85539648D01*
X118294570Y-85510211D01*
X118324007Y-85482329D01*
X118324105Y-85482183D01*
X118339064Y-85464078D01*
X119108542Y-84694600D01*
X119112210Y-84691218D01*
X119155757Y-84654231D01*
X119206208Y-84587862D01*
X119258430Y-84522897D01*
X119258509Y-84522738D01*
X119270889Y-84502777D01*
X119271002Y-84502629D01*
X119281344Y-84480276D01*
X119306010Y-84426959D01*
X119312072Y-84414736D01*
X119343041Y-84352293D01*
X119343085Y-84352114D01*
X119350884Y-84329963D01*
X119350962Y-84329797D01*
X119368885Y-84248370D01*
X119389000Y-84167489D01*
X119389004Y-84167315D01*
X119391861Y-84143991D01*
X119391900Y-84143816D01*
X119391900Y-84060440D01*
X119394157Y-83977127D01*
X119394120Y-83976934D01*
X119391900Y-83953575D01*
X119391900Y-83721900D01*
X119391900Y-83475302D01*
X119411583Y-83408267D01*
X119439739Y-83377452D01*
X119454791Y-83365736D01*
X119468177Y-83355319D01*
X119468177Y-83355317D01*
X119468184Y-83355313D01*
X119625379Y-83184553D01*
X119682591Y-83096982D01*
X119735737Y-83051626D01*
X119804968Y-83042202D01*
X119868304Y-83071704D01*
X119890207Y-83096981D01*
X119901779Y-83114692D01*
X119947416Y-83184547D01*
X119947418Y-83184549D01*
X119947421Y-83184553D01*
X120104616Y-83355313D01*
X120104619Y-83355315D01*
X120104622Y-83355318D01*
X120287765Y-83497864D01*
X120287771Y-83497868D01*
X120287774Y-83497870D01*
X120491897Y-83608336D01*
X120568381Y-83634593D01*
X120711415Y-83683697D01*
X120711417Y-83683697D01*
X120711419Y-83683698D01*
X120940351Y-83721900D01*
X120940352Y-83721900D01*
X121172448Y-83721900D01*
X121172449Y-83721900D01*
X121401381Y-83683698D01*
X121620903Y-83608336D01*
X121825026Y-83497870D01*
X121854017Y-83475306D01*
X121906881Y-83434160D01*
X122008184Y-83355313D01*
X122165379Y-83184553D01*
X122292324Y-82990249D01*
X122385557Y-82777700D01*
X122442534Y-82552705D01*
X122442710Y-82550580D01*
X122461700Y-82321406D01*
X122461700Y-82321393D01*
X122442535Y-82090102D01*
X122442533Y-82090091D01*
X122385557Y-81865099D01*
X122292324Y-81652551D01*
X122165383Y-81458252D01*
X122165380Y-81458249D01*
X122165379Y-81458247D01*
X122008184Y-81287487D01*
X122008179Y-81287483D01*
X122008177Y-81287481D01*
X121825034Y-81144935D01*
X121825028Y-81144931D01*
X121620904Y-81034464D01*
X121620895Y-81034461D01*
X121401384Y-80959102D01*
X121229682Y-80930450D01*
X121172449Y-80920900D01*
X120940351Y-80920900D01*
X120894564Y-80928540D01*
X120711415Y-80959102D01*
X120491904Y-81034461D01*
X120491895Y-81034464D01*
X120287771Y-81144931D01*
X120287765Y-81144935D01*
X120104622Y-81287481D01*
X120104619Y-81287484D01*
X120104616Y-81287486D01*
X120104616Y-81287487D01*
X120060239Y-81335694D01*
X119947416Y-81458252D01*
X119890209Y-81545816D01*
X119837062Y-81591173D01*
X119767831Y-81600597D01*
X119704495Y-81571095D01*
X119682591Y-81545816D01*
X119625383Y-81458252D01*
X119625380Y-81458249D01*
X119625379Y-81458247D01*
X119468184Y-81287487D01*
X119468179Y-81287483D01*
X119468177Y-81287481D01*
X119285034Y-81144935D01*
X119285028Y-81144931D01*
X119080904Y-81034464D01*
X119080895Y-81034461D01*
X118861384Y-80959102D01*
X118689681Y-80930450D01*
X118632449Y-80920900D01*
X118400351Y-80920900D01*
X118354564Y-80928540D01*
X118171415Y-80959102D01*
X117951904Y-81034461D01*
X117951895Y-81034464D01*
X117747771Y-81144931D01*
X117747765Y-81144935D01*
X117564622Y-81287481D01*
X117564619Y-81287484D01*
X117564616Y-81287486D01*
X117564616Y-81287487D01*
X117520239Y-81335694D01*
X117407416Y-81458252D01*
X117350209Y-81545816D01*
X117297062Y-81591173D01*
X117227831Y-81600597D01*
X117164495Y-81571095D01*
X117142591Y-81545816D01*
X117085383Y-81458252D01*
X117085380Y-81458249D01*
X117085379Y-81458247D01*
X116928184Y-81287487D01*
X116928179Y-81287483D01*
X116928177Y-81287481D01*
X116745034Y-81144935D01*
X116745028Y-81144931D01*
X116540904Y-81034464D01*
X116540895Y-81034461D01*
X116321384Y-80959102D01*
X116149682Y-80930450D01*
X116092449Y-80920900D01*
X115860351Y-80920900D01*
X115814564Y-80928540D01*
X115631415Y-80959102D01*
X115411901Y-81034462D01*
X115411886Y-81034469D01*
X115372186Y-81055954D01*
X115313168Y-81070900D01*
X112494107Y-81070900D01*
X112487168Y-81070510D01*
X112463877Y-81067886D01*
X112448576Y-81066162D01*
X112448569Y-81066161D01*
X112401624Y-81069327D01*
X112380367Y-81070760D01*
X112376212Y-81070900D01*
X112364241Y-81070900D01*
X112322275Y-81074677D01*
X112223990Y-81081303D01*
X112219749Y-81082372D01*
X112200576Y-81085630D01*
X112196208Y-81086023D01*
X112101234Y-81112235D01*
X112005719Y-81136302D01*
X112001722Y-81138118D01*
X111983459Y-81144739D01*
X111979234Y-81145905D01*
X111890464Y-81188653D01*
X111800769Y-81229395D01*
X111797175Y-81231886D01*
X111780371Y-81241671D01*
X111776431Y-81243568D01*
X111776428Y-81243570D01*
X111696723Y-81301478D01*
X111615749Y-81357577D01*
X111615743Y-81357582D01*
X111612639Y-81360686D01*
X111597865Y-81373303D01*
X111594328Y-81375873D01*
X111594321Y-81375878D01*
X111526246Y-81447079D01*
X108540285Y-84433039D01*
X108535099Y-84437674D01*
X108504737Y-84461888D01*
X108504733Y-84461892D01*
X108459765Y-84513360D01*
X108456921Y-84516403D01*
X108448464Y-84524861D01*
X108448454Y-84524872D01*
X108421449Y-84557218D01*
X108356634Y-84631404D01*
X108356630Y-84631410D01*
X108354381Y-84635174D01*
X108343146Y-84651008D01*
X108340334Y-84654377D01*
X108340332Y-84654381D01*
X108291716Y-84740059D01*
X108267940Y-84779854D01*
X108241183Y-84824638D01*
X108239647Y-84828732D01*
X108231408Y-84846345D01*
X108229250Y-84850147D01*
X108229246Y-84850157D01*
X108196707Y-84943146D01*
X108162094Y-85035370D01*
X108162089Y-85035388D01*
X108161309Y-85039688D01*
X108156352Y-85058469D01*
X108154903Y-85062609D01*
X108154902Y-85062615D01*
X108139489Y-85159927D01*
X108121900Y-85256848D01*
X108121900Y-85261227D01*
X108120373Y-85280629D01*
X108119689Y-85284940D01*
X108121900Y-85383421D01*
X108121899Y-100789688D01*
X108121509Y-100796633D01*
X108117162Y-100835227D01*
X108117161Y-100835232D01*
X107492800Y-100835232D01*
X107492800Y-59740801D01*
X109297190Y-59740801D01*
X109317604Y-60026233D01*
X109378428Y-60305837D01*
X109378430Y-60305843D01*
X109378431Y-60305846D01*
X109450169Y-60498182D01*
X109478435Y-60573966D01*
X109615570Y-60825109D01*
X109615575Y-60825117D01*
X109787054Y-61054187D01*
X109787070Y-61054205D01*
X109989394Y-61256529D01*
X109989412Y-61256545D01*
X110218482Y-61428024D01*
X110218489Y-61428029D01*
X110302299Y-61473792D01*
X110362727Y-61506788D01*
X110412132Y-61556193D01*
X110427300Y-61615620D01*
X110427300Y-70753792D01*
X110421232Y-70792108D01*
X110417126Y-70804742D01*
X110417126Y-70804743D01*
X110416370Y-70811941D01*
X110397340Y-70993000D01*
X110417126Y-71181256D01*
X110417127Y-71181259D01*
X110475618Y-71361277D01*
X110475621Y-71361284D01*
X110570267Y-71525216D01*
X110660096Y-71624981D01*
X110696929Y-71665888D01*
X110850065Y-71777148D01*
X110850070Y-71777151D01*
X111022992Y-71854142D01*
X111022997Y-71854144D01*
X111208154Y-71893500D01*
X111208155Y-71893500D01*
X111397444Y-71893500D01*
X111397446Y-71893500D01*
X111582603Y-71854144D01*
X111755530Y-71777151D01*
X111908671Y-71665888D01*
X112035333Y-71525216D01*
X112129979Y-71361284D01*
X112188474Y-71181256D01*
X112208260Y-70993000D01*
X112188474Y-70804744D01*
X112184369Y-70792111D01*
X112178299Y-70753789D01*
X112178299Y-66159964D01*
X112178299Y-61615616D01*
X112197984Y-61548581D01*
X112242869Y-61506790D01*
X112387115Y-61428026D01*
X112616195Y-61256539D01*
X112818539Y-61054195D01*
X112990026Y-60825115D01*
X113127167Y-60573961D01*
X113227169Y-60305846D01*
X113236946Y-60260901D01*
X113287995Y-60026233D01*
X113287995Y-60026232D01*
X113287996Y-60026228D01*
X113308410Y-59740801D01*
X114377190Y-59740801D01*
X114397604Y-60026233D01*
X114458428Y-60305837D01*
X114458430Y-60305843D01*
X114458431Y-60305846D01*
X114530169Y-60498182D01*
X114558435Y-60573966D01*
X114695570Y-60825109D01*
X114695575Y-60825117D01*
X114867054Y-61054187D01*
X114867070Y-61054205D01*
X115069394Y-61256529D01*
X115069412Y-61256545D01*
X115298482Y-61428024D01*
X115298489Y-61428029D01*
X115382299Y-61473792D01*
X115442727Y-61506788D01*
X115492132Y-61556193D01*
X115507300Y-61615620D01*
X115507300Y-66044048D01*
X115503635Y-66073970D01*
X115492772Y-66117656D01*
X115484799Y-66149714D01*
X115484794Y-66149910D01*
X115481945Y-66173175D01*
X115481900Y-66173378D01*
X115481900Y-66173384D01*
X115481900Y-66256759D01*
X115479643Y-66340072D01*
X115479643Y-66340073D01*
X115479678Y-66340255D01*
X115481900Y-66363623D01*
X115481900Y-70956992D01*
X115475832Y-70995308D01*
X115471726Y-71007942D01*
X115471726Y-71007943D01*
X115454593Y-71170962D01*
X115451940Y-71196200D01*
X115471726Y-71384456D01*
X115471727Y-71384459D01*
X115530218Y-71564477D01*
X115530221Y-71564484D01*
X115624867Y-71728416D01*
X115738072Y-71854142D01*
X115751529Y-71869088D01*
X115904665Y-71980348D01*
X115904670Y-71980351D01*
X116077592Y-72057342D01*
X116077597Y-72057344D01*
X116262754Y-72096700D01*
X116262755Y-72096700D01*
X116452044Y-72096700D01*
X116452046Y-72096700D01*
X116637203Y-72057344D01*
X116810130Y-71980351D01*
X116963271Y-71869088D01*
X117089933Y-71728416D01*
X117184579Y-71564484D01*
X117243074Y-71384456D01*
X117262860Y-71196200D01*
X117243074Y-71007944D01*
X117238967Y-70995305D01*
X117232900Y-70956992D01*
X117232900Y-66467746D01*
X117236566Y-66437819D01*
X117241413Y-66418331D01*
X117255400Y-66362089D01*
X117255404Y-66361915D01*
X117258261Y-66338591D01*
X117258300Y-66338416D01*
X117258300Y-66255040D01*
X117260557Y-66171727D01*
X117260522Y-66171544D01*
X117258299Y-66148168D01*
X117258299Y-63898981D01*
X117258299Y-61615616D01*
X117277984Y-61548581D01*
X117322869Y-61506790D01*
X117467115Y-61428026D01*
X117696195Y-61256539D01*
X117898539Y-61054195D01*
X118070026Y-60825115D01*
X118207167Y-60573961D01*
X118307169Y-60305846D01*
X118316946Y-60260901D01*
X118367995Y-60026233D01*
X118367995Y-60026232D01*
X118367996Y-60026228D01*
X118388410Y-59740801D01*
X119457190Y-59740801D01*
X119477604Y-60026233D01*
X119538428Y-60305837D01*
X119538430Y-60305843D01*
X119538431Y-60305846D01*
X119610169Y-60498182D01*
X119638435Y-60573966D01*
X119775570Y-60825109D01*
X119775575Y-60825117D01*
X119947054Y-61054187D01*
X119947070Y-61054205D01*
X120149394Y-61256529D01*
X120149412Y-61256545D01*
X120378480Y-61428023D01*
X120378482Y-61428024D01*
X120378485Y-61428026D01*
X120397726Y-61438532D01*
X120447131Y-61487934D01*
X120462300Y-61547364D01*
X120462300Y-75730083D01*
X120460043Y-75819162D01*
X120460043Y-75819170D01*
X120470864Y-75879539D01*
X120471518Y-75884204D01*
X120477725Y-75945230D01*
X120477727Y-75945244D01*
X120488008Y-75978013D01*
X120489879Y-75985637D01*
X120495942Y-76019452D01*
X120495942Y-76019455D01*
X120518694Y-76076412D01*
X120520274Y-76080851D01*
X120538641Y-76139388D01*
X120538644Y-76139395D01*
X120555309Y-76169419D01*
X120558679Y-76176514D01*
X120571422Y-76208414D01*
X120571427Y-76208424D01*
X120605177Y-76259633D01*
X120607618Y-76263663D01*
X120637388Y-76317298D01*
X120637389Y-76317299D01*
X120637391Y-76317302D01*
X120659768Y-76343367D01*
X120664493Y-76349635D01*
X120668716Y-76356042D01*
X120683398Y-76378319D01*
X120726778Y-76421699D01*
X120729969Y-76425143D01*
X120769931Y-76471692D01*
X120769934Y-76471695D01*
X120797094Y-76492718D01*
X120802990Y-76497911D01*
X125099581Y-80794502D01*
X125133066Y-80855825D01*
X125135900Y-80882183D01*
X125135900Y-81292021D01*
X125116215Y-81359060D01*
X125103130Y-81376003D01*
X125027422Y-81458244D01*
X125027420Y-81458246D01*
X124900475Y-81652551D01*
X124807242Y-81865099D01*
X124750266Y-82090091D01*
X124750264Y-82090102D01*
X124731100Y-82321393D01*
X124731100Y-82321406D01*
X124750264Y-82552697D01*
X124750266Y-82552708D01*
X124807242Y-82777700D01*
X124900475Y-82990248D01*
X125027416Y-83184547D01*
X125027418Y-83184549D01*
X125027421Y-83184553D01*
X125184616Y-83355313D01*
X125184619Y-83355315D01*
X125184622Y-83355318D01*
X125367765Y-83497864D01*
X125367771Y-83497868D01*
X125367774Y-83497870D01*
X125571897Y-83608336D01*
X125648381Y-83634593D01*
X125791415Y-83683697D01*
X125791417Y-83683697D01*
X125791419Y-83683698D01*
X126020351Y-83721900D01*
X126020352Y-83721900D01*
X126252448Y-83721900D01*
X126252449Y-83721900D01*
X126481381Y-83683698D01*
X126700903Y-83608336D01*
X126905026Y-83497870D01*
X126934017Y-83475306D01*
X126986881Y-83434160D01*
X127088184Y-83355313D01*
X127245379Y-83184553D01*
X127302592Y-83096980D01*
X127355735Y-83051626D01*
X127424966Y-83042202D01*
X127488303Y-83071703D01*
X127510208Y-83096982D01*
X127567417Y-83184548D01*
X127567421Y-83184553D01*
X127724616Y-83355313D01*
X127724619Y-83355315D01*
X127724622Y-83355318D01*
X127907765Y-83497864D01*
X127907771Y-83497868D01*
X127907774Y-83497870D01*
X128111897Y-83608336D01*
X128188381Y-83634593D01*
X128331415Y-83683697D01*
X128331417Y-83683697D01*
X128331419Y-83683698D01*
X128560351Y-83721900D01*
X128560352Y-83721900D01*
X128792448Y-83721900D01*
X128792449Y-83721900D01*
X129021381Y-83683698D01*
X129240903Y-83608336D01*
X129445026Y-83497870D01*
X129474017Y-83475306D01*
X129526881Y-83434160D01*
X129628184Y-83355313D01*
X129785379Y-83184553D01*
X129842591Y-83096982D01*
X129895737Y-83051626D01*
X129964968Y-83042202D01*
X130028304Y-83071704D01*
X130050207Y-83096981D01*
X130061779Y-83114692D01*
X130107416Y-83184547D01*
X130107418Y-83184549D01*
X130107421Y-83184553D01*
X130264616Y-83355313D01*
X130264619Y-83355315D01*
X130264622Y-83355318D01*
X130447765Y-83497864D01*
X130447771Y-83497868D01*
X130447774Y-83497870D01*
X130651897Y-83608336D01*
X130728381Y-83634593D01*
X130871415Y-83683697D01*
X130871417Y-83683697D01*
X130871419Y-83683698D01*
X131100351Y-83721900D01*
X131100352Y-83721900D01*
X131332448Y-83721900D01*
X131332449Y-83721900D01*
X131561381Y-83683698D01*
X131780903Y-83608336D01*
X131803096Y-83596325D01*
X131820614Y-83586846D01*
X131879632Y-83571900D01*
X133923664Y-83571900D01*
X133990703Y-83591585D01*
X134011345Y-83608219D01*
X134730181Y-84327055D01*
X134763666Y-84388378D01*
X134766500Y-84414736D01*
X134766500Y-88927893D01*
X134766110Y-88934831D01*
X134763792Y-88955404D01*
X134761762Y-88973423D01*
X134761761Y-88973431D01*
X134766359Y-89041613D01*
X134766500Y-89045786D01*
X134766500Y-89057756D01*
X134770277Y-89099724D01*
X134776903Y-89198007D01*
X134776903Y-89198012D01*
X134777972Y-89202252D01*
X134781230Y-89221424D01*
X134781623Y-89225790D01*
X134807835Y-89320765D01*
X134831903Y-89416281D01*
X134833715Y-89420270D01*
X134840340Y-89438544D01*
X134841504Y-89442762D01*
X134841507Y-89442770D01*
X134884253Y-89531535D01*
X134924993Y-89621226D01*
X134924994Y-89621229D01*
X134927483Y-89624821D01*
X134937269Y-89641626D01*
X134939166Y-89645565D01*
X134939174Y-89645579D01*
X134997078Y-89725276D01*
X135053180Y-89806255D01*
X135056273Y-89809348D01*
X135068907Y-89824139D01*
X135071478Y-89827678D01*
X135071481Y-89827681D01*
X135142679Y-89895753D01*
X141359581Y-96112655D01*
X141393066Y-96173978D01*
X141395900Y-96200336D01*
X141395900Y-100548063D01*
X141376215Y-100615102D01*
X141359581Y-100635744D01*
X140706745Y-101288581D01*
X140645422Y-101322066D01*
X140619064Y-101324900D01*
X137849848Y-101324900D01*
X137847091Y-101324838D01*
X137774784Y-101321591D01*
X137764072Y-101321110D01*
X137764071Y-101321110D01*
X137764070Y-101321110D01*
X137736090Y-101324900D01*
X137681731Y-101332263D01*
X137678967Y-101332574D01*
X137596214Y-101340022D01*
X137573023Y-101346421D01*
X137564848Y-101348095D01*
X137541019Y-101351323D01*
X137541004Y-101351327D01*
X137461974Y-101377005D01*
X137459310Y-101377805D01*
X137379238Y-101399904D01*
X137379223Y-101399909D01*
X137357557Y-101410343D01*
X137349809Y-101413450D01*
X137333249Y-101418831D01*
X137294931Y-101424900D01*
X136320398Y-101424900D01*
X136320380Y-101424901D01*
X136217603Y-101435400D01*
X136217600Y-101435401D01*
X136051068Y-101490585D01*
X136051063Y-101490587D01*
X135901742Y-101582689D01*
X135777689Y-101706742D01*
X135685587Y-101856063D01*
X135685585Y-101856068D01*
X135665372Y-101917068D01*
X135630401Y-102022603D01*
X135630401Y-102022604D01*
X135630400Y-102022604D01*
X135619900Y-102125383D01*
X135619900Y-103025401D01*
X135619901Y-103025419D01*
X135630400Y-103128196D01*
X135630401Y-103128199D01*
X135672519Y-103255300D01*
X135685586Y-103294734D01*
X135777688Y-103444056D01*
X135901744Y-103568112D01*
X136051066Y-103660214D01*
X136217603Y-103715399D01*
X136320391Y-103725900D01*
X136445900Y-103725899D01*
X136512939Y-103745583D01*
X136558694Y-103798387D01*
X136569900Y-103849899D01*
X136569900Y-109103900D01*
X136550215Y-109170939D01*
X136497411Y-109216694D01*
X136445901Y-109227900D01*
X136320399Y-109227900D01*
X136320380Y-109227901D01*
X136217603Y-109238400D01*
X136217600Y-109238401D01*
X136051068Y-109293585D01*
X136051063Y-109293587D01*
X135901742Y-109385689D01*
X135777689Y-109509742D01*
X135685587Y-109659063D01*
X135685585Y-109659066D01*
X135685586Y-109659066D01*
X135630401Y-109825603D01*
X135630401Y-109825604D01*
X135630400Y-109825604D01*
X135619900Y-109928383D01*
X135619900Y-110828401D01*
X135619901Y-110828419D01*
X135630400Y-110931196D01*
X135630401Y-110931199D01*
X135675222Y-111066459D01*
X135685586Y-111097734D01*
X135777688Y-111247056D01*
X135901744Y-111371112D01*
X136051066Y-111463214D01*
X136217603Y-111518399D01*
X136320391Y-111528900D01*
X137305007Y-111528899D01*
X137353743Y-111538878D01*
X137392459Y-111555426D01*
X137432412Y-111572503D01*
X137651863Y-111622591D01*
X137876730Y-111632690D01*
X138099787Y-111602475D01*
X138228869Y-111560533D01*
X138307553Y-111534968D01*
X138345871Y-111528899D01*
X139320402Y-111528899D01*
X139320408Y-111528899D01*
X139423197Y-111518399D01*
X139589734Y-111463214D01*
X139739056Y-111371112D01*
X139863112Y-111247056D01*
X139955214Y-111097734D01*
X140010399Y-110931197D01*
X140020900Y-110828409D01*
X140020899Y-110337599D01*
X145147951Y-110337599D01*
X145167717Y-110588751D01*
X145226526Y-110833710D01*
X145322933Y-111066459D01*
X145454560Y-111281253D01*
X145454561Y-111281256D01*
X145496264Y-111330083D01*
X145618176Y-111472824D01*
X145740255Y-111577089D01*
X145809743Y-111636438D01*
X145809746Y-111636439D01*
X146024540Y-111768066D01*
X146199719Y-111840627D01*
X146257289Y-111864473D01*
X146502252Y-111923283D01*
X146658350Y-111935568D01*
X146690516Y-111938100D01*
X146690518Y-111938100D01*
X149016284Y-111938100D01*
X149045918Y-111935767D01*
X149204548Y-111923283D01*
X149449511Y-111864473D01*
X149682259Y-111768066D01*
X149897059Y-111636436D01*
X150088624Y-111472824D01*
X150252236Y-111281259D01*
X150383866Y-111066459D01*
X150480273Y-110833711D01*
X150539083Y-110588748D01*
X150558849Y-110337600D01*
X150539083Y-110086452D01*
X150480273Y-109841489D01*
X150426748Y-109712267D01*
X150383866Y-109608740D01*
X150252239Y-109393946D01*
X150252238Y-109393943D01*
X150170794Y-109298585D01*
X150088624Y-109202376D01*
X149961971Y-109094204D01*
X149897056Y-109038761D01*
X149897053Y-109038760D01*
X149682259Y-108907133D01*
X149449510Y-108810726D01*
X149204550Y-108751917D01*
X149016284Y-108737100D01*
X149016282Y-108737100D01*
X146690518Y-108737100D01*
X146690516Y-108737100D01*
X146502249Y-108751917D01*
X146257289Y-108810726D01*
X146024540Y-108907133D01*
X145809746Y-109038760D01*
X145809743Y-109038761D01*
X145618176Y-109202376D01*
X145454561Y-109393943D01*
X145454560Y-109393946D01*
X145322933Y-109608740D01*
X145226526Y-109841489D01*
X145167717Y-110086448D01*
X145147951Y-110337599D01*
X140020899Y-110337599D01*
X140020899Y-109928392D01*
X140014019Y-109861045D01*
X140010399Y-109825603D01*
X140010398Y-109825600D01*
X139996035Y-109782255D01*
X139955214Y-109659066D01*
X139863112Y-109509744D01*
X139739056Y-109385688D01*
X139597842Y-109298587D01*
X139589736Y-109293587D01*
X139589731Y-109293585D01*
X139588262Y-109293098D01*
X139423197Y-109238401D01*
X139423195Y-109238400D01*
X139320416Y-109227900D01*
X139320409Y-109227900D01*
X139194900Y-109227900D01*
X139127861Y-109208215D01*
X139082106Y-109155411D01*
X139070900Y-109103900D01*
X139070900Y-103949900D01*
X139090585Y-103882861D01*
X139143389Y-103837106D01*
X139194900Y-103825900D01*
X141114693Y-103825900D01*
X141121631Y-103826289D01*
X141160227Y-103830638D01*
X141160229Y-103830637D01*
X141160230Y-103830638D01*
X141177986Y-103829440D01*
X141228432Y-103826039D01*
X141232588Y-103825900D01*
X141244547Y-103825900D01*
X141244555Y-103825900D01*
X141286523Y-103822122D01*
X141384812Y-103815496D01*
X141389046Y-103814428D01*
X141408241Y-103811167D01*
X141412588Y-103810777D01*
X141507565Y-103784564D01*
X141603083Y-103760496D01*
X141607055Y-103758691D01*
X141625362Y-103752054D01*
X141629570Y-103750893D01*
X141718335Y-103708146D01*
X141808026Y-103667407D01*
X141811620Y-103664916D01*
X141828435Y-103655124D01*
X141832373Y-103653229D01*
X141912076Y-103595321D01*
X141993054Y-103539220D01*
X141996143Y-103536130D01*
X142010945Y-103523488D01*
X142014478Y-103520922D01*
X142082553Y-103449720D01*
X143478527Y-102053745D01*
X143483687Y-102049133D01*
X143514066Y-102024908D01*
X143559032Y-101973439D01*
X143561878Y-101970395D01*
X143570329Y-101961945D01*
X143570329Y-101961944D01*
X143570344Y-101961930D01*
X143597347Y-101929585D01*
X143662165Y-101855396D01*
X143664406Y-101851643D01*
X143675674Y-101835764D01*
X143678468Y-101832419D01*
X143727083Y-101746740D01*
X143777615Y-101662164D01*
X143779147Y-101658079D01*
X143787403Y-101640433D01*
X143789553Y-101636645D01*
X143822092Y-101543653D01*
X143856707Y-101451424D01*
X143857485Y-101447137D01*
X143862456Y-101428302D01*
X143863898Y-101424183D01*
X143879310Y-101326872D01*
X143890977Y-101262583D01*
X143896900Y-101229949D01*
X143896900Y-101225569D01*
X143898427Y-101206170D01*
X143899110Y-101201860D01*
X143896900Y-101103397D01*
X143896900Y-96131470D01*
X144479700Y-96131470D01*
X144479701Y-96131476D01*
X144486108Y-96191083D01*
X144536402Y-96325928D01*
X144536403Y-96325929D01*
X144536404Y-96325931D01*
X144622654Y-96441146D01*
X144660010Y-96469110D01*
X144701882Y-96525043D01*
X144709700Y-96568377D01*
X144709700Y-105391792D01*
X144703632Y-105430108D01*
X144699526Y-105442742D01*
X144699526Y-105442743D01*
X144699526Y-105442744D01*
X144679740Y-105631000D01*
X144699526Y-105819256D01*
X144699527Y-105819259D01*
X144758018Y-105999277D01*
X144758021Y-105999284D01*
X144852667Y-106163216D01*
X144920455Y-106238502D01*
X144979329Y-106303888D01*
X145132465Y-106415148D01*
X145132470Y-106415151D01*
X145305392Y-106492142D01*
X145305397Y-106492144D01*
X145490554Y-106531500D01*
X145490555Y-106531500D01*
X145679844Y-106531500D01*
X145679846Y-106531500D01*
X145865003Y-106492144D01*
X146037930Y-106415151D01*
X146191071Y-106303888D01*
X146317733Y-106163216D01*
X146412379Y-105999284D01*
X146470874Y-105819256D01*
X146490660Y-105631000D01*
X146470874Y-105442744D01*
X146466767Y-105430105D01*
X146460700Y-105391792D01*
X146460700Y-96568377D01*
X146480385Y-96501338D01*
X146510388Y-96469111D01*
X146547746Y-96441146D01*
X146633996Y-96325931D01*
X146684291Y-96191083D01*
X146690700Y-96131473D01*
X146690699Y-95478600D01*
X152414964Y-95478600D01*
X152433867Y-95682604D01*
X152433868Y-95682606D01*
X152489934Y-95879659D01*
X152489938Y-95879669D01*
X152511700Y-95923371D01*
X152524700Y-95978644D01*
X152524700Y-101493283D01*
X152522443Y-101582362D01*
X152522443Y-101582370D01*
X152531580Y-101633345D01*
X152532850Y-101640433D01*
X152533264Y-101642739D01*
X152533918Y-101647404D01*
X152540125Y-101708430D01*
X152540127Y-101708444D01*
X152550408Y-101741213D01*
X152552279Y-101748837D01*
X152558342Y-101782652D01*
X152558342Y-101782655D01*
X152573910Y-101821629D01*
X152578220Y-101832419D01*
X152581094Y-101839612D01*
X152582674Y-101844051D01*
X152601041Y-101902588D01*
X152601044Y-101902595D01*
X152617709Y-101932619D01*
X152621079Y-101939714D01*
X152633822Y-101971614D01*
X152633827Y-101971624D01*
X152667577Y-102022833D01*
X152670018Y-102026863D01*
X152699788Y-102080498D01*
X152699789Y-102080499D01*
X152699791Y-102080502D01*
X152722168Y-102106567D01*
X152726893Y-102112835D01*
X152735163Y-102125383D01*
X152745798Y-102141519D01*
X152789178Y-102184899D01*
X152792369Y-102188343D01*
X152832331Y-102234892D01*
X152832330Y-102234892D01*
X152859499Y-102255923D01*
X152865386Y-102261107D01*
X156915947Y-106311667D01*
X156977341Y-106376253D01*
X156977344Y-106376255D01*
X156977347Y-106376258D01*
X157001251Y-106392895D01*
X157027703Y-106411306D01*
X157031444Y-106414126D01*
X157078993Y-106452898D01*
X157109445Y-106468804D01*
X157116158Y-106472872D01*
X157144351Y-106492495D01*
X157200729Y-106516689D01*
X157204978Y-106518707D01*
X157259351Y-106547109D01*
X157286889Y-106554988D01*
X157292374Y-106556558D01*
X157299768Y-106559190D01*
X157331342Y-106572740D01*
X157331345Y-106572740D01*
X157331346Y-106572741D01*
X157391422Y-106585087D01*
X157396000Y-106586210D01*
X157409901Y-106590187D01*
X157454982Y-106603087D01*
X157489239Y-106605695D01*
X157497014Y-106606786D01*
X157530655Y-106613700D01*
X157530659Y-106613700D01*
X157591998Y-106613700D01*
X157596704Y-106613878D01*
X157631462Y-106616525D01*
X157657875Y-106618537D01*
X157657875Y-106618536D01*
X157657876Y-106618537D01*
X157691959Y-106614196D01*
X157699789Y-106613700D01*
X183811217Y-106613700D01*
X183878256Y-106633385D01*
X183898898Y-106650019D01*
X188091581Y-110842702D01*
X188125066Y-110904025D01*
X188127900Y-110930383D01*
X188127900Y-114193501D01*
X188108215Y-114260540D01*
X188055411Y-114306295D01*
X188003900Y-114317501D01*
X187580529Y-114317501D01*
X187580523Y-114317502D01*
X187520916Y-114323909D01*
X187386071Y-114374203D01*
X187386064Y-114374207D01*
X187270855Y-114460453D01*
X187270852Y-114460456D01*
X187184606Y-114575665D01*
X187184602Y-114575672D01*
X187134308Y-114710518D01*
X187127901Y-114770117D01*
X187127901Y-114770124D01*
X187127900Y-114770136D01*
X187127900Y-117865871D01*
X187127901Y-117865877D01*
X187134308Y-117925484D01*
X187184602Y-118060329D01*
X187184606Y-118060336D01*
X187270852Y-118175545D01*
X187270855Y-118175548D01*
X187386064Y-118261794D01*
X187386071Y-118261798D01*
X187520917Y-118312092D01*
X187520916Y-118312092D01*
X187527844Y-118312836D01*
X187580527Y-118318501D01*
X190676272Y-118318500D01*
X190735883Y-118312092D01*
X190870731Y-118261797D01*
X190985946Y-118175547D01*
X191072196Y-118060332D01*
X191122491Y-117925484D01*
X191128900Y-117865874D01*
X191128899Y-114770129D01*
X191122491Y-114710518D01*
X191121032Y-114706607D01*
X191072197Y-114575672D01*
X191072193Y-114575665D01*
X190985947Y-114460456D01*
X190985944Y-114460453D01*
X190870735Y-114374207D01*
X190870728Y-114374203D01*
X190735882Y-114323909D01*
X190735883Y-114323909D01*
X190676283Y-114317502D01*
X190676281Y-114317501D01*
X190676273Y-114317501D01*
X190676265Y-114317501D01*
X190252900Y-114317501D01*
X190185861Y-114297816D01*
X190140106Y-114245012D01*
X190128900Y-114193501D01*
X190128900Y-110477315D01*
X190131157Y-110388241D01*
X190131156Y-110388240D01*
X190131157Y-110388237D01*
X190120333Y-110327853D01*
X190119680Y-110323187D01*
X190116434Y-110291274D01*
X190113474Y-110262162D01*
X190103188Y-110229380D01*
X190101318Y-110221766D01*
X190095258Y-110187948D01*
X190072492Y-110130952D01*
X190070927Y-110126555D01*
X190052559Y-110068012D01*
X190035891Y-110037982D01*
X190032520Y-110030884D01*
X190019778Y-109998984D01*
X190019777Y-109998981D01*
X190011871Y-109986986D01*
X189986005Y-109947739D01*
X189983583Y-109943742D01*
X189953809Y-109890098D01*
X189931434Y-109864034D01*
X189926706Y-109857763D01*
X189907804Y-109829084D01*
X189907799Y-109829078D01*
X189886115Y-109807395D01*
X189864419Y-109785699D01*
X189861228Y-109782255D01*
X189821265Y-109735704D01*
X189794094Y-109714672D01*
X189788207Y-109709487D01*
X184993452Y-104914732D01*
X184932059Y-104850147D01*
X184904204Y-104830759D01*
X184881709Y-104815102D01*
X184877946Y-104812264D01*
X184830413Y-104773505D01*
X184830406Y-104773500D01*
X184799959Y-104757597D01*
X184793251Y-104753534D01*
X184765049Y-104733905D01*
X184765046Y-104733903D01*
X184765045Y-104733903D01*
X184765041Y-104733901D01*
X184708680Y-104709714D01*
X184704424Y-104707693D01*
X184650057Y-104679294D01*
X184650050Y-104679291D01*
X184650049Y-104679291D01*
X184644008Y-104677562D01*
X184617030Y-104669842D01*
X184609630Y-104667208D01*
X184578057Y-104653659D01*
X184578058Y-104653659D01*
X184517966Y-104641309D01*
X184513391Y-104640186D01*
X184454420Y-104623313D01*
X184454425Y-104623313D01*
X184420158Y-104620703D01*
X184412380Y-104619612D01*
X184378742Y-104612700D01*
X184378741Y-104612700D01*
X184317402Y-104612700D01*
X184312695Y-104612521D01*
X184307121Y-104612096D01*
X184251524Y-104607862D01*
X184231589Y-104610401D01*
X184217440Y-104612203D01*
X184209611Y-104612700D01*
X158098183Y-104612700D01*
X158031144Y-104593015D01*
X158010502Y-104576381D01*
X154562019Y-101127898D01*
X154528534Y-101066575D01*
X154525700Y-101040217D01*
X154525700Y-97056825D01*
X156394510Y-97056825D01*
X156399064Y-97108864D01*
X156399300Y-97114270D01*
X156399300Y-97122509D01*
X156403106Y-97155075D01*
X156404106Y-97166500D01*
X156409800Y-97231591D01*
X156411261Y-97238667D01*
X156411203Y-97238678D01*
X156412834Y-97246037D01*
X156412892Y-97246024D01*
X156414557Y-97253050D01*
X156440825Y-97325224D01*
X156464985Y-97398131D01*
X156468036Y-97404674D01*
X156467982Y-97404698D01*
X156471270Y-97411488D01*
X156471321Y-97411463D01*
X156474561Y-97417913D01*
X156474562Y-97417914D01*
X156474563Y-97417917D01*
X156516764Y-97482082D01*
X156516765Y-97482083D01*
X156557087Y-97547455D01*
X156561566Y-97553119D01*
X156561519Y-97553156D01*
X156566282Y-97559002D01*
X156566328Y-97558964D01*
X156570973Y-97564500D01*
X156626817Y-97617185D01*
X157412270Y-98402638D01*
X157424051Y-98416270D01*
X157438388Y-98435528D01*
X157478409Y-98469111D01*
X157482397Y-98472766D01*
X157488216Y-98478585D01*
X157488220Y-98478588D01*
X157488223Y-98478591D01*
X157513959Y-98498940D01*
X157572786Y-98548302D01*
X157572787Y-98548302D01*
X157572789Y-98548304D01*
X157578818Y-98552270D01*
X157578785Y-98552319D01*
X157585147Y-98556372D01*
X157585179Y-98556321D01*
X157591319Y-98560108D01*
X157591323Y-98560111D01*
X157626132Y-98576343D01*
X157660941Y-98592575D01*
X157729565Y-98627039D01*
X157729567Y-98627040D01*
X157729569Y-98627040D01*
X157736357Y-98629511D01*
X157736336Y-98629567D01*
X157743457Y-98632043D01*
X157743476Y-98631986D01*
X157750322Y-98634254D01*
X157750327Y-98634257D01*
X157750332Y-98634258D01*
X157750335Y-98634259D01*
X157825564Y-98649792D01*
X157825565Y-98649792D01*
X157900279Y-98667500D01*
X157900282Y-98667500D01*
X157900286Y-98667501D01*
X157907453Y-98668339D01*
X157907446Y-98668398D01*
X157914944Y-98669164D01*
X157914950Y-98669105D01*
X157922139Y-98669734D01*
X157922143Y-98669733D01*
X157922144Y-98669734D01*
X157998917Y-98667500D01*
X162705770Y-98667500D01*
X162772809Y-98687185D01*
X162793451Y-98703819D01*
X163322581Y-99232948D01*
X163356066Y-99294271D01*
X163358900Y-99320629D01*
X163358900Y-100717098D01*
X163339215Y-100784137D01*
X163306025Y-100818672D01*
X163237995Y-100866307D01*
X163070905Y-101033397D01*
X162940975Y-101218958D01*
X162886398Y-101262583D01*
X162816900Y-101269777D01*
X162754545Y-101238254D01*
X162737825Y-101218958D01*
X162607894Y-101033397D01*
X162440802Y-100866306D01*
X162440795Y-100866301D01*
X162247234Y-100730767D01*
X162247230Y-100730765D01*
X162217921Y-100717098D01*
X162033063Y-100630897D01*
X162033059Y-100630896D01*
X162033055Y-100630894D01*
X161804813Y-100569738D01*
X161804803Y-100569736D01*
X161569401Y-100549141D01*
X161569399Y-100549141D01*
X161333996Y-100569736D01*
X161333986Y-100569738D01*
X161105744Y-100630894D01*
X161105735Y-100630898D01*
X160891571Y-100730764D01*
X160891569Y-100730765D01*
X160697997Y-100866305D01*
X160530905Y-101033397D01*
X160395365Y-101226969D01*
X160395364Y-101226971D01*
X160295498Y-101441135D01*
X160295494Y-101441144D01*
X160234338Y-101669386D01*
X160234336Y-101669396D01*
X160213741Y-101904799D01*
X160213741Y-101904800D01*
X160234336Y-102140203D01*
X160234338Y-102140213D01*
X160295494Y-102368455D01*
X160295496Y-102368459D01*
X160295497Y-102368463D01*
X160342812Y-102469929D01*
X160395365Y-102582630D01*
X160395367Y-102582634D01*
X160450755Y-102661735D01*
X160530905Y-102776201D01*
X160697999Y-102943295D01*
X160794784Y-103011064D01*
X160891565Y-103078832D01*
X160891567Y-103078833D01*
X160891570Y-103078835D01*
X161105737Y-103178703D01*
X161105743Y-103178704D01*
X161105744Y-103178705D01*
X161155564Y-103192054D01*
X161333992Y-103239863D01*
X161510434Y-103255300D01*
X161569399Y-103260459D01*
X161569400Y-103260459D01*
X161569401Y-103260459D01*
X161628366Y-103255300D01*
X161804808Y-103239863D01*
X162033063Y-103178703D01*
X162247230Y-103078835D01*
X162440801Y-102943295D01*
X162607895Y-102776201D01*
X162737824Y-102590642D01*
X162792402Y-102547017D01*
X162861900Y-102539823D01*
X162924255Y-102571346D01*
X162940975Y-102590642D01*
X163070900Y-102776195D01*
X163070905Y-102776201D01*
X163237999Y-102943295D01*
X163334784Y-103011064D01*
X163431565Y-103078832D01*
X163431567Y-103078833D01*
X163431570Y-103078835D01*
X163645737Y-103178703D01*
X163645743Y-103178704D01*
X163645744Y-103178705D01*
X163695564Y-103192054D01*
X163873992Y-103239863D01*
X164050434Y-103255300D01*
X164109399Y-103260459D01*
X164109400Y-103260459D01*
X164109401Y-103260459D01*
X164168366Y-103255300D01*
X164344808Y-103239863D01*
X164573063Y-103178703D01*
X164787230Y-103078835D01*
X164980801Y-102943295D01*
X165121426Y-102802670D01*
X167838900Y-102802670D01*
X167838901Y-102802676D01*
X167845308Y-102862283D01*
X167895602Y-102997128D01*
X167895606Y-102997135D01*
X167981852Y-103112344D01*
X167981855Y-103112347D01*
X168097064Y-103198593D01*
X168097071Y-103198597D01*
X168231917Y-103248891D01*
X168231916Y-103248891D01*
X168238844Y-103249635D01*
X168291527Y-103255300D01*
X170087272Y-103255299D01*
X170146883Y-103248891D01*
X170281731Y-103198596D01*
X170396946Y-103112346D01*
X170483196Y-102997131D01*
X170533491Y-102862283D01*
X170539900Y-102802673D01*
X170539899Y-101006928D01*
X170533491Y-100947317D01*
X170523136Y-100919555D01*
X170483197Y-100812471D01*
X170483193Y-100812464D01*
X170396947Y-100697255D01*
X170396944Y-100697252D01*
X170281735Y-100611006D01*
X170281728Y-100611002D01*
X170146882Y-100560708D01*
X170146883Y-100560708D01*
X170087283Y-100554301D01*
X170087281Y-100554300D01*
X170087273Y-100554300D01*
X170087264Y-100554300D01*
X168291529Y-100554300D01*
X168291523Y-100554301D01*
X168231916Y-100560708D01*
X168097071Y-100611002D01*
X168097064Y-100611006D01*
X167981855Y-100697252D01*
X167981852Y-100697255D01*
X167895606Y-100812464D01*
X167895602Y-100812471D01*
X167845308Y-100947317D01*
X167838901Y-101006916D01*
X167838901Y-101006923D01*
X167838900Y-101006935D01*
X167838900Y-102802670D01*
X165121426Y-102802670D01*
X165147895Y-102776201D01*
X165283435Y-102582630D01*
X165383303Y-102368463D01*
X165444463Y-102140208D01*
X165465059Y-101904800D01*
X165464865Y-101902588D01*
X165452176Y-101757553D01*
X165444463Y-101669392D01*
X165386058Y-101451419D01*
X165383305Y-101441144D01*
X165383304Y-101441143D01*
X165383303Y-101441137D01*
X165283435Y-101226971D01*
X165282454Y-101225569D01*
X165147894Y-101033397D01*
X164980804Y-100866307D01*
X164912775Y-100818672D01*
X164869151Y-100764094D01*
X164859900Y-100717098D01*
X164859900Y-99022105D01*
X164861209Y-99004135D01*
X164861529Y-99001947D01*
X164864689Y-98980377D01*
X164860135Y-98928331D01*
X164859900Y-98922928D01*
X164859900Y-98914697D01*
X164859900Y-98914691D01*
X164856093Y-98882124D01*
X164849399Y-98805603D01*
X164849399Y-98805601D01*
X164847939Y-98798529D01*
X164847997Y-98798516D01*
X164846365Y-98791157D01*
X164846306Y-98791172D01*
X164844641Y-98784151D01*
X164844641Y-98784145D01*
X164818374Y-98711976D01*
X164804376Y-98669734D01*
X164794213Y-98639063D01*
X164791164Y-98632524D01*
X164791217Y-98632499D01*
X164787931Y-98625711D01*
X164787879Y-98625738D01*
X164784636Y-98619282D01*
X164742434Y-98555116D01*
X164702114Y-98489747D01*
X164697634Y-98484081D01*
X164697680Y-98484043D01*
X164692919Y-98478199D01*
X164692874Y-98478238D01*
X164688234Y-98472708D01*
X164686260Y-98470846D01*
X164677931Y-98462987D01*
X164632382Y-98420013D01*
X163643729Y-97431361D01*
X163631949Y-97417730D01*
X163622229Y-97404674D01*
X163617612Y-97398472D01*
X163617610Y-97398470D01*
X163577587Y-97364886D01*
X163573612Y-97361244D01*
X163570690Y-97358322D01*
X163567780Y-97355411D01*
X163542040Y-97335059D01*
X163483209Y-97285694D01*
X163477180Y-97281729D01*
X163477212Y-97281680D01*
X163470853Y-97277628D01*
X163470822Y-97277679D01*
X163464680Y-97273891D01*
X163464678Y-97273890D01*
X163464677Y-97273889D01*
X163419989Y-97253050D01*
X163395058Y-97241424D01*
X163360894Y-97224267D01*
X163326433Y-97206960D01*
X163326431Y-97206959D01*
X163326430Y-97206959D01*
X163319645Y-97204489D01*
X163319665Y-97204433D01*
X163312549Y-97201959D01*
X163312531Y-97202015D01*
X163305671Y-97199742D01*
X163277841Y-97193996D01*
X163230434Y-97184207D01*
X163181472Y-97172603D01*
X163155719Y-97166499D01*
X163148547Y-97165661D01*
X163148553Y-97165601D01*
X163141055Y-97164835D01*
X163141050Y-97164895D01*
X163133860Y-97164265D01*
X163057083Y-97166500D01*
X158350229Y-97166500D01*
X158283190Y-97146815D01*
X158262548Y-97130181D01*
X157936619Y-96804251D01*
X157903134Y-96742928D01*
X157900300Y-96716570D01*
X157900300Y-91522828D01*
X157919985Y-91455789D01*
X157936614Y-91435152D01*
X160123038Y-89248727D01*
X160136667Y-89236950D01*
X160155930Y-89222610D01*
X160155932Y-89222606D01*
X160155934Y-89222606D01*
X160176574Y-89198007D01*
X160189513Y-89182585D01*
X160193167Y-89178599D01*
X160198991Y-89172776D01*
X160219330Y-89147052D01*
X160268702Y-89088214D01*
X160268706Y-89088205D01*
X160272674Y-89082175D01*
X160272725Y-89082208D01*
X160276769Y-89075860D01*
X160276717Y-89075828D01*
X160280504Y-89069685D01*
X160280511Y-89069677D01*
X160312972Y-89000063D01*
X160347440Y-88931433D01*
X160347441Y-88931427D01*
X160349908Y-88924650D01*
X160349966Y-88924671D01*
X160352443Y-88917544D01*
X160352386Y-88917526D01*
X160354655Y-88910679D01*
X160354656Y-88910674D01*
X160354657Y-88910672D01*
X160370190Y-88835441D01*
X160387900Y-88760721D01*
X160387900Y-88760719D01*
X160388739Y-88753548D01*
X160388798Y-88753554D01*
X160389564Y-88746054D01*
X160389505Y-88746049D01*
X160390134Y-88738859D01*
X160387900Y-88662082D01*
X160387900Y-87261899D01*
X160407585Y-87194860D01*
X160460389Y-87149105D01*
X160511895Y-87137899D01*
X161405272Y-87137899D01*
X161464883Y-87131491D01*
X161499067Y-87118740D01*
X161568758Y-87113757D01*
X161585727Y-87118738D01*
X161619917Y-87131491D01*
X161679527Y-87137900D01*
X162675272Y-87137899D01*
X162734883Y-87131491D01*
X162769067Y-87118740D01*
X162838758Y-87113757D01*
X162855727Y-87118738D01*
X162889917Y-87131491D01*
X162949527Y-87137900D01*
X163945272Y-87137899D01*
X164004883Y-87131491D01*
X164039067Y-87118740D01*
X164108758Y-87113757D01*
X164125727Y-87118738D01*
X164159917Y-87131491D01*
X164219527Y-87137900D01*
X165112900Y-87137899D01*
X165179939Y-87157583D01*
X165225694Y-87210387D01*
X165236900Y-87261899D01*
X165236900Y-89860169D01*
X165217215Y-89927208D01*
X165200581Y-89947850D01*
X163674558Y-91473872D01*
X163660929Y-91485651D01*
X163641668Y-91499990D01*
X163608098Y-91539997D01*
X163604453Y-91543976D01*
X163598609Y-91549822D01*
X163578259Y-91575559D01*
X163528895Y-91634389D01*
X163524929Y-91640419D01*
X163524882Y-91640388D01*
X163520830Y-91646747D01*
X163520879Y-91646777D01*
X163517089Y-91652921D01*
X163484624Y-91722541D01*
X163450160Y-91791166D01*
X163447688Y-91797957D01*
X163447632Y-91797936D01*
X163445160Y-91805050D01*
X163445215Y-91805069D01*
X163442942Y-91811927D01*
X163438571Y-91833100D01*
X163427407Y-91887165D01*
X163419434Y-91920808D01*
X163409698Y-91961886D01*
X163408861Y-91969054D01*
X163408801Y-91969047D01*
X163408035Y-91976545D01*
X163408095Y-91976551D01*
X163407465Y-91983740D01*
X163409700Y-92060516D01*
X163409700Y-93554298D01*
X163390015Y-93621337D01*
X163356825Y-93655872D01*
X163288795Y-93703507D01*
X163121705Y-93870597D01*
X162991775Y-94056158D01*
X162937198Y-94099783D01*
X162867700Y-94106977D01*
X162805345Y-94075454D01*
X162788625Y-94056158D01*
X162658694Y-93870597D01*
X162491602Y-93703506D01*
X162491595Y-93703501D01*
X162477866Y-93693888D01*
X162423574Y-93655872D01*
X162298034Y-93567967D01*
X162298030Y-93567965D01*
X162262433Y-93551366D01*
X162083863Y-93468097D01*
X162083859Y-93468096D01*
X162083855Y-93468094D01*
X161855613Y-93406938D01*
X161855603Y-93406936D01*
X161620201Y-93386341D01*
X161620199Y-93386341D01*
X161384796Y-93406936D01*
X161384786Y-93406938D01*
X161156544Y-93468094D01*
X161156535Y-93468098D01*
X160942371Y-93567964D01*
X160942369Y-93567965D01*
X160748797Y-93703505D01*
X160581705Y-93870597D01*
X160446165Y-94064169D01*
X160446164Y-94064171D01*
X160346298Y-94278335D01*
X160346294Y-94278344D01*
X160285138Y-94506586D01*
X160285136Y-94506596D01*
X160264541Y-94741999D01*
X160264541Y-94742000D01*
X160285136Y-94977403D01*
X160285138Y-94977413D01*
X160346294Y-95205655D01*
X160346296Y-95205659D01*
X160346297Y-95205663D01*
X160402891Y-95327028D01*
X160446165Y-95419830D01*
X160446167Y-95419834D01*
X160549416Y-95567288D01*
X160581705Y-95613401D01*
X160748799Y-95780495D01*
X160845584Y-95848265D01*
X160942365Y-95916032D01*
X160942367Y-95916033D01*
X160942370Y-95916035D01*
X161156537Y-96015903D01*
X161384792Y-96077063D01*
X161573118Y-96093539D01*
X161620199Y-96097659D01*
X161620200Y-96097659D01*
X161620201Y-96097659D01*
X161659434Y-96094226D01*
X161855608Y-96077063D01*
X162083863Y-96015903D01*
X162298030Y-95916035D01*
X162491601Y-95780495D01*
X162658695Y-95613401D01*
X162788624Y-95427842D01*
X162843202Y-95384217D01*
X162912700Y-95377023D01*
X162975055Y-95408546D01*
X162991775Y-95427842D01*
X163121700Y-95613395D01*
X163121705Y-95613401D01*
X163288799Y-95780495D01*
X163385584Y-95848265D01*
X163482365Y-95916032D01*
X163482367Y-95916033D01*
X163482370Y-95916035D01*
X163696537Y-96015903D01*
X163924792Y-96077063D01*
X164113118Y-96093539D01*
X164160199Y-96097659D01*
X164160200Y-96097659D01*
X164160201Y-96097659D01*
X164199434Y-96094226D01*
X164395608Y-96077063D01*
X164623863Y-96015903D01*
X164838030Y-95916035D01*
X165031601Y-95780495D01*
X165198695Y-95613401D01*
X165328624Y-95427842D01*
X165383202Y-95384217D01*
X165452700Y-95377023D01*
X165515055Y-95408546D01*
X165531775Y-95427842D01*
X165661700Y-95613395D01*
X165661705Y-95613401D01*
X165828799Y-95780495D01*
X165925584Y-95848265D01*
X166022365Y-95916032D01*
X166022367Y-95916033D01*
X166022370Y-95916035D01*
X166236537Y-96015903D01*
X166464792Y-96077063D01*
X166653118Y-96093539D01*
X166700199Y-96097659D01*
X166700200Y-96097659D01*
X166700201Y-96097659D01*
X166739434Y-96094226D01*
X166935608Y-96077063D01*
X167163863Y-96015903D01*
X167378030Y-95916035D01*
X167571601Y-95780495D01*
X167738695Y-95613401D01*
X167868624Y-95427842D01*
X167923202Y-95384217D01*
X167992700Y-95377023D01*
X168055055Y-95408546D01*
X168071775Y-95427842D01*
X168201700Y-95613395D01*
X168201705Y-95613401D01*
X168368799Y-95780495D01*
X168465584Y-95848265D01*
X168562365Y-95916032D01*
X168562367Y-95916033D01*
X168562370Y-95916035D01*
X168776537Y-96015903D01*
X169004792Y-96077063D01*
X169193118Y-96093539D01*
X169240199Y-96097659D01*
X169240200Y-96097659D01*
X169240201Y-96097659D01*
X169279434Y-96094226D01*
X169475608Y-96077063D01*
X169703863Y-96015903D01*
X169918030Y-95916035D01*
X170111601Y-95780495D01*
X170278695Y-95613401D01*
X170408624Y-95427842D01*
X170463202Y-95384217D01*
X170532700Y-95377023D01*
X170595055Y-95408546D01*
X170611775Y-95427842D01*
X170741700Y-95613395D01*
X170741705Y-95613401D01*
X170908799Y-95780495D01*
X171005584Y-95848265D01*
X171102365Y-95916032D01*
X171102367Y-95916033D01*
X171102370Y-95916035D01*
X171316537Y-96015903D01*
X171544792Y-96077063D01*
X171733118Y-96093539D01*
X171780199Y-96097659D01*
X171780200Y-96097659D01*
X171780201Y-96097659D01*
X171819434Y-96094226D01*
X172015608Y-96077063D01*
X172243863Y-96015903D01*
X172458030Y-95916035D01*
X172651601Y-95780495D01*
X172818695Y-95613401D01*
X172954235Y-95419830D01*
X173054103Y-95205663D01*
X173115263Y-94977408D01*
X173135859Y-94742000D01*
X173115263Y-94506592D01*
X173054103Y-94278337D01*
X172954235Y-94064171D01*
X172948625Y-94056158D01*
X172818694Y-93870597D01*
X172651602Y-93703506D01*
X172651595Y-93703501D01*
X172637866Y-93693888D01*
X172583574Y-93655872D01*
X172458034Y-93567967D01*
X172458030Y-93567965D01*
X172422433Y-93551366D01*
X172243863Y-93468097D01*
X172243859Y-93468096D01*
X172243855Y-93468094D01*
X172015613Y-93406938D01*
X172015603Y-93406936D01*
X171780201Y-93386341D01*
X171780199Y-93386341D01*
X171544796Y-93406936D01*
X171544786Y-93406938D01*
X171316544Y-93468094D01*
X171316535Y-93468098D01*
X171102371Y-93567964D01*
X171102369Y-93567965D01*
X170908797Y-93703505D01*
X170741705Y-93870597D01*
X170611775Y-94056158D01*
X170557198Y-94099783D01*
X170487700Y-94106977D01*
X170425345Y-94075454D01*
X170408625Y-94056158D01*
X170278694Y-93870597D01*
X170111602Y-93703506D01*
X170111595Y-93703501D01*
X170097866Y-93693888D01*
X170043574Y-93655872D01*
X169918034Y-93567967D01*
X169918030Y-93567965D01*
X169882433Y-93551366D01*
X169703863Y-93468097D01*
X169703859Y-93468096D01*
X169703855Y-93468094D01*
X169475613Y-93406938D01*
X169475603Y-93406936D01*
X169240201Y-93386341D01*
X169240199Y-93386341D01*
X169004796Y-93406936D01*
X169004786Y-93406938D01*
X168776544Y-93468094D01*
X168776535Y-93468098D01*
X168562371Y-93567964D01*
X168562369Y-93567965D01*
X168368797Y-93703505D01*
X168201705Y-93870597D01*
X168071775Y-94056158D01*
X168017198Y-94099783D01*
X167947700Y-94106977D01*
X167885345Y-94075454D01*
X167868625Y-94056158D01*
X167738694Y-93870597D01*
X167571604Y-93703507D01*
X167503575Y-93655872D01*
X167459951Y-93601294D01*
X167450700Y-93554298D01*
X167450700Y-92136701D01*
X167973500Y-92136701D01*
X167973501Y-92136719D01*
X167984000Y-92239496D01*
X167984001Y-92239499D01*
X168024087Y-92360468D01*
X168039186Y-92406034D01*
X168131288Y-92555356D01*
X168255344Y-92679412D01*
X168404666Y-92771514D01*
X168571203Y-92826699D01*
X168673991Y-92837200D01*
X170924008Y-92837199D01*
X171026797Y-92826699D01*
X171193334Y-92771514D01*
X171342656Y-92679412D01*
X171342658Y-92679410D01*
X171347688Y-92675433D01*
X171412484Y-92649293D01*
X171424598Y-92648700D01*
X172219370Y-92648700D01*
X172286409Y-92668385D01*
X172307051Y-92685019D01*
X172362944Y-92740912D01*
X172512266Y-92833014D01*
X172678803Y-92888199D01*
X172781591Y-92898700D01*
X174131608Y-92898699D01*
X174234397Y-92888199D01*
X174400934Y-92833014D01*
X174550256Y-92740912D01*
X174674312Y-92616856D01*
X174766414Y-92467534D01*
X174821599Y-92300997D01*
X174832100Y-92198209D01*
X174832099Y-91348192D01*
X174825601Y-91284585D01*
X174821599Y-91245403D01*
X174821598Y-91245400D01*
X174812221Y-91217102D01*
X174766414Y-91078866D01*
X174674312Y-90929544D01*
X174550256Y-90805488D01*
X174421435Y-90726031D01*
X174400936Y-90713387D01*
X174400931Y-90713385D01*
X174394337Y-90711200D01*
X174234397Y-90658201D01*
X174234395Y-90658200D01*
X174131610Y-90647700D01*
X172781598Y-90647700D01*
X172781581Y-90647701D01*
X172678803Y-90658200D01*
X172678800Y-90658201D01*
X172512268Y-90713385D01*
X172512263Y-90713387D01*
X172362942Y-90805489D01*
X172307051Y-90861381D01*
X172245728Y-90894866D01*
X172219370Y-90897700D01*
X171422068Y-90897700D01*
X171355029Y-90878015D01*
X171345155Y-90870964D01*
X171342659Y-90868990D01*
X171315637Y-90852323D01*
X171239707Y-90805489D01*
X171193336Y-90776887D01*
X171193331Y-90776885D01*
X171151652Y-90763074D01*
X171026797Y-90721701D01*
X171026795Y-90721700D01*
X170924010Y-90711200D01*
X168673998Y-90711200D01*
X168673981Y-90711201D01*
X168571203Y-90721700D01*
X168571200Y-90721701D01*
X168404668Y-90776885D01*
X168404663Y-90776887D01*
X168255342Y-90868989D01*
X168131285Y-90993046D01*
X168122428Y-91007407D01*
X168098349Y-91029063D01*
X168095926Y-91048058D01*
X168087867Y-91063438D01*
X168039192Y-91142354D01*
X168039185Y-91142368D01*
X168017341Y-91208289D01*
X167984001Y-91308903D01*
X167984001Y-91308904D01*
X167984000Y-91308904D01*
X167973500Y-91411683D01*
X167973500Y-92136701D01*
X167450700Y-92136701D01*
X167450700Y-91421229D01*
X167470385Y-91354190D01*
X167487015Y-91333552D01*
X167743042Y-91077524D01*
X167756671Y-91065747D01*
X167775930Y-91051410D01*
X167809501Y-91011401D01*
X167813161Y-91007406D01*
X167818990Y-91001578D01*
X167825738Y-90993044D01*
X167839340Y-90975840D01*
X167887340Y-90918636D01*
X167897332Y-90911988D01*
X167897288Y-90909579D01*
X167904509Y-90889903D01*
X167932975Y-90828858D01*
X167961787Y-90771489D01*
X167967440Y-90760233D01*
X167967442Y-90760221D01*
X167969909Y-90753446D01*
X167969967Y-90753467D01*
X167972443Y-90746346D01*
X167972386Y-90746328D01*
X167974657Y-90739473D01*
X167990192Y-90664234D01*
X167993329Y-90650997D01*
X168007900Y-90589521D01*
X168007900Y-90589510D01*
X168008738Y-90582348D01*
X168008798Y-90582355D01*
X168009564Y-90574855D01*
X168009505Y-90574850D01*
X168010134Y-90567660D01*
X168007900Y-90490882D01*
X168007900Y-89806330D01*
X168027585Y-89739291D01*
X168080389Y-89693536D01*
X168149547Y-89683592D01*
X168213103Y-89712617D01*
X168219581Y-89718649D01*
X168255344Y-89754412D01*
X168404666Y-89846514D01*
X168571203Y-89901699D01*
X168673991Y-89912200D01*
X170924008Y-89912199D01*
X171026797Y-89901699D01*
X171193334Y-89846514D01*
X171342656Y-89754412D01*
X171466712Y-89630356D01*
X171558814Y-89481034D01*
X171613999Y-89314497D01*
X171624500Y-89211709D01*
X171624499Y-88486692D01*
X171613999Y-88383903D01*
X171558814Y-88217366D01*
X171466712Y-88068044D01*
X171342656Y-87943988D01*
X171202760Y-87857700D01*
X171193336Y-87851887D01*
X171193331Y-87851885D01*
X171191862Y-87851398D01*
X171026797Y-87796701D01*
X171026795Y-87796700D01*
X170924016Y-87786200D01*
X170924009Y-87786200D01*
X170798500Y-87786200D01*
X170731461Y-87766515D01*
X170685706Y-87713711D01*
X170674500Y-87662200D01*
X170674500Y-86941956D01*
X170688246Y-86888096D01*
X170688096Y-86888040D01*
X170688618Y-86886639D01*
X170689667Y-86882531D01*
X170691193Y-86879735D01*
X170691192Y-86879735D01*
X170691196Y-86879731D01*
X170741491Y-86744883D01*
X170747900Y-86685273D01*
X170747899Y-85135270D01*
X171581900Y-85135270D01*
X171581901Y-85135276D01*
X171588308Y-85194883D01*
X171638602Y-85329728D01*
X171638606Y-85329735D01*
X171724852Y-85444944D01*
X171724855Y-85444947D01*
X171840064Y-85531193D01*
X171840071Y-85531197D01*
X171974917Y-85581491D01*
X171974916Y-85581491D01*
X171981844Y-85582235D01*
X172034527Y-85587900D01*
X173630272Y-85587899D01*
X173689883Y-85581491D01*
X173824731Y-85531196D01*
X173939946Y-85444946D01*
X174026196Y-85329731D01*
X174076491Y-85194883D01*
X174082900Y-85135273D01*
X174082899Y-84139528D01*
X174076491Y-84079917D01*
X174075029Y-84075998D01*
X174063741Y-84045732D01*
X174058757Y-83976040D01*
X174063740Y-83959067D01*
X174076491Y-83924883D01*
X174082900Y-83865273D01*
X174082899Y-82869528D01*
X174076491Y-82809917D01*
X174063740Y-82775732D01*
X174058757Y-82706042D01*
X174063740Y-82689069D01*
X174076491Y-82654883D01*
X174082900Y-82595273D01*
X174082899Y-81599528D01*
X174076491Y-81539917D01*
X174063740Y-81505732D01*
X174058757Y-81436042D01*
X174063740Y-81419069D01*
X174076491Y-81384883D01*
X174082900Y-81325273D01*
X174082899Y-80329528D01*
X174076491Y-80269917D01*
X174074255Y-80263923D01*
X174063741Y-80235732D01*
X174058757Y-80166040D01*
X174063740Y-80149067D01*
X174076491Y-80114883D01*
X174082900Y-80055273D01*
X174082899Y-79059528D01*
X174076491Y-78999917D01*
X174063740Y-78965732D01*
X174058757Y-78896042D01*
X174063740Y-78879069D01*
X174076491Y-78844883D01*
X174082900Y-78785273D01*
X174082899Y-77789528D01*
X174076491Y-77729917D01*
X174063740Y-77695732D01*
X174058757Y-77626042D01*
X174063741Y-77609067D01*
X174076491Y-77574883D01*
X174082900Y-77515273D01*
X174082899Y-76519528D01*
X174076491Y-76459917D01*
X174063740Y-76425732D01*
X174058757Y-76356042D01*
X174063740Y-76339069D01*
X174076491Y-76304883D01*
X174082900Y-76245273D01*
X174082899Y-75476899D01*
X174102583Y-75409861D01*
X174155387Y-75364106D01*
X174206899Y-75352900D01*
X190626548Y-75352900D01*
X190652328Y-75355609D01*
X190735554Y-75373300D01*
X190735555Y-75373300D01*
X190924844Y-75373300D01*
X190924846Y-75373300D01*
X191110003Y-75333944D01*
X191282930Y-75256951D01*
X191436071Y-75145688D01*
X191562733Y-75005016D01*
X191657379Y-74841084D01*
X191715874Y-74661056D01*
X191735660Y-74472800D01*
X191715874Y-74284544D01*
X191657379Y-74104516D01*
X191562733Y-73940584D01*
X191436071Y-73799912D01*
X191387858Y-73764883D01*
X191282934Y-73688651D01*
X191282929Y-73688648D01*
X191110007Y-73611657D01*
X191110002Y-73611655D01*
X190964201Y-73580665D01*
X190924846Y-73572300D01*
X190735554Y-73572300D01*
X190609046Y-73599190D01*
X190583265Y-73601900D01*
X176908238Y-73601900D01*
X176841199Y-73582215D01*
X176795444Y-73529411D01*
X176785500Y-73460253D01*
X176790307Y-73439582D01*
X176795625Y-73423215D01*
X176806074Y-73391056D01*
X176825860Y-73202800D01*
X176806074Y-73014544D01*
X176747579Y-72834516D01*
X176675417Y-72709527D01*
X176652935Y-72670587D01*
X176651986Y-72669281D01*
X176651670Y-72668396D01*
X176649684Y-72664956D01*
X176650313Y-72664592D01*
X176628503Y-72603475D01*
X176644324Y-72535421D01*
X176660143Y-72513426D01*
X176703733Y-72465016D01*
X176798379Y-72301084D01*
X176856874Y-72121056D01*
X176876660Y-71932800D01*
X176856874Y-71744544D01*
X176798379Y-71564516D01*
X176703733Y-71400584D01*
X176577071Y-71259912D01*
X176575907Y-71259066D01*
X176423934Y-71148651D01*
X176423929Y-71148648D01*
X176251007Y-71071657D01*
X176251002Y-71071655D01*
X176105200Y-71040665D01*
X176065846Y-71032300D01*
X175876554Y-71032300D01*
X175844097Y-71039198D01*
X175691397Y-71071655D01*
X175691392Y-71071657D01*
X175518470Y-71148648D01*
X175503869Y-71159256D01*
X175498416Y-71163218D01*
X175432612Y-71186698D01*
X175425532Y-71186900D01*
X174206900Y-71186900D01*
X174139861Y-71167215D01*
X174094106Y-71114411D01*
X174082900Y-71062900D01*
X174082899Y-70169529D01*
X174082898Y-70169523D01*
X174082897Y-70169516D01*
X174076491Y-70109917D01*
X174063740Y-70075732D01*
X174058757Y-70006042D01*
X174063741Y-69989067D01*
X174076491Y-69954883D01*
X174082900Y-69895273D01*
X174082899Y-68899528D01*
X174076491Y-68839917D01*
X174063269Y-68804468D01*
X174026197Y-68705071D01*
X174026193Y-68705064D01*
X173939947Y-68589855D01*
X173939944Y-68589852D01*
X173824735Y-68503606D01*
X173824728Y-68503602D01*
X173689882Y-68453308D01*
X173689883Y-68453308D01*
X173630283Y-68446901D01*
X173630281Y-68446900D01*
X173630273Y-68446900D01*
X173630264Y-68446900D01*
X172034529Y-68446900D01*
X172034523Y-68446901D01*
X171974916Y-68453308D01*
X171840071Y-68503602D01*
X171840064Y-68503606D01*
X171724855Y-68589852D01*
X171724852Y-68589855D01*
X171638606Y-68705064D01*
X171638602Y-68705071D01*
X171588308Y-68839917D01*
X171581901Y-68899516D01*
X171581901Y-68899523D01*
X171581900Y-68899535D01*
X171581900Y-69895270D01*
X171581901Y-69895276D01*
X171588308Y-69954883D01*
X171601058Y-69989067D01*
X171606042Y-70058759D01*
X171601059Y-70075729D01*
X171588309Y-70109916D01*
X171588308Y-70109917D01*
X171581901Y-70169516D01*
X171581901Y-70169523D01*
X171581900Y-70169535D01*
X171581900Y-71165270D01*
X171581901Y-71165276D01*
X171588308Y-71224881D01*
X171601059Y-71259069D01*
X171606042Y-71328761D01*
X171601059Y-71345731D01*
X171588308Y-71379918D01*
X171581901Y-71439516D01*
X171581901Y-71439523D01*
X171581900Y-71439535D01*
X171581900Y-72435270D01*
X171581901Y-72435276D01*
X171588308Y-72494881D01*
X171601059Y-72529069D01*
X171606042Y-72598761D01*
X171601059Y-72615731D01*
X171588308Y-72649918D01*
X171583638Y-72693358D01*
X171581901Y-72709523D01*
X171581900Y-72709535D01*
X171581900Y-73705270D01*
X171581901Y-73705276D01*
X171588308Y-73764883D01*
X171601058Y-73799067D01*
X171606042Y-73868759D01*
X171601059Y-73885729D01*
X171588309Y-73919916D01*
X171588308Y-73919917D01*
X171581901Y-73979516D01*
X171581901Y-73979523D01*
X171581900Y-73979535D01*
X171581900Y-74975270D01*
X171581901Y-74975276D01*
X171588308Y-75034881D01*
X171601059Y-75069069D01*
X171606042Y-75138761D01*
X171601059Y-75155731D01*
X171588308Y-75189918D01*
X171584225Y-75227900D01*
X171581901Y-75249523D01*
X171581900Y-75249535D01*
X171581900Y-76245270D01*
X171581901Y-76245276D01*
X171588308Y-76304881D01*
X171601059Y-76339069D01*
X171606042Y-76408761D01*
X171601059Y-76425731D01*
X171588308Y-76459918D01*
X171583562Y-76504066D01*
X171581901Y-76519523D01*
X171581900Y-76519535D01*
X171581900Y-77515270D01*
X171581901Y-77515276D01*
X171588308Y-77574883D01*
X171601058Y-77609067D01*
X171606042Y-77678759D01*
X171601059Y-77695729D01*
X171588309Y-77729916D01*
X171588308Y-77729917D01*
X171586214Y-77749399D01*
X171581901Y-77789523D01*
X171581900Y-77789535D01*
X171581900Y-78785270D01*
X171581901Y-78785276D01*
X171588308Y-78844881D01*
X171601059Y-78879069D01*
X171606042Y-78948761D01*
X171601059Y-78965731D01*
X171588308Y-78999918D01*
X171582109Y-79057585D01*
X171581901Y-79059523D01*
X171581900Y-79059535D01*
X171581900Y-80055270D01*
X171581901Y-80055276D01*
X171588308Y-80114883D01*
X171601058Y-80149067D01*
X171606042Y-80218759D01*
X171601059Y-80235729D01*
X171588309Y-80269916D01*
X171588308Y-80269917D01*
X171581901Y-80329516D01*
X171581901Y-80329523D01*
X171581900Y-80329535D01*
X171581900Y-81325270D01*
X171581901Y-81325276D01*
X171588308Y-81384881D01*
X171601059Y-81419069D01*
X171606042Y-81488761D01*
X171601059Y-81505731D01*
X171588308Y-81539918D01*
X171582798Y-81591173D01*
X171581901Y-81599523D01*
X171581900Y-81599535D01*
X171581900Y-82595270D01*
X171581901Y-82595276D01*
X171588308Y-82654881D01*
X171601059Y-82689069D01*
X171606042Y-82758761D01*
X171601059Y-82775731D01*
X171588308Y-82809918D01*
X171581901Y-82869516D01*
X171581901Y-82869523D01*
X171581900Y-82869535D01*
X171581900Y-83865270D01*
X171581901Y-83865276D01*
X171588308Y-83924883D01*
X171601058Y-83959067D01*
X171606042Y-84028759D01*
X171601059Y-84045729D01*
X171588309Y-84079916D01*
X171588308Y-84079917D01*
X171582478Y-84134148D01*
X171581901Y-84139523D01*
X171581900Y-84139535D01*
X171581900Y-85135270D01*
X170747899Y-85135270D01*
X170747899Y-85089528D01*
X170741491Y-85029917D01*
X170691196Y-84895069D01*
X170691195Y-84895068D01*
X170691193Y-84895064D01*
X170604947Y-84779855D01*
X170604944Y-84779852D01*
X170489735Y-84693606D01*
X170489728Y-84693602D01*
X170354882Y-84643308D01*
X170354883Y-84643308D01*
X170295283Y-84636901D01*
X170295281Y-84636900D01*
X170295273Y-84636900D01*
X170295264Y-84636900D01*
X169299529Y-84636900D01*
X169299523Y-84636901D01*
X169239918Y-84643308D01*
X169205731Y-84656059D01*
X169136039Y-84661042D01*
X169119069Y-84656059D01*
X169084880Y-84643308D01*
X169084882Y-84643308D01*
X169025283Y-84636901D01*
X169025281Y-84636900D01*
X169025273Y-84636900D01*
X169025264Y-84636900D01*
X168029529Y-84636900D01*
X168029523Y-84636901D01*
X167969918Y-84643308D01*
X167935731Y-84656059D01*
X167866039Y-84661042D01*
X167849069Y-84656059D01*
X167814880Y-84643308D01*
X167814882Y-84643308D01*
X167755283Y-84636901D01*
X167755281Y-84636900D01*
X167755273Y-84636900D01*
X167755264Y-84636900D01*
X166759529Y-84636900D01*
X166759523Y-84636901D01*
X166699918Y-84643308D01*
X166665731Y-84656059D01*
X166596039Y-84661042D01*
X166579069Y-84656059D01*
X166544880Y-84643308D01*
X166544882Y-84643308D01*
X166485283Y-84636901D01*
X166485281Y-84636900D01*
X166485273Y-84636900D01*
X166485264Y-84636900D01*
X165489529Y-84636900D01*
X165489523Y-84636901D01*
X165429918Y-84643308D01*
X165395731Y-84656059D01*
X165326039Y-84661042D01*
X165309069Y-84656059D01*
X165274880Y-84643308D01*
X165274882Y-84643308D01*
X165215283Y-84636901D01*
X165215281Y-84636900D01*
X165215273Y-84636900D01*
X165215264Y-84636900D01*
X164219529Y-84636900D01*
X164219523Y-84636901D01*
X164159918Y-84643308D01*
X164125731Y-84656059D01*
X164056039Y-84661042D01*
X164039069Y-84656059D01*
X164004880Y-84643308D01*
X164004882Y-84643308D01*
X163945283Y-84636901D01*
X163945281Y-84636900D01*
X163945273Y-84636900D01*
X163945264Y-84636900D01*
X162949529Y-84636900D01*
X162949523Y-84636901D01*
X162889918Y-84643308D01*
X162855731Y-84656059D01*
X162786039Y-84661042D01*
X162769069Y-84656059D01*
X162734880Y-84643308D01*
X162734882Y-84643308D01*
X162675283Y-84636901D01*
X162675281Y-84636900D01*
X162675273Y-84636900D01*
X162675264Y-84636900D01*
X161679529Y-84636900D01*
X161679523Y-84636901D01*
X161619918Y-84643308D01*
X161585731Y-84656059D01*
X161516039Y-84661042D01*
X161499069Y-84656059D01*
X161464880Y-84643308D01*
X161464882Y-84643308D01*
X161405283Y-84636901D01*
X161405281Y-84636900D01*
X161405273Y-84636900D01*
X161405264Y-84636900D01*
X160409529Y-84636900D01*
X160409523Y-84636901D01*
X160349918Y-84643308D01*
X160315731Y-84656059D01*
X160246039Y-84661042D01*
X160229069Y-84656059D01*
X160194880Y-84643308D01*
X160194882Y-84643308D01*
X160135283Y-84636901D01*
X160135281Y-84636900D01*
X160135273Y-84636900D01*
X160135264Y-84636900D01*
X159139529Y-84636900D01*
X159139523Y-84636901D01*
X159079916Y-84643308D01*
X158945071Y-84693602D01*
X158945064Y-84693606D01*
X158829855Y-84779852D01*
X158829852Y-84779855D01*
X158743606Y-84895064D01*
X158743602Y-84895071D01*
X158693308Y-85029917D01*
X158690239Y-85058469D01*
X158686901Y-85089523D01*
X158686900Y-85089535D01*
X158686900Y-86685270D01*
X158686901Y-86685276D01*
X158693308Y-86744883D01*
X158743602Y-86879728D01*
X158743603Y-86879729D01*
X158743604Y-86879731D01*
X158827721Y-86992097D01*
X158829854Y-86994946D01*
X158837208Y-87000451D01*
X158879081Y-87056383D01*
X158886900Y-87099720D01*
X158886900Y-88310769D01*
X158867215Y-88377808D01*
X158850581Y-88398450D01*
X156664158Y-90584872D01*
X156650529Y-90596651D01*
X156631268Y-90610990D01*
X156597698Y-90650997D01*
X156594053Y-90654976D01*
X156588209Y-90660822D01*
X156567859Y-90686559D01*
X156518495Y-90745389D01*
X156514529Y-90751419D01*
X156514482Y-90751388D01*
X156510430Y-90757747D01*
X156510479Y-90757777D01*
X156506689Y-90763921D01*
X156474224Y-90833541D01*
X156439760Y-90902166D01*
X156437288Y-90908957D01*
X156437232Y-90908936D01*
X156434760Y-90916050D01*
X156434815Y-90916069D01*
X156432544Y-90922922D01*
X156432542Y-90922927D01*
X156432543Y-90922927D01*
X156417007Y-90998165D01*
X156407585Y-91037921D01*
X156399298Y-91072886D01*
X156398461Y-91080054D01*
X156398401Y-91080047D01*
X156397635Y-91087545D01*
X156397695Y-91087551D01*
X156397065Y-91094740D01*
X156399300Y-91171516D01*
X156399300Y-97015094D01*
X156397991Y-97033063D01*
X156394510Y-97056825D01*
X154525700Y-97056825D01*
X154525700Y-95978644D01*
X154538700Y-95923371D01*
X154542353Y-95916035D01*
X154560464Y-95879664D01*
X154616532Y-95682605D01*
X154635436Y-95478600D01*
X154616532Y-95274595D01*
X154560464Y-95077536D01*
X154469142Y-94894136D01*
X154361747Y-94751923D01*
X154345672Y-94730636D01*
X154194268Y-94592614D01*
X154194267Y-94592613D01*
X154055346Y-94506596D01*
X154020077Y-94484758D01*
X154020075Y-94484757D01*
X153829031Y-94410747D01*
X153627640Y-94373100D01*
X153422760Y-94373100D01*
X153221369Y-94410747D01*
X153221366Y-94410747D01*
X153221366Y-94410748D01*
X153030322Y-94484758D01*
X152856131Y-94592614D01*
X152704727Y-94730636D01*
X152581258Y-94894135D01*
X152489937Y-95077532D01*
X152475008Y-95130001D01*
X152450450Y-95216317D01*
X152433867Y-95274599D01*
X152414964Y-95478599D01*
X152414964Y-95478600D01*
X146690699Y-95478600D01*
X146690699Y-94825728D01*
X146684291Y-94766117D01*
X146674114Y-94738832D01*
X146633997Y-94631271D01*
X146633993Y-94631264D01*
X146547747Y-94516055D01*
X146547744Y-94516052D01*
X146432535Y-94429806D01*
X146432528Y-94429802D01*
X146297682Y-94379508D01*
X146297683Y-94379508D01*
X146238083Y-94373101D01*
X146238081Y-94373100D01*
X146238073Y-94373100D01*
X146238064Y-94373100D01*
X144932329Y-94373100D01*
X144932323Y-94373101D01*
X144872716Y-94379508D01*
X144737871Y-94429802D01*
X144737864Y-94429806D01*
X144622655Y-94516052D01*
X144622652Y-94516055D01*
X144536406Y-94631264D01*
X144536402Y-94631271D01*
X144486108Y-94766117D01*
X144481557Y-94808453D01*
X144479701Y-94825723D01*
X144479700Y-94825735D01*
X144479700Y-96131470D01*
X143896900Y-96131470D01*
X143896900Y-95704696D01*
X143897289Y-95697758D01*
X143901637Y-95659172D01*
X143900951Y-95649002D01*
X143898551Y-95613395D01*
X143897039Y-95590976D01*
X143896900Y-95586821D01*
X143896900Y-95574850D01*
X143896900Y-95574845D01*
X143893121Y-95532859D01*
X143890118Y-95488311D01*
X143886497Y-95434592D01*
X143885428Y-95430350D01*
X143882168Y-95411158D01*
X143881933Y-95408546D01*
X143881777Y-95406812D01*
X143855567Y-95311844D01*
X143831496Y-95216316D01*
X143829690Y-95212340D01*
X143823054Y-95194039D01*
X143821893Y-95189830D01*
X143793081Y-95130002D01*
X143779149Y-95101071D01*
X143770785Y-95082657D01*
X143738407Y-95011374D01*
X143735917Y-95007780D01*
X143726125Y-94990964D01*
X143724229Y-94987027D01*
X143724225Y-94987020D01*
X143671865Y-94914955D01*
X143666329Y-94907335D01*
X143610220Y-94826345D01*
X143607125Y-94823250D01*
X143594487Y-94808453D01*
X143591921Y-94804921D01*
X143591919Y-94804919D01*
X143520743Y-94736868D01*
X137303819Y-88519944D01*
X137270334Y-88458621D01*
X137267500Y-88432263D01*
X137267500Y-83919096D01*
X137267889Y-83912158D01*
X137272237Y-83873572D01*
X137271970Y-83869616D01*
X137270518Y-83848086D01*
X137267639Y-83805376D01*
X137267500Y-83801221D01*
X137267500Y-83789250D01*
X137267500Y-83789245D01*
X137263721Y-83747259D01*
X137262037Y-83722274D01*
X137257097Y-83648992D01*
X137256028Y-83644750D01*
X137252768Y-83625558D01*
X137252726Y-83625099D01*
X137252377Y-83621212D01*
X137226167Y-83526244D01*
X137202096Y-83430716D01*
X137200290Y-83426740D01*
X137193654Y-83408439D01*
X137193607Y-83408267D01*
X137192493Y-83404230D01*
X137179596Y-83377450D01*
X137149749Y-83315471D01*
X137109012Y-83225783D01*
X137109009Y-83225778D01*
X137109007Y-83225774D01*
X137106516Y-83222180D01*
X137096726Y-83205367D01*
X137094829Y-83201427D01*
X137056843Y-83149144D01*
X137036917Y-83121717D01*
X136980825Y-83040753D01*
X136980822Y-83040749D01*
X136980819Y-83040745D01*
X136977729Y-83037655D01*
X136965093Y-83022861D01*
X136962521Y-83019321D01*
X136962519Y-83019319D01*
X136891320Y-82951246D01*
X135429356Y-81489282D01*
X135424719Y-81484093D01*
X135400507Y-81453732D01*
X135349031Y-81408759D01*
X135345997Y-81405923D01*
X135337529Y-81397455D01*
X135311832Y-81376002D01*
X135305181Y-81370449D01*
X135231002Y-81305640D01*
X135230997Y-81305636D01*
X135230996Y-81305635D01*
X135227241Y-81303391D01*
X135211373Y-81292132D01*
X135208019Y-81289332D01*
X135208018Y-81289331D01*
X135208013Y-81289327D01*
X135140614Y-81251085D01*
X135122340Y-81240716D01*
X135066540Y-81207377D01*
X135037761Y-81190183D01*
X135033669Y-81188648D01*
X135016044Y-81180402D01*
X135012245Y-81178246D01*
X134919253Y-81145707D01*
X134827029Y-81111094D01*
X134827019Y-81111091D01*
X134822723Y-81110312D01*
X134803918Y-81105349D01*
X134799784Y-81103902D01*
X134799779Y-81103901D01*
X134702472Y-81088489D01*
X134605550Y-81070900D01*
X134605547Y-81070900D01*
X134601172Y-81070900D01*
X134581769Y-81069372D01*
X134577460Y-81068689D01*
X134478978Y-81070900D01*
X131879632Y-81070900D01*
X131820614Y-81055954D01*
X131780913Y-81034469D01*
X131780907Y-81034466D01*
X131780903Y-81034464D01*
X131780900Y-81034463D01*
X131780898Y-81034462D01*
X131561384Y-80959102D01*
X131389682Y-80930450D01*
X131332449Y-80920900D01*
X131100351Y-80920900D01*
X131054564Y-80928540D01*
X130871415Y-80959102D01*
X130651904Y-81034461D01*
X130651895Y-81034464D01*
X130447771Y-81144931D01*
X130447765Y-81144935D01*
X130264622Y-81287481D01*
X130264619Y-81287484D01*
X130264616Y-81287486D01*
X130264616Y-81287487D01*
X130220239Y-81335694D01*
X130107416Y-81458252D01*
X130050209Y-81545816D01*
X129997062Y-81591173D01*
X129927831Y-81600597D01*
X129864495Y-81571095D01*
X129842591Y-81545816D01*
X129785378Y-81458245D01*
X129709669Y-81376002D01*
X129678747Y-81313347D01*
X129676899Y-81292020D01*
X129676900Y-80082766D01*
X129676900Y-78854298D01*
X129678649Y-78785270D01*
X129679157Y-78765241D01*
X129679156Y-78765240D01*
X129679157Y-78765237D01*
X129668333Y-78704849D01*
X129667680Y-78700187D01*
X129661474Y-78639163D01*
X129661235Y-78638400D01*
X129651184Y-78606368D01*
X129649317Y-78598755D01*
X129646242Y-78581599D01*
X129643258Y-78564947D01*
X129620500Y-78507974D01*
X129618921Y-78503538D01*
X129618190Y-78501209D01*
X129600559Y-78445012D01*
X129600558Y-78445010D01*
X129600557Y-78445007D01*
X129583888Y-78414978D01*
X129580517Y-78407878D01*
X129567778Y-78375986D01*
X129567777Y-78375983D01*
X129534020Y-78324763D01*
X129531580Y-78320734D01*
X129509866Y-78281614D01*
X129501809Y-78267098D01*
X129501807Y-78267095D01*
X129479433Y-78241034D01*
X129474702Y-78234759D01*
X129455802Y-78206081D01*
X129412412Y-78162691D01*
X129409222Y-78159248D01*
X129369267Y-78112706D01*
X129369263Y-78112702D01*
X129342098Y-78091674D01*
X129336203Y-78086482D01*
X127579618Y-76329897D01*
X127546133Y-76268574D01*
X127543300Y-76242225D01*
X127543300Y-71094658D01*
X127543300Y-71094657D01*
X127543300Y-66515571D01*
X135824462Y-66515571D01*
X135826507Y-66531624D01*
X135828803Y-66549657D01*
X135829300Y-66557485D01*
X135829300Y-71081883D01*
X135827043Y-71170962D01*
X135827043Y-71170970D01*
X135837864Y-71231339D01*
X135838518Y-71236004D01*
X135844725Y-71297030D01*
X135844727Y-71297044D01*
X135855008Y-71329813D01*
X135856879Y-71337437D01*
X135862942Y-71371252D01*
X135862942Y-71371255D01*
X135885694Y-71428212D01*
X135887274Y-71432651D01*
X135905641Y-71491188D01*
X135905644Y-71491195D01*
X135922309Y-71521219D01*
X135925679Y-71528314D01*
X135938422Y-71560214D01*
X135938427Y-71560224D01*
X135972177Y-71611433D01*
X135974618Y-71615463D01*
X136004388Y-71669098D01*
X136004389Y-71669099D01*
X136004391Y-71669102D01*
X136026768Y-71695167D01*
X136031493Y-71701435D01*
X136042749Y-71718513D01*
X136050398Y-71730119D01*
X136093778Y-71773499D01*
X136096969Y-71776943D01*
X136136931Y-71823492D01*
X136136930Y-71823492D01*
X136164099Y-71844523D01*
X136169986Y-71849707D01*
X137180148Y-72859868D01*
X137241541Y-72924453D01*
X137241544Y-72924455D01*
X137241547Y-72924458D01*
X137275653Y-72948195D01*
X137291903Y-72959506D01*
X137295644Y-72962326D01*
X137343193Y-73001098D01*
X137373645Y-73017004D01*
X137380358Y-73021072D01*
X137408551Y-73040695D01*
X137464929Y-73064889D01*
X137469178Y-73066907D01*
X137523551Y-73095309D01*
X137551089Y-73103188D01*
X137556574Y-73104758D01*
X137563968Y-73107390D01*
X137595542Y-73120940D01*
X137595545Y-73120940D01*
X137595546Y-73120941D01*
X137655622Y-73133287D01*
X137660200Y-73134410D01*
X137674101Y-73138387D01*
X137719182Y-73151287D01*
X137753439Y-73153895D01*
X137761214Y-73154986D01*
X137794855Y-73161900D01*
X137794859Y-73161900D01*
X137856198Y-73161900D01*
X137860904Y-73162078D01*
X137895662Y-73164725D01*
X137922075Y-73166737D01*
X137922075Y-73166736D01*
X137922076Y-73166737D01*
X137956159Y-73162396D01*
X137963989Y-73161900D01*
X139625851Y-73161900D01*
X139692890Y-73181585D01*
X139738645Y-73234389D01*
X139748589Y-73303547D01*
X139719564Y-73367103D01*
X139676289Y-73399178D01*
X139665515Y-73403975D01*
X139653667Y-73409250D01*
X139653665Y-73409251D01*
X139500529Y-73520511D01*
X139373866Y-73661185D01*
X139279221Y-73825115D01*
X139279218Y-73825122D01*
X139229047Y-73979535D01*
X139220726Y-74005144D01*
X139200940Y-74193400D01*
X139220726Y-74381656D01*
X139220727Y-74381659D01*
X139279218Y-74561677D01*
X139279221Y-74561684D01*
X139373867Y-74725616D01*
X139477829Y-74841077D01*
X139500529Y-74866288D01*
X139658927Y-74981371D01*
X139657376Y-74983505D01*
X139697498Y-75025599D01*
X139710709Y-75094208D01*
X139684730Y-75159068D01*
X139658034Y-75182200D01*
X139658927Y-75183429D01*
X139500529Y-75298511D01*
X139373866Y-75439185D01*
X139279221Y-75603115D01*
X139279218Y-75603122D01*
X139237966Y-75730084D01*
X139220726Y-75783144D01*
X139203977Y-75942501D01*
X139203691Y-75945230D01*
X139200940Y-75971400D01*
X139220726Y-76159656D01*
X139220727Y-76159659D01*
X139279218Y-76339677D01*
X139279221Y-76339684D01*
X139373867Y-76503616D01*
X139452307Y-76590732D01*
X139500529Y-76644288D01*
X139658927Y-76759371D01*
X139657376Y-76761505D01*
X139697498Y-76803599D01*
X139710709Y-76872208D01*
X139684730Y-76937068D01*
X139658034Y-76960200D01*
X139658927Y-76961429D01*
X139500529Y-77076511D01*
X139373866Y-77217185D01*
X139279221Y-77381115D01*
X139279218Y-77381122D01*
X139235627Y-77515283D01*
X139220726Y-77561144D01*
X139200940Y-77749400D01*
X139220726Y-77937656D01*
X139220727Y-77937659D01*
X139279218Y-78117677D01*
X139279221Y-78117684D01*
X139373867Y-78281616D01*
X139464644Y-78382434D01*
X139500529Y-78422288D01*
X139658927Y-78537371D01*
X139657376Y-78539505D01*
X139697498Y-78581599D01*
X139710709Y-78650208D01*
X139684730Y-78715068D01*
X139658034Y-78738200D01*
X139658927Y-78739429D01*
X139500529Y-78854511D01*
X139373866Y-78995185D01*
X139279221Y-79159115D01*
X139279218Y-79159122D01*
X139239610Y-79281024D01*
X139220726Y-79339144D01*
X139200940Y-79527400D01*
X139220726Y-79715656D01*
X139220727Y-79715659D01*
X139279218Y-79895677D01*
X139279221Y-79895684D01*
X139373867Y-80059616D01*
X139493427Y-80192400D01*
X139500529Y-80200288D01*
X139653665Y-80311548D01*
X139653670Y-80311551D01*
X139826592Y-80388542D01*
X139826597Y-80388544D01*
X139984514Y-80422110D01*
X140045996Y-80455302D01*
X140079772Y-80516465D01*
X140075120Y-80586180D01*
X140033515Y-80642312D01*
X139984514Y-80664690D01*
X139826597Y-80698255D01*
X139826592Y-80698257D01*
X139653670Y-80775248D01*
X139653665Y-80775251D01*
X139500529Y-80886511D01*
X139373866Y-81027185D01*
X139279221Y-81191115D01*
X139279218Y-81191122D01*
X139220952Y-81370449D01*
X139220726Y-81371144D01*
X139200940Y-81559400D01*
X139220726Y-81747656D01*
X139220727Y-81747659D01*
X139279218Y-81927677D01*
X139279221Y-81927684D01*
X139373867Y-82091616D01*
X139428338Y-82152112D01*
X139500529Y-82232288D01*
X139658927Y-82347371D01*
X139657376Y-82349505D01*
X139697498Y-82391599D01*
X139710709Y-82460208D01*
X139684730Y-82525068D01*
X139658034Y-82548200D01*
X139658927Y-82549429D01*
X139500529Y-82664511D01*
X139373866Y-82805185D01*
X139279221Y-82969115D01*
X139279218Y-82969122D01*
X139229637Y-83121718D01*
X139220726Y-83149144D01*
X139200940Y-83337400D01*
X139220726Y-83525656D01*
X139220727Y-83525659D01*
X139279218Y-83705677D01*
X139279221Y-83705684D01*
X139373867Y-83869616D01*
X139460079Y-83965364D01*
X139500529Y-84010288D01*
X139653665Y-84121548D01*
X139653670Y-84121551D01*
X139826592Y-84198542D01*
X139826597Y-84198544D01*
X140011754Y-84237900D01*
X140011755Y-84237900D01*
X140201044Y-84237900D01*
X140201046Y-84237900D01*
X140386203Y-84198544D01*
X140559130Y-84121551D01*
X140561176Y-84120064D01*
X140572852Y-84111582D01*
X140638658Y-84088102D01*
X140645737Y-84087900D01*
X144767095Y-84087900D01*
X144785065Y-84089209D01*
X144808823Y-84092689D01*
X144860868Y-84088135D01*
X144866270Y-84087900D01*
X144874504Y-84087900D01*
X144874509Y-84087900D01*
X144886127Y-84086541D01*
X144907076Y-84084093D01*
X144919828Y-84082977D01*
X144983597Y-84077399D01*
X144983605Y-84077396D01*
X144990666Y-84075939D01*
X144990678Y-84075998D01*
X144998043Y-84074365D01*
X144998029Y-84074306D01*
X145005046Y-84072641D01*
X145005055Y-84072641D01*
X145077223Y-84046374D01*
X145150134Y-84022214D01*
X145150143Y-84022207D01*
X145156682Y-84019160D01*
X145156708Y-84019216D01*
X145163490Y-84015932D01*
X145163463Y-84015878D01*
X145169906Y-84012640D01*
X145169917Y-84012637D01*
X145234083Y-83970434D01*
X145299456Y-83930112D01*
X145299462Y-83930105D01*
X145305125Y-83925629D01*
X145305162Y-83925677D01*
X145311004Y-83920918D01*
X145310964Y-83920871D01*
X145316491Y-83916232D01*
X145316496Y-83916230D01*
X145349598Y-83881144D01*
X145369186Y-83860381D01*
X150155348Y-79074219D01*
X150216671Y-79040734D01*
X150243029Y-79037900D01*
X153957900Y-79037900D01*
X154024939Y-79057585D01*
X154070694Y-79110389D01*
X154081900Y-79161900D01*
X154081900Y-80055270D01*
X154081901Y-80055276D01*
X154088308Y-80114883D01*
X154101058Y-80149067D01*
X154106042Y-80218759D01*
X154101059Y-80235729D01*
X154088309Y-80269916D01*
X154088308Y-80269917D01*
X154081901Y-80329516D01*
X154081900Y-80329527D01*
X154081900Y-80808900D01*
X154081901Y-81222900D01*
X154062217Y-81289939D01*
X154009413Y-81335694D01*
X153957901Y-81346900D01*
X153602105Y-81346900D01*
X153584135Y-81345591D01*
X153560372Y-81342110D01*
X153515290Y-81346055D01*
X153508333Y-81346664D01*
X153502932Y-81346900D01*
X153494688Y-81346900D01*
X153462107Y-81350708D01*
X153385599Y-81357401D01*
X153378533Y-81358861D01*
X153378521Y-81358804D01*
X153371154Y-81360438D01*
X153371168Y-81360494D01*
X153364151Y-81362156D01*
X153291973Y-81388426D01*
X153219062Y-81412587D01*
X153212519Y-81415638D01*
X153212494Y-81415586D01*
X153205714Y-81418868D01*
X153205740Y-81418920D01*
X153199281Y-81422164D01*
X153135109Y-81464370D01*
X153069745Y-81504688D01*
X153064077Y-81509170D01*
X153064041Y-81509124D01*
X153058197Y-81513885D01*
X153058234Y-81513929D01*
X153052705Y-81518568D01*
X152999997Y-81574434D01*
X151203158Y-83371272D01*
X151189529Y-83383051D01*
X151170268Y-83397390D01*
X151136698Y-83437397D01*
X151133053Y-83441376D01*
X151127209Y-83447222D01*
X151106859Y-83472959D01*
X151057495Y-83531789D01*
X151053529Y-83537819D01*
X151053482Y-83537788D01*
X151049430Y-83544147D01*
X151049479Y-83544177D01*
X151045685Y-83550327D01*
X151042040Y-83558144D01*
X150995863Y-83610579D01*
X150928668Y-83629725D01*
X150861788Y-83609503D01*
X150820305Y-83564182D01*
X150767113Y-83464667D01*
X150767109Y-83464660D01*
X150642083Y-83312316D01*
X150489739Y-83187290D01*
X150489732Y-83187286D01*
X150315933Y-83094388D01*
X150315927Y-83094386D01*
X150174967Y-83051626D01*
X150127329Y-83037175D01*
X149931200Y-83017859D01*
X149735070Y-83037175D01*
X149546466Y-83094388D01*
X149372667Y-83187286D01*
X149372660Y-83187290D01*
X149220316Y-83312316D01*
X149095290Y-83464660D01*
X149095288Y-83464664D01*
X149090558Y-83473514D01*
X149041595Y-83523358D01*
X148973457Y-83538818D01*
X148907778Y-83514986D01*
X148871842Y-83473514D01*
X148867111Y-83464664D01*
X148867109Y-83464660D01*
X148742083Y-83312316D01*
X148589739Y-83187290D01*
X148589732Y-83187286D01*
X148415933Y-83094388D01*
X148415927Y-83094386D01*
X148274967Y-83051626D01*
X148227329Y-83037175D01*
X148031200Y-83017859D01*
X147835070Y-83037175D01*
X147646466Y-83094388D01*
X147472667Y-83187286D01*
X147472660Y-83187290D01*
X147320316Y-83312316D01*
X147195290Y-83464660D01*
X147195286Y-83464667D01*
X147102388Y-83638466D01*
X147045175Y-83827070D01*
X147025859Y-84023200D01*
X147045175Y-84219329D01*
X147102387Y-84407930D01*
X147141058Y-84480276D01*
X147155700Y-84538730D01*
X147155700Y-89044793D01*
X147136015Y-89111832D01*
X147119381Y-89132474D01*
X146765075Y-89486781D01*
X146703752Y-89520266D01*
X146677394Y-89523100D01*
X146306486Y-89523100D01*
X146241208Y-89504527D01*
X146080077Y-89404758D01*
X146080075Y-89404757D01*
X145889031Y-89330747D01*
X145687640Y-89293100D01*
X145482760Y-89293100D01*
X145281369Y-89330747D01*
X145281366Y-89330747D01*
X145281366Y-89330748D01*
X145090322Y-89404758D01*
X144916131Y-89512614D01*
X144764727Y-89650636D01*
X144641258Y-89814135D01*
X144549937Y-89997532D01*
X144539633Y-90033747D01*
X144512061Y-90130655D01*
X144493867Y-90194599D01*
X144474964Y-90398599D01*
X144474964Y-90398600D01*
X144493867Y-90602600D01*
X144493867Y-90602602D01*
X144493868Y-90602605D01*
X144549936Y-90799664D01*
X144549937Y-90799667D01*
X144641258Y-90983064D01*
X144764726Y-91146561D01*
X144764726Y-91146562D01*
X144850199Y-91224480D01*
X144916133Y-91284587D01*
X145090325Y-91392443D01*
X145281369Y-91466453D01*
X145482760Y-91504100D01*
X145482762Y-91504100D01*
X145687638Y-91504100D01*
X145687640Y-91504100D01*
X145889031Y-91466453D01*
X146080075Y-91392443D01*
X146241207Y-91292673D01*
X146306486Y-91274100D01*
X147053298Y-91274100D01*
X147058332Y-91274305D01*
X147115244Y-91278939D01*
X147115245Y-91278938D01*
X147115248Y-91278939D01*
X147197841Y-91267685D01*
X147280716Y-91258673D01*
X147280881Y-91258617D01*
X147303757Y-91253255D01*
X147303937Y-91253231D01*
X147382193Y-91224480D01*
X147461180Y-91197867D01*
X147461327Y-91197778D01*
X147482516Y-91187624D01*
X147482688Y-91187561D01*
X147552936Y-91142659D01*
X147624354Y-91099689D01*
X147624483Y-91099566D01*
X147642997Y-91085094D01*
X147643007Y-91085087D01*
X147643144Y-91085000D01*
X147672619Y-91055523D01*
X147702096Y-91026048D01*
X147733170Y-90996611D01*
X147762607Y-90968729D01*
X147762705Y-90968583D01*
X147777664Y-90950478D01*
X148623342Y-90104800D01*
X148627010Y-90101418D01*
X148670557Y-90064431D01*
X148721008Y-89998062D01*
X148773230Y-89933097D01*
X148773309Y-89932938D01*
X148785689Y-89912977D01*
X148785802Y-89912829D01*
X148786094Y-89912199D01*
X148816483Y-89846512D01*
X148819160Y-89840724D01*
X148865173Y-89788146D01*
X148932308Y-89768790D01*
X148999250Y-89788804D01*
X149044746Y-89841831D01*
X149055700Y-89892789D01*
X149055700Y-90675393D01*
X149036015Y-90742432D01*
X149019381Y-90763074D01*
X147755675Y-92026781D01*
X147694352Y-92060266D01*
X147667994Y-92063100D01*
X146306486Y-92063100D01*
X146241208Y-92044527D01*
X146080077Y-91944758D01*
X146080075Y-91944757D01*
X145889031Y-91870747D01*
X145687640Y-91833100D01*
X145482760Y-91833100D01*
X145281369Y-91870747D01*
X145281366Y-91870747D01*
X145281366Y-91870748D01*
X145090322Y-91944758D01*
X144916131Y-92052614D01*
X144764727Y-92190636D01*
X144641258Y-92354135D01*
X144549937Y-92537532D01*
X144526091Y-92621341D01*
X144509570Y-92679410D01*
X144493867Y-92734599D01*
X144474964Y-92938599D01*
X144474964Y-92938600D01*
X144493867Y-93142600D01*
X144493867Y-93142602D01*
X144493868Y-93142605D01*
X144531452Y-93274700D01*
X144549937Y-93339667D01*
X144641258Y-93523064D01*
X144764727Y-93686563D01*
X144859218Y-93772702D01*
X144916133Y-93824587D01*
X145090325Y-93932443D01*
X145281369Y-94006453D01*
X145482760Y-94044100D01*
X145482762Y-94044100D01*
X145687638Y-94044100D01*
X145687640Y-94044100D01*
X145889031Y-94006453D01*
X146080075Y-93932443D01*
X146241207Y-93832673D01*
X146306486Y-93814100D01*
X148043898Y-93814100D01*
X148048932Y-93814305D01*
X148105844Y-93818939D01*
X148105845Y-93818938D01*
X148105848Y-93818939D01*
X148188441Y-93807685D01*
X148271316Y-93798673D01*
X148271481Y-93798617D01*
X148294357Y-93793255D01*
X148294537Y-93793231D01*
X148372793Y-93764480D01*
X148451780Y-93737867D01*
X148451927Y-93737778D01*
X148473116Y-93727624D01*
X148473288Y-93727561D01*
X148543536Y-93682659D01*
X148614954Y-93639689D01*
X148615083Y-93639566D01*
X148633597Y-93625094D01*
X148633607Y-93625087D01*
X148633744Y-93625000D01*
X148663219Y-93595523D01*
X148692696Y-93566048D01*
X148734048Y-93526877D01*
X148753207Y-93508729D01*
X148753305Y-93508583D01*
X148768264Y-93490478D01*
X150523342Y-91735400D01*
X150527010Y-91732018D01*
X150570557Y-91695031D01*
X150621008Y-91628662D01*
X150673230Y-91563697D01*
X150673309Y-91563538D01*
X150685689Y-91543577D01*
X150685802Y-91543429D01*
X150706050Y-91499664D01*
X150720810Y-91467759D01*
X150721459Y-91466451D01*
X150757841Y-91393093D01*
X150757885Y-91392914D01*
X150765684Y-91370763D01*
X150765762Y-91370597D01*
X150765923Y-91369868D01*
X150783685Y-91289171D01*
X150789028Y-91267685D01*
X150803800Y-91208289D01*
X150803804Y-91208115D01*
X150806661Y-91184791D01*
X150806700Y-91184616D01*
X150806700Y-91101240D01*
X150808957Y-91017927D01*
X150808920Y-91017734D01*
X150806700Y-90994375D01*
X150806700Y-90100786D01*
X150826385Y-90033747D01*
X150879189Y-89987992D01*
X150948347Y-89978048D01*
X151011903Y-90007073D01*
X151034302Y-90032649D01*
X151055765Y-90065283D01*
X151096087Y-90130655D01*
X151100566Y-90136319D01*
X151100519Y-90136356D01*
X151105282Y-90142202D01*
X151105328Y-90142164D01*
X151109973Y-90147700D01*
X151165817Y-90200385D01*
X151849670Y-90884238D01*
X151861451Y-90897870D01*
X151875788Y-90917128D01*
X151915809Y-90950711D01*
X151919797Y-90954366D01*
X151925616Y-90960185D01*
X151925620Y-90960188D01*
X151925623Y-90960191D01*
X151951359Y-90980540D01*
X152010186Y-91029902D01*
X152010187Y-91029902D01*
X152010189Y-91029904D01*
X152016218Y-91033870D01*
X152016185Y-91033919D01*
X152022547Y-91037972D01*
X152022579Y-91037921D01*
X152028719Y-91041708D01*
X152028723Y-91041711D01*
X152063532Y-91057943D01*
X152098341Y-91074175D01*
X152132743Y-91091452D01*
X152166967Y-91108640D01*
X152166969Y-91108640D01*
X152173757Y-91111111D01*
X152173736Y-91111167D01*
X152180855Y-91113642D01*
X152180874Y-91113586D01*
X152187729Y-91115858D01*
X152251314Y-91128986D01*
X152262962Y-91131391D01*
X152337679Y-91149100D01*
X152337689Y-91149100D01*
X152344852Y-91149938D01*
X152344844Y-91149997D01*
X152352345Y-91150764D01*
X152352351Y-91150705D01*
X152359540Y-91151334D01*
X152359544Y-91151333D01*
X152359545Y-91151334D01*
X152436318Y-91149100D01*
X152659473Y-91149100D01*
X152726512Y-91168785D01*
X152743011Y-91181463D01*
X152790199Y-91224480D01*
X152856133Y-91284587D01*
X153030325Y-91392443D01*
X153221369Y-91466453D01*
X153422760Y-91504100D01*
X153422762Y-91504100D01*
X153627638Y-91504100D01*
X153627640Y-91504100D01*
X153829031Y-91466453D01*
X154020075Y-91392443D01*
X154194267Y-91284587D01*
X154341128Y-91150705D01*
X154345673Y-91146562D01*
X154345674Y-91146561D01*
X154358946Y-91128986D01*
X154415055Y-91087350D01*
X154484767Y-91082659D01*
X154545949Y-91116401D01*
X154579176Y-91177864D01*
X154581900Y-91203713D01*
X154581900Y-91853769D01*
X154562215Y-91920808D01*
X154545581Y-91941450D01*
X154403615Y-92083416D01*
X154342292Y-92116901D01*
X154272600Y-92111917D01*
X154232396Y-92087372D01*
X154194268Y-92052614D01*
X154194267Y-92052613D01*
X154059316Y-91969054D01*
X154020077Y-91944758D01*
X154020075Y-91944757D01*
X153829031Y-91870747D01*
X153627640Y-91833100D01*
X153422760Y-91833100D01*
X153221369Y-91870747D01*
X153221366Y-91870747D01*
X153221366Y-91870748D01*
X153030322Y-91944758D01*
X152856131Y-92052614D01*
X152704727Y-92190636D01*
X152581258Y-92354135D01*
X152489937Y-92537532D01*
X152466091Y-92621341D01*
X152449570Y-92679410D01*
X152433867Y-92734599D01*
X152414964Y-92938599D01*
X152414964Y-92938600D01*
X152433867Y-93142600D01*
X152433867Y-93142602D01*
X152433868Y-93142605D01*
X152471452Y-93274700D01*
X152489937Y-93339667D01*
X152581258Y-93523064D01*
X152704727Y-93686563D01*
X152799218Y-93772702D01*
X152856133Y-93824587D01*
X153030325Y-93932443D01*
X153221369Y-94006453D01*
X153422760Y-94044100D01*
X153422762Y-94044100D01*
X153627638Y-94044100D01*
X153627640Y-94044100D01*
X153829031Y-94006453D01*
X154020075Y-93932443D01*
X154194267Y-93824587D01*
X154289394Y-93737867D01*
X154307389Y-93721463D01*
X154370193Y-93690846D01*
X154390927Y-93689100D01*
X154546095Y-93689100D01*
X154564065Y-93690409D01*
X154587823Y-93693889D01*
X154639868Y-93689335D01*
X154645270Y-93689100D01*
X154653504Y-93689100D01*
X154653509Y-93689100D01*
X154665127Y-93687741D01*
X154686076Y-93685293D01*
X154698828Y-93684177D01*
X154762597Y-93678599D01*
X154762605Y-93678596D01*
X154769666Y-93677139D01*
X154769678Y-93677198D01*
X154777043Y-93675565D01*
X154777029Y-93675506D01*
X154784046Y-93673841D01*
X154784055Y-93673841D01*
X154856223Y-93647574D01*
X154929134Y-93623414D01*
X154929143Y-93623407D01*
X154935682Y-93620360D01*
X154935708Y-93620416D01*
X154942490Y-93617132D01*
X154942463Y-93617078D01*
X154948906Y-93613840D01*
X154948917Y-93613837D01*
X155013083Y-93571634D01*
X155078456Y-93531312D01*
X155078462Y-93531305D01*
X155084125Y-93526829D01*
X155084163Y-93526877D01*
X155090000Y-93522122D01*
X155089961Y-93522075D01*
X155095496Y-93517430D01*
X155148185Y-93461583D01*
X155634620Y-92975147D01*
X155818042Y-92791724D01*
X155831671Y-92779947D01*
X155850930Y-92765610D01*
X155884501Y-92725601D01*
X155888161Y-92721606D01*
X155893990Y-92715778D01*
X155914341Y-92690039D01*
X155932511Y-92668385D01*
X155963702Y-92631214D01*
X155963706Y-92631205D01*
X155967674Y-92625175D01*
X155967725Y-92625208D01*
X155971772Y-92618856D01*
X155971720Y-92618824D01*
X155975512Y-92612675D01*
X156007975Y-92543058D01*
X156042436Y-92474440D01*
X156042440Y-92474433D01*
X156042442Y-92474421D01*
X156044909Y-92467646D01*
X156044967Y-92467667D01*
X156047443Y-92460546D01*
X156047386Y-92460527D01*
X156049655Y-92453680D01*
X156049656Y-92453675D01*
X156049657Y-92453673D01*
X156065191Y-92378437D01*
X156082900Y-92303721D01*
X156082900Y-92303719D01*
X156083739Y-92296548D01*
X156083798Y-92296554D01*
X156084564Y-92289054D01*
X156084505Y-92289049D01*
X156085134Y-92281859D01*
X156084500Y-92260085D01*
X156082900Y-92205082D01*
X156082900Y-85704375D01*
X156102585Y-85637337D01*
X156155389Y-85591582D01*
X156182535Y-85584136D01*
X156182332Y-85583276D01*
X156189879Y-85581492D01*
X156189881Y-85581491D01*
X156189883Y-85581491D01*
X156324731Y-85531196D01*
X156439946Y-85444946D01*
X156526196Y-85329731D01*
X156576491Y-85194883D01*
X156582900Y-85135273D01*
X156582899Y-84139528D01*
X156576491Y-84079917D01*
X156563740Y-84045732D01*
X156558757Y-83976042D01*
X156563741Y-83959067D01*
X156576491Y-83924883D01*
X156582900Y-83865273D01*
X156582899Y-82869528D01*
X156576491Y-82809917D01*
X156563740Y-82775732D01*
X156558757Y-82706042D01*
X156563740Y-82689069D01*
X156576491Y-82654883D01*
X156582900Y-82595273D01*
X156582899Y-81599528D01*
X156576491Y-81539917D01*
X156563740Y-81505732D01*
X156558757Y-81436042D01*
X156563740Y-81419069D01*
X156576491Y-81384883D01*
X156582900Y-81325273D01*
X156582899Y-80329528D01*
X156576491Y-80269917D01*
X156563740Y-80235732D01*
X156558757Y-80166042D01*
X156563741Y-80149067D01*
X156576491Y-80114883D01*
X156582900Y-80055273D01*
X156582899Y-79059528D01*
X156576491Y-78999917D01*
X156563740Y-78965732D01*
X156558757Y-78896042D01*
X156563740Y-78879069D01*
X156576491Y-78844883D01*
X156582900Y-78785273D01*
X156582899Y-77789528D01*
X156578141Y-77745270D01*
X160231900Y-77745270D01*
X160231901Y-77745276D01*
X160238308Y-77804883D01*
X160288602Y-77939728D01*
X160288606Y-77939735D01*
X160374852Y-78054944D01*
X160374855Y-78054947D01*
X160490064Y-78141193D01*
X160490071Y-78141197D01*
X160624917Y-78191491D01*
X160624916Y-78191491D01*
X160631844Y-78192235D01*
X160684527Y-78197900D01*
X161680272Y-78197899D01*
X161739883Y-78191491D01*
X161839069Y-78154496D01*
X161908758Y-78149513D01*
X161925719Y-78154492D01*
X162024917Y-78191491D01*
X162084527Y-78197900D01*
X163080272Y-78197899D01*
X163139883Y-78191491D01*
X163239069Y-78154496D01*
X163308758Y-78149513D01*
X163325719Y-78154492D01*
X163424917Y-78191491D01*
X163484527Y-78197900D01*
X164480272Y-78197899D01*
X164539883Y-78191491D01*
X164674731Y-78141196D01*
X164789946Y-78054946D01*
X164876196Y-77939731D01*
X164926491Y-77804883D01*
X164932900Y-77745273D01*
X164932899Y-76749528D01*
X164926491Y-76689917D01*
X164889496Y-76590730D01*
X164884513Y-76521042D01*
X164889492Y-76504080D01*
X164926491Y-76404883D01*
X164932900Y-76345273D01*
X164932899Y-75349528D01*
X164926491Y-75289917D01*
X164889496Y-75190730D01*
X164884513Y-75121042D01*
X164889492Y-75104080D01*
X164926491Y-75004883D01*
X164932900Y-74945273D01*
X164932899Y-73949528D01*
X164926491Y-73889917D01*
X164908768Y-73842400D01*
X164876197Y-73755071D01*
X164876193Y-73755064D01*
X164789947Y-73639855D01*
X164789944Y-73639852D01*
X164674735Y-73553606D01*
X164674728Y-73553602D01*
X164539882Y-73503308D01*
X164539883Y-73503308D01*
X164480283Y-73496901D01*
X164480281Y-73496900D01*
X164480273Y-73496900D01*
X164480264Y-73496900D01*
X163484529Y-73496900D01*
X163484523Y-73496901D01*
X163424915Y-73503309D01*
X163325732Y-73540301D01*
X163256040Y-73545285D01*
X163239068Y-73540301D01*
X163139885Y-73503309D01*
X163139883Y-73503308D01*
X163080283Y-73496901D01*
X163080281Y-73496900D01*
X163080273Y-73496900D01*
X163080264Y-73496900D01*
X162084529Y-73496900D01*
X162084523Y-73496901D01*
X162024915Y-73503309D01*
X161925732Y-73540301D01*
X161856040Y-73545285D01*
X161839068Y-73540301D01*
X161739885Y-73503309D01*
X161739883Y-73503308D01*
X161680283Y-73496901D01*
X161680281Y-73496900D01*
X161680273Y-73496900D01*
X161680264Y-73496900D01*
X160684529Y-73496900D01*
X160684523Y-73496901D01*
X160624916Y-73503308D01*
X160490071Y-73553602D01*
X160490064Y-73553606D01*
X160374855Y-73639852D01*
X160374852Y-73639855D01*
X160288606Y-73755064D01*
X160288602Y-73755071D01*
X160238308Y-73889917D01*
X160232861Y-73940585D01*
X160231901Y-73949523D01*
X160231900Y-73949535D01*
X160231900Y-74945270D01*
X160231901Y-74945276D01*
X160238309Y-75004884D01*
X160275301Y-75104067D01*
X160280285Y-75173758D01*
X160275301Y-75190731D01*
X160238309Y-75289914D01*
X160238308Y-75289916D01*
X160233575Y-75333944D01*
X160231901Y-75349523D01*
X160231900Y-75349535D01*
X160231900Y-76345270D01*
X160231901Y-76345276D01*
X160238309Y-76404884D01*
X160275301Y-76504068D01*
X160280285Y-76573760D01*
X160275301Y-76590732D01*
X160238309Y-76689914D01*
X160238308Y-76689916D01*
X160234355Y-76726689D01*
X160231901Y-76749523D01*
X160231900Y-76749535D01*
X160231900Y-77745270D01*
X156578141Y-77745270D01*
X156576491Y-77729917D01*
X156563740Y-77695732D01*
X156558757Y-77626042D01*
X156563741Y-77609067D01*
X156576491Y-77574883D01*
X156582900Y-77515273D01*
X156582899Y-76519528D01*
X156576491Y-76459917D01*
X156563741Y-76425732D01*
X156558757Y-76356040D01*
X156563740Y-76339067D01*
X156576491Y-76304883D01*
X156582900Y-76245273D01*
X156582899Y-75249528D01*
X156576491Y-75189917D01*
X156563740Y-75155732D01*
X156558757Y-75086042D01*
X156563740Y-75069069D01*
X156576491Y-75034883D01*
X156582900Y-74975273D01*
X156582899Y-73979528D01*
X156576491Y-73919917D01*
X156565301Y-73889916D01*
X156563741Y-73885732D01*
X156558757Y-73816040D01*
X156563742Y-73799064D01*
X156576491Y-73764883D01*
X156577547Y-73755064D01*
X156582900Y-73705273D01*
X156582899Y-72709528D01*
X156576491Y-72649917D01*
X156563740Y-72615732D01*
X156558757Y-72546042D01*
X156563740Y-72529069D01*
X156576491Y-72494883D01*
X156582900Y-72435273D01*
X156582899Y-71439528D01*
X156576491Y-71379917D01*
X156563740Y-71345732D01*
X156558757Y-71276042D01*
X156563740Y-71259069D01*
X156576491Y-71224883D01*
X156582900Y-71165273D01*
X156582899Y-70169528D01*
X156576491Y-70109917D01*
X156563740Y-70075732D01*
X156558757Y-70006042D01*
X156563741Y-69989067D01*
X156576491Y-69954883D01*
X156582900Y-69895273D01*
X156582899Y-68899528D01*
X156576491Y-68839917D01*
X156563269Y-68804468D01*
X156526197Y-68705071D01*
X156526193Y-68705064D01*
X156439947Y-68589855D01*
X156439944Y-68589852D01*
X156324735Y-68503606D01*
X156324728Y-68503602D01*
X156189882Y-68453308D01*
X156189883Y-68453308D01*
X156130283Y-68446901D01*
X156130281Y-68446900D01*
X156130273Y-68446900D01*
X156130264Y-68446900D01*
X154534529Y-68446900D01*
X154534523Y-68446901D01*
X154474916Y-68453308D01*
X154340071Y-68503602D01*
X154340064Y-68503606D01*
X154224857Y-68589851D01*
X154224851Y-68589857D01*
X154219348Y-68597209D01*
X154163415Y-68639081D01*
X154120080Y-68646900D01*
X151010409Y-68646900D01*
X150943370Y-68627215D01*
X150939572Y-68624675D01*
X150779850Y-68513505D01*
X150592856Y-68433259D01*
X150393541Y-68392300D01*
X148039783Y-68392300D01*
X147972744Y-68372615D01*
X147952102Y-68355981D01*
X147122051Y-67525931D01*
X147060661Y-67461349D01*
X147060660Y-67461348D01*
X147060659Y-67461347D01*
X147032804Y-67441959D01*
X147010309Y-67426302D01*
X147006546Y-67423464D01*
X146959013Y-67384705D01*
X146959006Y-67384700D01*
X146928559Y-67368797D01*
X146921851Y-67364734D01*
X146893649Y-67345105D01*
X146893646Y-67345103D01*
X146893645Y-67345103D01*
X146893641Y-67345101D01*
X146837280Y-67320914D01*
X146833024Y-67318893D01*
X146778657Y-67290494D01*
X146778650Y-67290491D01*
X146778649Y-67290491D01*
X146772608Y-67288762D01*
X146745630Y-67281042D01*
X146738230Y-67278408D01*
X146706657Y-67264859D01*
X146706658Y-67264859D01*
X146646566Y-67252509D01*
X146641991Y-67251386D01*
X146583020Y-67234513D01*
X146583025Y-67234513D01*
X146548758Y-67231903D01*
X146540980Y-67230812D01*
X146507342Y-67223900D01*
X146507341Y-67223900D01*
X146446002Y-67223900D01*
X146441295Y-67223721D01*
X146435721Y-67223296D01*
X146380124Y-67219062D01*
X146360189Y-67221601D01*
X146346040Y-67223403D01*
X146338211Y-67223900D01*
X145219699Y-67223900D01*
X145152660Y-67204215D01*
X145106905Y-67151411D01*
X145096268Y-67102520D01*
X145095859Y-67102541D01*
X145095732Y-67100053D01*
X145095699Y-67099900D01*
X145095699Y-67099398D01*
X145095698Y-67099381D01*
X145085199Y-66996603D01*
X145085198Y-66996600D01*
X145035494Y-66846604D01*
X145029200Y-66807600D01*
X145029200Y-66428728D01*
X145035494Y-66389724D01*
X145081199Y-66251797D01*
X145091700Y-66149009D01*
X145091700Y-66149001D01*
X145890700Y-66149001D01*
X145890701Y-66149018D01*
X145901200Y-66251796D01*
X145901201Y-66251799D01*
X145956385Y-66418331D01*
X145956387Y-66418336D01*
X145975729Y-66449694D01*
X146048488Y-66567656D01*
X146172544Y-66691712D01*
X146321866Y-66783814D01*
X146488403Y-66838999D01*
X146591191Y-66849500D01*
X147316208Y-66849499D01*
X147316216Y-66849498D01*
X147316219Y-66849498D01*
X147372502Y-66843748D01*
X147418997Y-66838999D01*
X147585534Y-66783814D01*
X147734856Y-66691712D01*
X147858912Y-66567656D01*
X147951014Y-66418334D01*
X148006199Y-66251797D01*
X148016700Y-66149009D01*
X148016700Y-66023500D01*
X148036385Y-65956461D01*
X148089189Y-65910706D01*
X148140700Y-65899500D01*
X148787692Y-65899500D01*
X148854731Y-65919185D01*
X148893236Y-65963271D01*
X148894995Y-65962187D01*
X148898785Y-65968331D01*
X148898786Y-65968334D01*
X148990888Y-66117656D01*
X149114944Y-66241712D01*
X149264266Y-66333814D01*
X149430803Y-66388999D01*
X149533591Y-66399500D01*
X150383608Y-66399499D01*
X150383616Y-66399498D01*
X150383619Y-66399498D01*
X150439902Y-66393748D01*
X150486397Y-66388999D01*
X150652934Y-66333814D01*
X150802256Y-66241712D01*
X150926312Y-66117656D01*
X151018414Y-65968334D01*
X151073599Y-65801797D01*
X151084100Y-65699009D01*
X151084099Y-64348992D01*
X151073599Y-64246203D01*
X151018414Y-64079666D01*
X150926312Y-63930344D01*
X150802256Y-63806288D01*
X150652934Y-63714186D01*
X150486397Y-63659001D01*
X150486395Y-63659000D01*
X150383610Y-63648500D01*
X149533598Y-63648500D01*
X149533580Y-63648501D01*
X149430803Y-63659000D01*
X149430800Y-63659001D01*
X149264268Y-63714185D01*
X149264263Y-63714187D01*
X149114942Y-63806289D01*
X148990889Y-63930342D01*
X148990887Y-63930344D01*
X148990888Y-63930344D01*
X148901041Y-64076011D01*
X148894995Y-64085813D01*
X148893200Y-64084706D01*
X148853913Y-64129337D01*
X148787692Y-64148500D01*
X148140699Y-64148500D01*
X148073660Y-64128815D01*
X148027905Y-64076011D01*
X148016699Y-64024500D01*
X148016699Y-63898998D01*
X148016698Y-63898981D01*
X148006199Y-63796203D01*
X148006198Y-63796200D01*
X147951014Y-63629666D01*
X147858912Y-63480344D01*
X147734856Y-63356288D01*
X147585534Y-63264186D01*
X147418997Y-63209001D01*
X147418995Y-63209000D01*
X147316210Y-63198500D01*
X146591198Y-63198500D01*
X146591180Y-63198501D01*
X146488403Y-63209000D01*
X146488400Y-63209001D01*
X146321868Y-63264185D01*
X146321863Y-63264187D01*
X146172542Y-63356289D01*
X146048489Y-63480342D01*
X145956387Y-63629663D01*
X145956385Y-63629668D01*
X145946665Y-63659001D01*
X145901201Y-63796203D01*
X145901201Y-63796204D01*
X145901200Y-63796204D01*
X145890700Y-63898983D01*
X145890700Y-66149001D01*
X145091700Y-66149001D01*
X145091699Y-63898992D01*
X145081199Y-63796203D01*
X145026014Y-63629666D01*
X144933912Y-63480344D01*
X144809856Y-63356288D01*
X144660534Y-63264186D01*
X144493997Y-63209001D01*
X144493995Y-63209000D01*
X144391210Y-63198500D01*
X143666198Y-63198500D01*
X143666180Y-63198501D01*
X143563403Y-63209000D01*
X143563400Y-63209001D01*
X143396868Y-63264185D01*
X143396863Y-63264187D01*
X143247542Y-63356289D01*
X143123489Y-63480342D01*
X143031387Y-63629663D01*
X143031385Y-63629668D01*
X143021665Y-63659001D01*
X142976201Y-63796203D01*
X142976201Y-63796204D01*
X142976200Y-63796204D01*
X142965700Y-63898983D01*
X142965700Y-63899500D01*
X142965668Y-63899605D01*
X142965540Y-63902139D01*
X142965379Y-63902130D01*
X142965379Y-63902132D01*
X142965355Y-63902129D01*
X142964934Y-63902108D01*
X142946015Y-63966539D01*
X142893211Y-64012294D01*
X142841700Y-64023500D01*
X138308574Y-64023500D01*
X138219534Y-64021244D01*
X138219523Y-64021245D01*
X138159168Y-64032062D01*
X138154504Y-64032716D01*
X138093460Y-64038925D01*
X138093452Y-64038927D01*
X138060678Y-64049210D01*
X138053050Y-64051082D01*
X138019246Y-64057141D01*
X137962278Y-64079895D01*
X137957842Y-64081474D01*
X137899311Y-64099840D01*
X137899307Y-64099842D01*
X137869275Y-64116510D01*
X137862181Y-64119879D01*
X137830279Y-64132623D01*
X137830274Y-64132625D01*
X137779053Y-64166381D01*
X137775025Y-64168822D01*
X137721398Y-64198588D01*
X137695331Y-64220965D01*
X137689062Y-64225692D01*
X137660381Y-64244595D01*
X137660375Y-64244600D01*
X137617006Y-64287968D01*
X137613552Y-64291169D01*
X137566999Y-64331136D01*
X137545973Y-64358298D01*
X137540782Y-64364192D01*
X136131331Y-65773644D01*
X136066746Y-65835039D01*
X136031699Y-65885391D01*
X136028862Y-65889153D01*
X135990102Y-65936689D01*
X135990099Y-65936694D01*
X135974192Y-65967144D01*
X135970124Y-65973858D01*
X135950502Y-66002051D01*
X135926309Y-66058427D01*
X135924288Y-66062681D01*
X135895891Y-66117048D01*
X135895890Y-66117049D01*
X135886440Y-66150072D01*
X135883807Y-66157468D01*
X135870259Y-66189040D01*
X135857913Y-66249116D01*
X135856790Y-66253692D01*
X135839913Y-66312674D01*
X135839913Y-66312676D01*
X135837303Y-66346938D01*
X135836214Y-66354705D01*
X135833880Y-66366068D01*
X135829300Y-66388355D01*
X135829300Y-66449694D01*
X135829121Y-66454403D01*
X135824462Y-66515571D01*
X127543300Y-66515571D01*
X127543300Y-61865298D01*
X127562985Y-61798260D01*
X127615789Y-61752505D01*
X127667300Y-61741299D01*
X128090671Y-61741299D01*
X128090672Y-61741299D01*
X128150283Y-61734891D01*
X128285131Y-61684596D01*
X128400346Y-61598346D01*
X128483697Y-61487004D01*
X129516331Y-61487004D01*
X129535376Y-61741154D01*
X129563711Y-61865299D01*
X129592091Y-61989637D01*
X129685206Y-62226888D01*
X129812640Y-62447612D01*
X129971549Y-62646877D01*
X130158382Y-62820232D01*
X130368965Y-62963805D01*
X130368970Y-62963807D01*
X130368971Y-62963808D01*
X130368972Y-62963809D01*
X130490927Y-63022538D01*
X130598591Y-63074387D01*
X130598592Y-63074387D01*
X130598595Y-63074389D01*
X130842141Y-63149513D01*
X131094164Y-63187500D01*
X131349034Y-63187500D01*
X131601057Y-63149513D01*
X131844603Y-63074389D01*
X132074233Y-62963805D01*
X132284816Y-62820232D01*
X132471649Y-62646877D01*
X132630558Y-62447612D01*
X132757992Y-62226888D01*
X132851107Y-61989637D01*
X132907821Y-61741157D01*
X132916685Y-61622868D01*
X132926867Y-61487004D01*
X132926867Y-61486995D01*
X132913262Y-61305459D01*
X132907821Y-61232843D01*
X132851107Y-60984363D01*
X132757992Y-60747112D01*
X132630558Y-60526388D01*
X132471649Y-60327123D01*
X132284816Y-60153768D01*
X132074233Y-60010195D01*
X132074229Y-60010193D01*
X132074226Y-60010191D01*
X132074225Y-60010190D01*
X131844605Y-59899612D01*
X131844607Y-59899612D01*
X131601065Y-59824489D01*
X131601061Y-59824488D01*
X131601057Y-59824487D01*
X131479830Y-59806214D01*
X131349039Y-59786500D01*
X131349034Y-59786500D01*
X131094164Y-59786500D01*
X131094158Y-59786500D01*
X130937208Y-59810157D01*
X130842141Y-59824487D01*
X130842137Y-59824488D01*
X130842138Y-59824488D01*
X130842132Y-59824489D01*
X130598591Y-59899612D01*
X130368972Y-60010190D01*
X130368971Y-60010191D01*
X130158381Y-60153768D01*
X129971551Y-60327121D01*
X129971549Y-60327123D01*
X129812640Y-60526388D01*
X129685207Y-60747109D01*
X129592091Y-60984362D01*
X129592089Y-60984369D01*
X129535376Y-61232845D01*
X129516331Y-61486995D01*
X129516331Y-61487004D01*
X128483697Y-61487004D01*
X128486596Y-61483131D01*
X128536891Y-61348283D01*
X128543300Y-61288673D01*
X128543299Y-58987000D01*
X135615940Y-58987000D01*
X135636535Y-59222403D01*
X135636537Y-59222413D01*
X135697693Y-59450655D01*
X135697695Y-59450659D01*
X135697696Y-59450663D01*
X135720192Y-59498905D01*
X135797564Y-59664830D01*
X135797566Y-59664834D01*
X135905880Y-59819521D01*
X135933104Y-59858401D01*
X136100198Y-60025495D01*
X136179877Y-60081287D01*
X136293764Y-60161032D01*
X136293766Y-60161033D01*
X136293769Y-60161035D01*
X136507936Y-60260903D01*
X136507942Y-60260904D01*
X136507943Y-60260905D01*
X136736191Y-60322063D01*
X136740514Y-60322825D01*
X136803119Y-60353848D01*
X136839012Y-60413794D01*
X136836799Y-60483628D01*
X136815942Y-60522246D01*
X136812642Y-60526384D01*
X136685207Y-60747109D01*
X136592091Y-60984362D01*
X136592089Y-60984369D01*
X136535376Y-61232845D01*
X136516331Y-61486995D01*
X136516331Y-61487004D01*
X136535376Y-61741154D01*
X136563711Y-61865299D01*
X136592091Y-61989637D01*
X136685206Y-62226888D01*
X136812640Y-62447612D01*
X136971549Y-62646877D01*
X137158382Y-62820232D01*
X137368965Y-62963805D01*
X137368970Y-62963807D01*
X137368971Y-62963808D01*
X137368972Y-62963809D01*
X137490927Y-63022538D01*
X137598591Y-63074387D01*
X137598592Y-63074387D01*
X137598595Y-63074389D01*
X137842141Y-63149513D01*
X138094164Y-63187500D01*
X138349034Y-63187500D01*
X138601057Y-63149513D01*
X138844603Y-63074389D01*
X139074233Y-62963805D01*
X139284816Y-62820232D01*
X139471649Y-62646877D01*
X139630558Y-62447612D01*
X139757992Y-62226888D01*
X139851107Y-61989637D01*
X139907821Y-61741157D01*
X139916685Y-61622868D01*
X139926867Y-61487004D01*
X139926867Y-61486995D01*
X139913262Y-61305459D01*
X139907821Y-61232843D01*
X139851107Y-60984363D01*
X139757992Y-60747112D01*
X139694650Y-60637400D01*
X155082400Y-60637400D01*
X155082400Y-66827400D01*
X173082400Y-66827400D01*
X173082400Y-62052202D01*
X176338323Y-62052202D01*
X176357393Y-62270175D01*
X176357393Y-62270179D01*
X176414022Y-62481522D01*
X176414024Y-62481526D01*
X176414025Y-62481530D01*
X176460261Y-62580684D01*
X176506497Y-62679838D01*
X176506498Y-62679839D01*
X176632002Y-62859077D01*
X176786723Y-63013798D01*
X176965961Y-63139302D01*
X177164270Y-63231775D01*
X177375623Y-63288407D01*
X177558526Y-63304408D01*
X177593598Y-63307477D01*
X177593600Y-63307477D01*
X177593602Y-63307477D01*
X177621854Y-63305005D01*
X177811577Y-63288407D01*
X178022930Y-63231775D01*
X178221239Y-63139302D01*
X178400477Y-63013798D01*
X178555198Y-62859077D01*
X178680702Y-62679839D01*
X178773175Y-62481530D01*
X178829807Y-62270177D01*
X178848877Y-62052202D01*
X181218323Y-62052202D01*
X181237393Y-62270175D01*
X181237393Y-62270179D01*
X181294022Y-62481522D01*
X181294024Y-62481526D01*
X181294025Y-62481530D01*
X181340261Y-62580684D01*
X181386497Y-62679838D01*
X181386498Y-62679839D01*
X181512002Y-62859077D01*
X181666723Y-63013798D01*
X181845961Y-63139302D01*
X182044270Y-63231775D01*
X182255623Y-63288407D01*
X182438526Y-63304408D01*
X182473598Y-63307477D01*
X182473600Y-63307477D01*
X182473602Y-63307477D01*
X182501854Y-63305005D01*
X182691577Y-63288407D01*
X182902930Y-63231775D01*
X183101239Y-63139302D01*
X183280477Y-63013798D01*
X183435198Y-62859077D01*
X183560702Y-62679839D01*
X183653175Y-62481530D01*
X183709807Y-62270177D01*
X183728877Y-62052200D01*
X183709807Y-61834223D01*
X183669715Y-61684597D01*
X183653177Y-61622877D01*
X183653176Y-61622876D01*
X183653175Y-61622870D01*
X183560702Y-61424562D01*
X183560700Y-61424559D01*
X183560699Y-61424557D01*
X183435199Y-61245324D01*
X183422718Y-61232843D01*
X183280477Y-61090602D01*
X183101239Y-60965098D01*
X183101240Y-60965098D01*
X183101238Y-60965097D01*
X183002084Y-60918861D01*
X182902930Y-60872625D01*
X182902926Y-60872624D01*
X182902922Y-60872622D01*
X182691577Y-60815993D01*
X182473602Y-60796923D01*
X182473598Y-60796923D01*
X182365514Y-60806379D01*
X182255623Y-60815993D01*
X182255620Y-60815993D01*
X182044277Y-60872622D01*
X182044268Y-60872626D01*
X181845961Y-60965098D01*
X181845957Y-60965100D01*
X181666721Y-61090602D01*
X181512002Y-61245321D01*
X181386500Y-61424557D01*
X181386498Y-61424561D01*
X181294026Y-61622868D01*
X181294022Y-61622877D01*
X181237393Y-61834220D01*
X181237393Y-61834224D01*
X181218323Y-62052197D01*
X181218323Y-62052202D01*
X178848877Y-62052202D01*
X178848877Y-62052200D01*
X178829807Y-61834223D01*
X178789715Y-61684597D01*
X178773177Y-61622877D01*
X178773176Y-61622876D01*
X178773175Y-61622870D01*
X178680702Y-61424562D01*
X178680700Y-61424559D01*
X178680699Y-61424557D01*
X178555199Y-61245324D01*
X178542718Y-61232843D01*
X178400477Y-61090602D01*
X178221239Y-60965098D01*
X178221240Y-60965098D01*
X178221238Y-60965097D01*
X178122084Y-60918861D01*
X178022930Y-60872625D01*
X178022926Y-60872624D01*
X178022922Y-60872622D01*
X177811577Y-60815993D01*
X177593602Y-60796923D01*
X177593598Y-60796923D01*
X177485514Y-60806379D01*
X177375623Y-60815993D01*
X177375620Y-60815993D01*
X177164277Y-60872622D01*
X177164268Y-60872626D01*
X176965961Y-60965098D01*
X176965957Y-60965100D01*
X176786721Y-61090602D01*
X176632002Y-61245321D01*
X176506500Y-61424557D01*
X176506498Y-61424561D01*
X176414026Y-61622868D01*
X176414022Y-61622877D01*
X176357393Y-61834220D01*
X176357393Y-61834224D01*
X176338323Y-62052197D01*
X176338323Y-62052202D01*
X173082400Y-62052202D01*
X173082400Y-60637400D01*
X155082400Y-60637400D01*
X139694650Y-60637400D01*
X139630558Y-60526388D01*
X139471649Y-60327123D01*
X139284816Y-60153768D01*
X139074233Y-60010195D01*
X139074229Y-60010193D01*
X139074226Y-60010191D01*
X139074225Y-60010190D01*
X138844605Y-59899612D01*
X138844607Y-59899612D01*
X138601065Y-59824489D01*
X138601061Y-59824488D01*
X138601057Y-59824487D01*
X138479830Y-59806214D01*
X138349039Y-59786500D01*
X138349034Y-59786500D01*
X138283540Y-59786500D01*
X138216501Y-59766815D01*
X138170746Y-59714011D01*
X138160802Y-59644853D01*
X138171158Y-59610096D01*
X138245499Y-59450669D01*
X138245502Y-59450663D01*
X138306662Y-59222408D01*
X138327258Y-58987000D01*
X138308024Y-58767163D01*
X146303987Y-58767163D01*
X146333613Y-59036413D01*
X146333615Y-59036424D01*
X146384885Y-59232533D01*
X146402128Y-59298488D01*
X146508070Y-59547790D01*
X146649179Y-59779005D01*
X146649186Y-59779015D01*
X146822453Y-59987219D01*
X146822459Y-59987224D01*
X146865996Y-60026233D01*
X147024198Y-60167982D01*
X147250110Y-60317444D01*
X147495376Y-60432420D01*
X147495383Y-60432422D01*
X147495385Y-60432423D01*
X147754757Y-60510457D01*
X147754764Y-60510458D01*
X147754769Y-60510460D01*
X148022761Y-60549900D01*
X148022766Y-60549900D01*
X148225836Y-60549900D01*
X148277333Y-60546130D01*
X148428356Y-60535077D01*
X148540958Y-60509993D01*
X148692746Y-60476182D01*
X148692748Y-60476181D01*
X148692753Y-60476180D01*
X148945758Y-60379414D01*
X149181977Y-60246841D01*
X149396377Y-60081288D01*
X149584386Y-59886281D01*
X149741999Y-59665979D01*
X149827893Y-59498914D01*
X149865849Y-59425090D01*
X149865851Y-59425084D01*
X149865856Y-59425075D01*
X149947686Y-59185212D01*
X149953315Y-59168714D01*
X149953315Y-59168713D01*
X149953318Y-59168705D01*
X149966495Y-59097363D01*
X201345787Y-59097363D01*
X201375413Y-59366613D01*
X201375415Y-59366624D01*
X201439067Y-59610096D01*
X201443928Y-59628688D01*
X201549870Y-59877990D01*
X201690979Y-60109205D01*
X201690986Y-60109215D01*
X201864253Y-60317419D01*
X201864259Y-60317424D01*
X201969240Y-60411487D01*
X202065998Y-60498182D01*
X202291910Y-60647644D01*
X202537176Y-60762620D01*
X202537183Y-60762622D01*
X202537185Y-60762623D01*
X202796557Y-60840657D01*
X202796564Y-60840658D01*
X202796569Y-60840660D01*
X203064561Y-60880100D01*
X203064566Y-60880100D01*
X203267636Y-60880100D01*
X203319133Y-60876330D01*
X203470156Y-60865277D01*
X203582758Y-60840193D01*
X203734546Y-60806382D01*
X203734548Y-60806381D01*
X203734553Y-60806380D01*
X203987558Y-60709614D01*
X204223777Y-60577041D01*
X204438177Y-60411488D01*
X204626186Y-60216481D01*
X204783799Y-59996179D01*
X204872072Y-59824487D01*
X204907649Y-59755290D01*
X204907651Y-59755284D01*
X204907656Y-59755275D01*
X204995118Y-59498905D01*
X205044319Y-59232533D01*
X205054212Y-58961835D01*
X205024586Y-58692582D01*
X204956072Y-58430512D01*
X204850130Y-58181210D01*
X204709018Y-57949990D01*
X204707779Y-57948501D01*
X204535746Y-57741780D01*
X204535740Y-57741775D01*
X204334002Y-57561018D01*
X204108092Y-57411557D01*
X204108090Y-57411556D01*
X203862824Y-57296580D01*
X203862819Y-57296578D01*
X203862814Y-57296576D01*
X203603442Y-57218542D01*
X203603428Y-57218539D01*
X203487791Y-57201521D01*
X203335439Y-57179100D01*
X203132369Y-57179100D01*
X203132364Y-57179100D01*
X202929844Y-57193923D01*
X202929831Y-57193925D01*
X202665453Y-57252817D01*
X202665446Y-57252820D01*
X202412439Y-57349587D01*
X202176226Y-57482157D01*
X201961822Y-57647712D01*
X201773822Y-57842709D01*
X201773816Y-57842716D01*
X201616202Y-58063019D01*
X201616199Y-58063024D01*
X201492350Y-58303909D01*
X201492343Y-58303927D01*
X201404884Y-58560285D01*
X201404881Y-58560299D01*
X201387115Y-58656485D01*
X201366672Y-58767165D01*
X201355681Y-58826668D01*
X201355680Y-58826675D01*
X201345787Y-59097363D01*
X149966495Y-59097363D01*
X150002519Y-58902333D01*
X150012412Y-58631635D01*
X149982786Y-58362382D01*
X149914272Y-58100312D01*
X149808330Y-57851010D01*
X149667218Y-57619790D01*
X149577947Y-57512519D01*
X149493946Y-57411580D01*
X149493940Y-57411575D01*
X149292202Y-57230818D01*
X149066292Y-57081357D01*
X149066290Y-57081356D01*
X148821024Y-56966380D01*
X148821019Y-56966378D01*
X148821014Y-56966376D01*
X148561642Y-56888342D01*
X148561628Y-56888339D01*
X148445991Y-56871321D01*
X148293639Y-56848900D01*
X148090569Y-56848900D01*
X148090564Y-56848900D01*
X147888044Y-56863723D01*
X147888031Y-56863725D01*
X147623653Y-56922617D01*
X147623646Y-56922620D01*
X147370639Y-57019387D01*
X147134426Y-57151957D01*
X146920022Y-57317512D01*
X146732022Y-57512509D01*
X146732016Y-57512516D01*
X146574402Y-57732819D01*
X146574399Y-57732824D01*
X146450550Y-57973709D01*
X146450543Y-57973727D01*
X146363084Y-58230085D01*
X146363082Y-58230095D01*
X146326063Y-58430517D01*
X146313881Y-58496468D01*
X146313880Y-58496475D01*
X146303987Y-58767163D01*
X138308024Y-58767163D01*
X138306662Y-58751592D01*
X138245502Y-58523337D01*
X138145634Y-58309171D01*
X138141963Y-58303927D01*
X138010093Y-58115597D01*
X137843001Y-57948506D01*
X137842994Y-57948501D01*
X137649433Y-57812967D01*
X137649429Y-57812965D01*
X137615205Y-57797006D01*
X137435262Y-57713097D01*
X137435258Y-57713096D01*
X137435254Y-57713094D01*
X137207012Y-57651938D01*
X137207002Y-57651936D01*
X136971600Y-57631341D01*
X136971598Y-57631341D01*
X136736195Y-57651936D01*
X136736185Y-57651938D01*
X136507943Y-57713094D01*
X136507934Y-57713098D01*
X136293770Y-57812964D01*
X136293768Y-57812965D01*
X136100196Y-57948505D01*
X135933104Y-58115597D01*
X135797564Y-58309169D01*
X135797563Y-58309171D01*
X135697697Y-58523335D01*
X135697693Y-58523344D01*
X135636537Y-58751586D01*
X135636535Y-58751596D01*
X135615940Y-58986999D01*
X135615940Y-58987000D01*
X128543299Y-58987000D01*
X128543299Y-58192928D01*
X128536891Y-58133317D01*
X128510673Y-58063024D01*
X128486597Y-57998471D01*
X128486593Y-57998464D01*
X128400347Y-57883255D01*
X128400344Y-57883252D01*
X128285135Y-57797006D01*
X128285128Y-57797002D01*
X128150282Y-57746708D01*
X128150283Y-57746708D01*
X128090683Y-57740301D01*
X128090681Y-57740300D01*
X128090673Y-57740300D01*
X128090664Y-57740300D01*
X124994929Y-57740300D01*
X124994923Y-57740301D01*
X124935316Y-57746708D01*
X124800471Y-57797002D01*
X124800464Y-57797006D01*
X124685255Y-57883252D01*
X124685252Y-57883255D01*
X124599006Y-57998464D01*
X124599002Y-57998471D01*
X124548708Y-58133317D01*
X124542301Y-58192916D01*
X124542301Y-58192923D01*
X124542300Y-58192935D01*
X124542300Y-61288670D01*
X124542301Y-61288676D01*
X124548708Y-61348283D01*
X124599002Y-61483128D01*
X124599006Y-61483135D01*
X124685252Y-61598344D01*
X124685255Y-61598347D01*
X124800464Y-61684593D01*
X124800471Y-61684597D01*
X124845418Y-61701361D01*
X124935317Y-61734891D01*
X124994927Y-61741300D01*
X125418300Y-61741299D01*
X125485339Y-61760983D01*
X125531094Y-61813787D01*
X125542300Y-61865299D01*
X125542300Y-76695283D01*
X125540043Y-76784362D01*
X125540043Y-76784370D01*
X125550864Y-76844739D01*
X125551518Y-76849404D01*
X125557725Y-76910430D01*
X125557727Y-76910444D01*
X125568008Y-76943213D01*
X125569879Y-76950837D01*
X125575942Y-76984652D01*
X125575942Y-76984655D01*
X125598694Y-77041612D01*
X125600274Y-77046051D01*
X125618641Y-77104588D01*
X125618644Y-77104595D01*
X125635309Y-77134619D01*
X125638679Y-77141714D01*
X125651422Y-77173614D01*
X125651427Y-77173624D01*
X125685177Y-77224833D01*
X125687618Y-77228863D01*
X125717388Y-77282498D01*
X125717389Y-77282499D01*
X125717391Y-77282502D01*
X125739768Y-77308567D01*
X125744493Y-77314835D01*
X125757063Y-77333906D01*
X125763398Y-77343519D01*
X125806778Y-77386899D01*
X125809969Y-77390343D01*
X125849931Y-77436892D01*
X125849930Y-77436892D01*
X125877099Y-77457923D01*
X125882986Y-77463107D01*
X126795860Y-78375980D01*
X127639581Y-79219701D01*
X127673066Y-79281024D01*
X127675900Y-79307382D01*
X127675900Y-81292021D01*
X127656215Y-81359060D01*
X127643130Y-81376003D01*
X127567422Y-81458244D01*
X127567418Y-81458249D01*
X127510207Y-81545817D01*
X127457060Y-81591174D01*
X127387829Y-81600597D01*
X127324494Y-81571094D01*
X127302591Y-81545817D01*
X127245379Y-81458247D01*
X127245377Y-81458245D01*
X127245377Y-81458244D01*
X127169670Y-81376003D01*
X127138748Y-81313348D01*
X127136900Y-81292021D01*
X127136900Y-80429115D01*
X127139157Y-80340042D01*
X127139156Y-80340041D01*
X127139157Y-80340037D01*
X127128330Y-80279634D01*
X127127680Y-80274999D01*
X127121474Y-80213962D01*
X127111190Y-80181186D01*
X127109320Y-80173568D01*
X127103259Y-80139748D01*
X127103258Y-80139746D01*
X127103258Y-80139744D01*
X127080498Y-80082766D01*
X127078917Y-80078325D01*
X127060560Y-80019815D01*
X127060559Y-80019814D01*
X127060559Y-80019812D01*
X127043882Y-79989766D01*
X127040522Y-79982688D01*
X127027778Y-79950783D01*
X127027775Y-79950778D01*
X127027774Y-79950776D01*
X127015253Y-79931778D01*
X126994005Y-79899539D01*
X126991583Y-79895542D01*
X126961809Y-79841898D01*
X126939434Y-79815834D01*
X126934706Y-79809563D01*
X126915804Y-79780884D01*
X126915799Y-79780878D01*
X126894115Y-79759195D01*
X126872419Y-79737499D01*
X126869228Y-79734055D01*
X126829266Y-79687505D01*
X126802094Y-79666472D01*
X126796207Y-79661287D01*
X122499618Y-75364698D01*
X122466134Y-75303376D01*
X122463300Y-75277018D01*
X122463300Y-61547364D01*
X122482985Y-61480325D01*
X122527872Y-61438532D01*
X122547115Y-61428026D01*
X122776195Y-61256539D01*
X122978539Y-61054195D01*
X123150026Y-60825115D01*
X123287167Y-60573961D01*
X123387169Y-60305846D01*
X123396946Y-60260901D01*
X123447995Y-60026233D01*
X123447995Y-60026232D01*
X123447996Y-60026228D01*
X123468410Y-59740800D01*
X123447996Y-59455372D01*
X123441405Y-59425075D01*
X123387171Y-59175762D01*
X123387170Y-59175760D01*
X123387169Y-59175754D01*
X123287167Y-58907639D01*
X123242953Y-58826668D01*
X123150029Y-58656490D01*
X123150024Y-58656482D01*
X122978545Y-58427412D01*
X122978529Y-58427394D01*
X122776205Y-58225070D01*
X122776187Y-58225054D01*
X122547117Y-58053575D01*
X122547109Y-58053570D01*
X122295966Y-57916435D01*
X122295967Y-57916435D01*
X122188714Y-57876432D01*
X122027846Y-57816431D01*
X122027843Y-57816430D01*
X122027837Y-57816428D01*
X121748233Y-57755604D01*
X121462801Y-57735190D01*
X121462799Y-57735190D01*
X121177366Y-57755604D01*
X120897762Y-57816428D01*
X120629633Y-57916435D01*
X120378490Y-58053570D01*
X120378482Y-58053575D01*
X120149412Y-58225054D01*
X120149394Y-58225070D01*
X119947070Y-58427394D01*
X119947054Y-58427412D01*
X119775575Y-58656482D01*
X119775570Y-58656490D01*
X119638435Y-58907633D01*
X119538428Y-59175762D01*
X119477604Y-59455366D01*
X119457190Y-59740798D01*
X119457190Y-59740801D01*
X118388410Y-59740801D01*
X118388410Y-59740800D01*
X118367996Y-59455372D01*
X118361405Y-59425075D01*
X118307171Y-59175762D01*
X118307170Y-59175760D01*
X118307169Y-59175754D01*
X118207167Y-58907639D01*
X118162953Y-58826668D01*
X118070029Y-58656490D01*
X118070024Y-58656482D01*
X117898545Y-58427412D01*
X117898529Y-58427394D01*
X117696205Y-58225070D01*
X117696187Y-58225054D01*
X117467117Y-58053575D01*
X117467109Y-58053570D01*
X117215966Y-57916435D01*
X117215967Y-57916435D01*
X117108714Y-57876432D01*
X116947846Y-57816431D01*
X116947843Y-57816430D01*
X116947837Y-57816428D01*
X116668233Y-57755604D01*
X116382801Y-57735190D01*
X116382799Y-57735190D01*
X116097366Y-57755604D01*
X115817762Y-57816428D01*
X115549633Y-57916435D01*
X115298490Y-58053570D01*
X115298482Y-58053575D01*
X115069412Y-58225054D01*
X115069394Y-58225070D01*
X114867070Y-58427394D01*
X114867054Y-58427412D01*
X114695575Y-58656482D01*
X114695570Y-58656490D01*
X114558435Y-58907633D01*
X114458428Y-59175762D01*
X114397604Y-59455366D01*
X114377190Y-59740798D01*
X114377190Y-59740801D01*
X113308410Y-59740801D01*
X113308410Y-59740800D01*
X113287996Y-59455372D01*
X113281405Y-59425075D01*
X113227171Y-59175762D01*
X113227170Y-59175760D01*
X113227169Y-59175754D01*
X113127167Y-58907639D01*
X113082953Y-58826668D01*
X112990029Y-58656490D01*
X112990024Y-58656482D01*
X112818545Y-58427412D01*
X112818529Y-58427394D01*
X112616205Y-58225070D01*
X112616187Y-58225054D01*
X112387117Y-58053575D01*
X112387109Y-58053570D01*
X112135966Y-57916435D01*
X112135967Y-57916435D01*
X112028714Y-57876432D01*
X111867846Y-57816431D01*
X111867843Y-57816430D01*
X111867837Y-57816428D01*
X111588233Y-57755604D01*
X111302801Y-57735190D01*
X111302799Y-57735190D01*
X111017366Y-57755604D01*
X110737762Y-57816428D01*
X110469633Y-57916435D01*
X110218490Y-58053570D01*
X110218482Y-58053575D01*
X109989412Y-58225054D01*
X109989394Y-58225070D01*
X109787070Y-58427394D01*
X109787054Y-58427412D01*
X109615575Y-58656482D01*
X109615570Y-58656490D01*
X109478435Y-58907633D01*
X109378428Y-59175762D01*
X109317604Y-59455366D01*
X109297190Y-59740798D01*
X109297190Y-59740801D01*
X107492800Y-59740801D01*
X107492800Y-55038799D01*
X107512485Y-54971761D01*
X107565289Y-54926006D01*
X107616800Y-54914800D01*
X207495600Y-54914800D01*
X207562639Y-54934485D01*
G37*
%TD.AperFunction*%
%TD*%
M02*
