%TF.GenerationSoftware,KiCad,Pcbnew,7.0.7*%
%TF.CreationDate,2023-11-07T23:05:13-03:00*%
%TF.ProjectId,robot seg,726f626f-7420-4736-9567-2e6b69636164,rev?*%
%TF.SameCoordinates,Original*%
%TF.FileFunction,Legend,Bot*%
%TF.FilePolarity,Positive*%
%FSLAX46Y46*%
G04 Gerber Fmt 4.6, Leading zero omitted, Abs format (unit mm)*
G04 Created by KiCad (PCBNEW 7.0.7) date 2023-11-07 23:05:13*
%MOMM*%
%LPD*%
G01*
G04 APERTURE LIST*
%ADD10C,0.150000*%
%ADD11C,0.127000*%
%ADD12C,0.200000*%
%ADD13C,0.120000*%
G04 APERTURE END LIST*
D10*
X185498704Y-79288619D02*
X185498704Y-80098142D01*
X185498704Y-80098142D02*
X185451085Y-80193380D01*
X185451085Y-80193380D02*
X185403466Y-80241000D01*
X185403466Y-80241000D02*
X185308228Y-80288619D01*
X185308228Y-80288619D02*
X185117752Y-80288619D01*
X185117752Y-80288619D02*
X185022514Y-80241000D01*
X185022514Y-80241000D02*
X184974895Y-80193380D01*
X184974895Y-80193380D02*
X184927276Y-80098142D01*
X184927276Y-80098142D02*
X184927276Y-79288619D01*
X184498704Y-79383857D02*
X184451085Y-79336238D01*
X184451085Y-79336238D02*
X184355847Y-79288619D01*
X184355847Y-79288619D02*
X184117752Y-79288619D01*
X184117752Y-79288619D02*
X184022514Y-79336238D01*
X184022514Y-79336238D02*
X183974895Y-79383857D01*
X183974895Y-79383857D02*
X183927276Y-79479095D01*
X183927276Y-79479095D02*
X183927276Y-79574333D01*
X183927276Y-79574333D02*
X183974895Y-79717190D01*
X183974895Y-79717190D02*
X184546323Y-80288619D01*
X184546323Y-80288619D02*
X183927276Y-80288619D01*
X191094133Y-67947019D02*
X191094133Y-68661304D01*
X191094133Y-68661304D02*
X191141752Y-68804161D01*
X191141752Y-68804161D02*
X191236990Y-68899400D01*
X191236990Y-68899400D02*
X191379847Y-68947019D01*
X191379847Y-68947019D02*
X191475085Y-68947019D01*
X190094133Y-68947019D02*
X190665561Y-68947019D01*
X190379847Y-68947019D02*
X190379847Y-67947019D01*
X190379847Y-67947019D02*
X190475085Y-68089876D01*
X190475085Y-68089876D02*
X190570323Y-68185114D01*
X190570323Y-68185114D02*
X190665561Y-68232733D01*
X197779066Y-92066780D02*
X197826685Y-92114400D01*
X197826685Y-92114400D02*
X197969542Y-92162019D01*
X197969542Y-92162019D02*
X198064780Y-92162019D01*
X198064780Y-92162019D02*
X198207637Y-92114400D01*
X198207637Y-92114400D02*
X198302875Y-92019161D01*
X198302875Y-92019161D02*
X198350494Y-91923923D01*
X198350494Y-91923923D02*
X198398113Y-91733447D01*
X198398113Y-91733447D02*
X198398113Y-91590590D01*
X198398113Y-91590590D02*
X198350494Y-91400114D01*
X198350494Y-91400114D02*
X198302875Y-91304876D01*
X198302875Y-91304876D02*
X198207637Y-91209638D01*
X198207637Y-91209638D02*
X198064780Y-91162019D01*
X198064780Y-91162019D02*
X197969542Y-91162019D01*
X197969542Y-91162019D02*
X197826685Y-91209638D01*
X197826685Y-91209638D02*
X197779066Y-91257257D01*
X197302875Y-92162019D02*
X197112399Y-92162019D01*
X197112399Y-92162019D02*
X197017161Y-92114400D01*
X197017161Y-92114400D02*
X196969542Y-92066780D01*
X196969542Y-92066780D02*
X196874304Y-91923923D01*
X196874304Y-91923923D02*
X196826685Y-91733447D01*
X196826685Y-91733447D02*
X196826685Y-91352495D01*
X196826685Y-91352495D02*
X196874304Y-91257257D01*
X196874304Y-91257257D02*
X196921923Y-91209638D01*
X196921923Y-91209638D02*
X197017161Y-91162019D01*
X197017161Y-91162019D02*
X197207637Y-91162019D01*
X197207637Y-91162019D02*
X197302875Y-91209638D01*
X197302875Y-91209638D02*
X197350494Y-91257257D01*
X197350494Y-91257257D02*
X197398113Y-91352495D01*
X197398113Y-91352495D02*
X197398113Y-91590590D01*
X197398113Y-91590590D02*
X197350494Y-91685828D01*
X197350494Y-91685828D02*
X197302875Y-91733447D01*
X197302875Y-91733447D02*
X197207637Y-91781066D01*
X197207637Y-91781066D02*
X197017161Y-91781066D01*
X197017161Y-91781066D02*
X196921923Y-91733447D01*
X196921923Y-91733447D02*
X196874304Y-91685828D01*
X196874304Y-91685828D02*
X196826685Y-91590590D01*
X149761733Y-104267419D02*
X149761733Y-104981704D01*
X149761733Y-104981704D02*
X149809352Y-105124561D01*
X149809352Y-105124561D02*
X149904590Y-105219800D01*
X149904590Y-105219800D02*
X150047447Y-105267419D01*
X150047447Y-105267419D02*
X150142685Y-105267419D01*
X149380780Y-104267419D02*
X148761733Y-104267419D01*
X148761733Y-104267419D02*
X149095066Y-104648371D01*
X149095066Y-104648371D02*
X148952209Y-104648371D01*
X148952209Y-104648371D02*
X148856971Y-104695990D01*
X148856971Y-104695990D02*
X148809352Y-104743609D01*
X148809352Y-104743609D02*
X148761733Y-104838847D01*
X148761733Y-104838847D02*
X148761733Y-105076942D01*
X148761733Y-105076942D02*
X148809352Y-105172180D01*
X148809352Y-105172180D02*
X148856971Y-105219800D01*
X148856971Y-105219800D02*
X148952209Y-105267419D01*
X148952209Y-105267419D02*
X149237923Y-105267419D01*
X149237923Y-105267419D02*
X149333161Y-105219800D01*
X149333161Y-105219800D02*
X149380780Y-105172180D01*
X119431880Y-108122533D02*
X119479500Y-108074914D01*
X119479500Y-108074914D02*
X119527119Y-107932057D01*
X119527119Y-107932057D02*
X119527119Y-107836819D01*
X119527119Y-107836819D02*
X119479500Y-107693962D01*
X119479500Y-107693962D02*
X119384261Y-107598724D01*
X119384261Y-107598724D02*
X119289023Y-107551105D01*
X119289023Y-107551105D02*
X119098547Y-107503486D01*
X119098547Y-107503486D02*
X118955690Y-107503486D01*
X118955690Y-107503486D02*
X118765214Y-107551105D01*
X118765214Y-107551105D02*
X118669976Y-107598724D01*
X118669976Y-107598724D02*
X118574738Y-107693962D01*
X118574738Y-107693962D02*
X118527119Y-107836819D01*
X118527119Y-107836819D02*
X118527119Y-107932057D01*
X118527119Y-107932057D02*
X118574738Y-108074914D01*
X118574738Y-108074914D02*
X118622357Y-108122533D01*
X118527119Y-108455867D02*
X118527119Y-109122533D01*
X118527119Y-109122533D02*
X119527119Y-108693962D01*
X196223180Y-64222333D02*
X196270800Y-64174714D01*
X196270800Y-64174714D02*
X196318419Y-64031857D01*
X196318419Y-64031857D02*
X196318419Y-63936619D01*
X196318419Y-63936619D02*
X196270800Y-63793762D01*
X196270800Y-63793762D02*
X196175561Y-63698524D01*
X196175561Y-63698524D02*
X196080323Y-63650905D01*
X196080323Y-63650905D02*
X195889847Y-63603286D01*
X195889847Y-63603286D02*
X195746990Y-63603286D01*
X195746990Y-63603286D02*
X195556514Y-63650905D01*
X195556514Y-63650905D02*
X195461276Y-63698524D01*
X195461276Y-63698524D02*
X195366038Y-63793762D01*
X195366038Y-63793762D02*
X195318419Y-63936619D01*
X195318419Y-63936619D02*
X195318419Y-64031857D01*
X195318419Y-64031857D02*
X195366038Y-64174714D01*
X195366038Y-64174714D02*
X195413657Y-64222333D01*
X195651752Y-65079476D02*
X196318419Y-65079476D01*
X195270800Y-64841381D02*
X195985085Y-64603286D01*
X195985085Y-64603286D02*
X195985085Y-65222333D01*
X194278238Y-74477057D02*
X194373476Y-74429438D01*
X194373476Y-74429438D02*
X194468714Y-74334200D01*
X194468714Y-74334200D02*
X194611571Y-74191342D01*
X194611571Y-74191342D02*
X194706809Y-74143723D01*
X194706809Y-74143723D02*
X194802047Y-74143723D01*
X194754428Y-74381819D02*
X194849666Y-74334200D01*
X194849666Y-74334200D02*
X194944904Y-74238961D01*
X194944904Y-74238961D02*
X194992523Y-74048485D01*
X194992523Y-74048485D02*
X194992523Y-73715152D01*
X194992523Y-73715152D02*
X194944904Y-73524676D01*
X194944904Y-73524676D02*
X194849666Y-73429438D01*
X194849666Y-73429438D02*
X194754428Y-73381819D01*
X194754428Y-73381819D02*
X194563952Y-73381819D01*
X194563952Y-73381819D02*
X194468714Y-73429438D01*
X194468714Y-73429438D02*
X194373476Y-73524676D01*
X194373476Y-73524676D02*
X194325857Y-73715152D01*
X194325857Y-73715152D02*
X194325857Y-74048485D01*
X194325857Y-74048485D02*
X194373476Y-74238961D01*
X194373476Y-74238961D02*
X194468714Y-74334200D01*
X194468714Y-74334200D02*
X194563952Y-74381819D01*
X194563952Y-74381819D02*
X194754428Y-74381819D01*
X193373476Y-74381819D02*
X193944904Y-74381819D01*
X193659190Y-74381819D02*
X193659190Y-73381819D01*
X193659190Y-73381819D02*
X193754428Y-73524676D01*
X193754428Y-73524676D02*
X193849666Y-73619914D01*
X193849666Y-73619914D02*
X193944904Y-73667533D01*
X124800766Y-93398980D02*
X124848385Y-93446600D01*
X124848385Y-93446600D02*
X124991242Y-93494219D01*
X124991242Y-93494219D02*
X125086480Y-93494219D01*
X125086480Y-93494219D02*
X125229337Y-93446600D01*
X125229337Y-93446600D02*
X125324575Y-93351361D01*
X125324575Y-93351361D02*
X125372194Y-93256123D01*
X125372194Y-93256123D02*
X125419813Y-93065647D01*
X125419813Y-93065647D02*
X125419813Y-92922790D01*
X125419813Y-92922790D02*
X125372194Y-92732314D01*
X125372194Y-92732314D02*
X125324575Y-92637076D01*
X125324575Y-92637076D02*
X125229337Y-92541838D01*
X125229337Y-92541838D02*
X125086480Y-92494219D01*
X125086480Y-92494219D02*
X124991242Y-92494219D01*
X124991242Y-92494219D02*
X124848385Y-92541838D01*
X124848385Y-92541838D02*
X124800766Y-92589457D01*
X124229337Y-92922790D02*
X124324575Y-92875171D01*
X124324575Y-92875171D02*
X124372194Y-92827552D01*
X124372194Y-92827552D02*
X124419813Y-92732314D01*
X124419813Y-92732314D02*
X124419813Y-92684695D01*
X124419813Y-92684695D02*
X124372194Y-92589457D01*
X124372194Y-92589457D02*
X124324575Y-92541838D01*
X124324575Y-92541838D02*
X124229337Y-92494219D01*
X124229337Y-92494219D02*
X124038861Y-92494219D01*
X124038861Y-92494219D02*
X123943623Y-92541838D01*
X123943623Y-92541838D02*
X123896004Y-92589457D01*
X123896004Y-92589457D02*
X123848385Y-92684695D01*
X123848385Y-92684695D02*
X123848385Y-92732314D01*
X123848385Y-92732314D02*
X123896004Y-92827552D01*
X123896004Y-92827552D02*
X123943623Y-92875171D01*
X123943623Y-92875171D02*
X124038861Y-92922790D01*
X124038861Y-92922790D02*
X124229337Y-92922790D01*
X124229337Y-92922790D02*
X124324575Y-92970409D01*
X124324575Y-92970409D02*
X124372194Y-93018028D01*
X124372194Y-93018028D02*
X124419813Y-93113266D01*
X124419813Y-93113266D02*
X124419813Y-93303742D01*
X124419813Y-93303742D02*
X124372194Y-93398980D01*
X124372194Y-93398980D02*
X124324575Y-93446600D01*
X124324575Y-93446600D02*
X124229337Y-93494219D01*
X124229337Y-93494219D02*
X124038861Y-93494219D01*
X124038861Y-93494219D02*
X123943623Y-93446600D01*
X123943623Y-93446600D02*
X123896004Y-93398980D01*
X123896004Y-93398980D02*
X123848385Y-93303742D01*
X123848385Y-93303742D02*
X123848385Y-93113266D01*
X123848385Y-93113266D02*
X123896004Y-93018028D01*
X123896004Y-93018028D02*
X123943623Y-92970409D01*
X123943623Y-92970409D02*
X124038861Y-92922790D01*
X134643404Y-114159419D02*
X134643404Y-114968942D01*
X134643404Y-114968942D02*
X134595785Y-115064180D01*
X134595785Y-115064180D02*
X134548166Y-115111800D01*
X134548166Y-115111800D02*
X134452928Y-115159419D01*
X134452928Y-115159419D02*
X134262452Y-115159419D01*
X134262452Y-115159419D02*
X134167214Y-115111800D01*
X134167214Y-115111800D02*
X134119595Y-115064180D01*
X134119595Y-115064180D02*
X134071976Y-114968942D01*
X134071976Y-114968942D02*
X134071976Y-114159419D01*
X133119595Y-114159419D02*
X133595785Y-114159419D01*
X133595785Y-114159419D02*
X133643404Y-114635609D01*
X133643404Y-114635609D02*
X133595785Y-114587990D01*
X133595785Y-114587990D02*
X133500547Y-114540371D01*
X133500547Y-114540371D02*
X133262452Y-114540371D01*
X133262452Y-114540371D02*
X133167214Y-114587990D01*
X133167214Y-114587990D02*
X133119595Y-114635609D01*
X133119595Y-114635609D02*
X133071976Y-114730847D01*
X133071976Y-114730847D02*
X133071976Y-114968942D01*
X133071976Y-114968942D02*
X133119595Y-115064180D01*
X133119595Y-115064180D02*
X133167214Y-115111800D01*
X133167214Y-115111800D02*
X133262452Y-115159419D01*
X133262452Y-115159419D02*
X133500547Y-115159419D01*
X133500547Y-115159419D02*
X133595785Y-115111800D01*
X133595785Y-115111800D02*
X133643404Y-115064180D01*
X148952104Y-96890419D02*
X148952104Y-97699942D01*
X148952104Y-97699942D02*
X148904485Y-97795180D01*
X148904485Y-97795180D02*
X148856866Y-97842800D01*
X148856866Y-97842800D02*
X148761628Y-97890419D01*
X148761628Y-97890419D02*
X148571152Y-97890419D01*
X148571152Y-97890419D02*
X148475914Y-97842800D01*
X148475914Y-97842800D02*
X148428295Y-97795180D01*
X148428295Y-97795180D02*
X148380676Y-97699942D01*
X148380676Y-97699942D02*
X148380676Y-96890419D01*
X147475914Y-97223752D02*
X147475914Y-97890419D01*
X147714009Y-96842800D02*
X147952104Y-97557085D01*
X147952104Y-97557085D02*
X147333057Y-97557085D01*
X175953980Y-79411533D02*
X176001600Y-79363914D01*
X176001600Y-79363914D02*
X176049219Y-79221057D01*
X176049219Y-79221057D02*
X176049219Y-79125819D01*
X176049219Y-79125819D02*
X176001600Y-78982962D01*
X176001600Y-78982962D02*
X175906361Y-78887724D01*
X175906361Y-78887724D02*
X175811123Y-78840105D01*
X175811123Y-78840105D02*
X175620647Y-78792486D01*
X175620647Y-78792486D02*
X175477790Y-78792486D01*
X175477790Y-78792486D02*
X175287314Y-78840105D01*
X175287314Y-78840105D02*
X175192076Y-78887724D01*
X175192076Y-78887724D02*
X175096838Y-78982962D01*
X175096838Y-78982962D02*
X175049219Y-79125819D01*
X175049219Y-79125819D02*
X175049219Y-79221057D01*
X175049219Y-79221057D02*
X175096838Y-79363914D01*
X175096838Y-79363914D02*
X175144457Y-79411533D01*
X175049219Y-79744867D02*
X175049219Y-80363914D01*
X175049219Y-80363914D02*
X175430171Y-80030581D01*
X175430171Y-80030581D02*
X175430171Y-80173438D01*
X175430171Y-80173438D02*
X175477790Y-80268676D01*
X175477790Y-80268676D02*
X175525409Y-80316295D01*
X175525409Y-80316295D02*
X175620647Y-80363914D01*
X175620647Y-80363914D02*
X175858742Y-80363914D01*
X175858742Y-80363914D02*
X175953980Y-80316295D01*
X175953980Y-80316295D02*
X176001600Y-80268676D01*
X176001600Y-80268676D02*
X176049219Y-80173438D01*
X176049219Y-80173438D02*
X176049219Y-79887724D01*
X176049219Y-79887724D02*
X176001600Y-79792486D01*
X176001600Y-79792486D02*
X175953980Y-79744867D01*
X201465219Y-86944295D02*
X202274742Y-86944295D01*
X202274742Y-86944295D02*
X202369980Y-86991914D01*
X202369980Y-86991914D02*
X202417600Y-87039533D01*
X202417600Y-87039533D02*
X202465219Y-87134771D01*
X202465219Y-87134771D02*
X202465219Y-87325247D01*
X202465219Y-87325247D02*
X202417600Y-87420485D01*
X202417600Y-87420485D02*
X202369980Y-87468104D01*
X202369980Y-87468104D02*
X202274742Y-87515723D01*
X202274742Y-87515723D02*
X201465219Y-87515723D01*
X201465219Y-88420485D02*
X201465219Y-88230009D01*
X201465219Y-88230009D02*
X201512838Y-88134771D01*
X201512838Y-88134771D02*
X201560457Y-88087152D01*
X201560457Y-88087152D02*
X201703314Y-87991914D01*
X201703314Y-87991914D02*
X201893790Y-87944295D01*
X201893790Y-87944295D02*
X202274742Y-87944295D01*
X202274742Y-87944295D02*
X202369980Y-87991914D01*
X202369980Y-87991914D02*
X202417600Y-88039533D01*
X202417600Y-88039533D02*
X202465219Y-88134771D01*
X202465219Y-88134771D02*
X202465219Y-88325247D01*
X202465219Y-88325247D02*
X202417600Y-88420485D01*
X202417600Y-88420485D02*
X202369980Y-88468104D01*
X202369980Y-88468104D02*
X202274742Y-88515723D01*
X202274742Y-88515723D02*
X202036647Y-88515723D01*
X202036647Y-88515723D02*
X201941409Y-88468104D01*
X201941409Y-88468104D02*
X201893790Y-88420485D01*
X201893790Y-88420485D02*
X201846171Y-88325247D01*
X201846171Y-88325247D02*
X201846171Y-88134771D01*
X201846171Y-88134771D02*
X201893790Y-88039533D01*
X201893790Y-88039533D02*
X201941409Y-87991914D01*
X201941409Y-87991914D02*
X202036647Y-87944295D01*
X194252838Y-70590857D02*
X194348076Y-70543238D01*
X194348076Y-70543238D02*
X194443314Y-70448000D01*
X194443314Y-70448000D02*
X194586171Y-70305142D01*
X194586171Y-70305142D02*
X194681409Y-70257523D01*
X194681409Y-70257523D02*
X194776647Y-70257523D01*
X194729028Y-70495619D02*
X194824266Y-70448000D01*
X194824266Y-70448000D02*
X194919504Y-70352761D01*
X194919504Y-70352761D02*
X194967123Y-70162285D01*
X194967123Y-70162285D02*
X194967123Y-69828952D01*
X194967123Y-69828952D02*
X194919504Y-69638476D01*
X194919504Y-69638476D02*
X194824266Y-69543238D01*
X194824266Y-69543238D02*
X194729028Y-69495619D01*
X194729028Y-69495619D02*
X194538552Y-69495619D01*
X194538552Y-69495619D02*
X194443314Y-69543238D01*
X194443314Y-69543238D02*
X194348076Y-69638476D01*
X194348076Y-69638476D02*
X194300457Y-69828952D01*
X194300457Y-69828952D02*
X194300457Y-70162285D01*
X194300457Y-70162285D02*
X194348076Y-70352761D01*
X194348076Y-70352761D02*
X194443314Y-70448000D01*
X194443314Y-70448000D02*
X194538552Y-70495619D01*
X194538552Y-70495619D02*
X194729028Y-70495619D01*
X193919504Y-69590857D02*
X193871885Y-69543238D01*
X193871885Y-69543238D02*
X193776647Y-69495619D01*
X193776647Y-69495619D02*
X193538552Y-69495619D01*
X193538552Y-69495619D02*
X193443314Y-69543238D01*
X193443314Y-69543238D02*
X193395695Y-69590857D01*
X193395695Y-69590857D02*
X193348076Y-69686095D01*
X193348076Y-69686095D02*
X193348076Y-69781333D01*
X193348076Y-69781333D02*
X193395695Y-69924190D01*
X193395695Y-69924190D02*
X193967123Y-70495619D01*
X193967123Y-70495619D02*
X193348076Y-70495619D01*
X184113466Y-59740580D02*
X184161085Y-59788200D01*
X184161085Y-59788200D02*
X184303942Y-59835819D01*
X184303942Y-59835819D02*
X184399180Y-59835819D01*
X184399180Y-59835819D02*
X184542037Y-59788200D01*
X184542037Y-59788200D02*
X184637275Y-59692961D01*
X184637275Y-59692961D02*
X184684894Y-59597723D01*
X184684894Y-59597723D02*
X184732513Y-59407247D01*
X184732513Y-59407247D02*
X184732513Y-59264390D01*
X184732513Y-59264390D02*
X184684894Y-59073914D01*
X184684894Y-59073914D02*
X184637275Y-58978676D01*
X184637275Y-58978676D02*
X184542037Y-58883438D01*
X184542037Y-58883438D02*
X184399180Y-58835819D01*
X184399180Y-58835819D02*
X184303942Y-58835819D01*
X184303942Y-58835819D02*
X184161085Y-58883438D01*
X184161085Y-58883438D02*
X184113466Y-58931057D01*
X183732513Y-58931057D02*
X183684894Y-58883438D01*
X183684894Y-58883438D02*
X183589656Y-58835819D01*
X183589656Y-58835819D02*
X183351561Y-58835819D01*
X183351561Y-58835819D02*
X183256323Y-58883438D01*
X183256323Y-58883438D02*
X183208704Y-58931057D01*
X183208704Y-58931057D02*
X183161085Y-59026295D01*
X183161085Y-59026295D02*
X183161085Y-59121533D01*
X183161085Y-59121533D02*
X183208704Y-59264390D01*
X183208704Y-59264390D02*
X183780132Y-59835819D01*
X183780132Y-59835819D02*
X183161085Y-59835819D01*
X134664011Y-125848373D02*
X134664011Y-124846656D01*
X134664011Y-124846656D02*
X134282405Y-124846656D01*
X134282405Y-124846656D02*
X134187003Y-124894357D01*
X134187003Y-124894357D02*
X134139303Y-124942058D01*
X134139303Y-124942058D02*
X134091602Y-125037460D01*
X134091602Y-125037460D02*
X134091602Y-125180562D01*
X134091602Y-125180562D02*
X134139303Y-125275964D01*
X134139303Y-125275964D02*
X134187003Y-125323664D01*
X134187003Y-125323664D02*
X134282405Y-125371365D01*
X134282405Y-125371365D02*
X134664011Y-125371365D01*
X133137586Y-125848373D02*
X133709995Y-125848373D01*
X133423790Y-125848373D02*
X133423790Y-124846656D01*
X133423790Y-124846656D02*
X133519192Y-124989759D01*
X133519192Y-124989759D02*
X133614594Y-125085160D01*
X133614594Y-125085160D02*
X133709995Y-125132861D01*
X176290266Y-56040580D02*
X176337885Y-56088200D01*
X176337885Y-56088200D02*
X176480742Y-56135819D01*
X176480742Y-56135819D02*
X176575980Y-56135819D01*
X176575980Y-56135819D02*
X176718837Y-56088200D01*
X176718837Y-56088200D02*
X176814075Y-55992961D01*
X176814075Y-55992961D02*
X176861694Y-55897723D01*
X176861694Y-55897723D02*
X176909313Y-55707247D01*
X176909313Y-55707247D02*
X176909313Y-55564390D01*
X176909313Y-55564390D02*
X176861694Y-55373914D01*
X176861694Y-55373914D02*
X176814075Y-55278676D01*
X176814075Y-55278676D02*
X176718837Y-55183438D01*
X176718837Y-55183438D02*
X176575980Y-55135819D01*
X176575980Y-55135819D02*
X176480742Y-55135819D01*
X176480742Y-55135819D02*
X176337885Y-55183438D01*
X176337885Y-55183438D02*
X176290266Y-55231057D01*
X175337885Y-56135819D02*
X175909313Y-56135819D01*
X175623599Y-56135819D02*
X175623599Y-55135819D01*
X175623599Y-55135819D02*
X175718837Y-55278676D01*
X175718837Y-55278676D02*
X175814075Y-55373914D01*
X175814075Y-55373914D02*
X175909313Y-55421533D01*
X179784380Y-87180842D02*
X179832000Y-87133223D01*
X179832000Y-87133223D02*
X179879619Y-86990366D01*
X179879619Y-86990366D02*
X179879619Y-86895128D01*
X179879619Y-86895128D02*
X179832000Y-86752271D01*
X179832000Y-86752271D02*
X179736761Y-86657033D01*
X179736761Y-86657033D02*
X179641523Y-86609414D01*
X179641523Y-86609414D02*
X179451047Y-86561795D01*
X179451047Y-86561795D02*
X179308190Y-86561795D01*
X179308190Y-86561795D02*
X179117714Y-86609414D01*
X179117714Y-86609414D02*
X179022476Y-86657033D01*
X179022476Y-86657033D02*
X178927238Y-86752271D01*
X178927238Y-86752271D02*
X178879619Y-86895128D01*
X178879619Y-86895128D02*
X178879619Y-86990366D01*
X178879619Y-86990366D02*
X178927238Y-87133223D01*
X178927238Y-87133223D02*
X178974857Y-87180842D01*
X179879619Y-88133223D02*
X179879619Y-87561795D01*
X179879619Y-87847509D02*
X178879619Y-87847509D01*
X178879619Y-87847509D02*
X179022476Y-87752271D01*
X179022476Y-87752271D02*
X179117714Y-87657033D01*
X179117714Y-87657033D02*
X179165333Y-87561795D01*
X178879619Y-88752271D02*
X178879619Y-88847509D01*
X178879619Y-88847509D02*
X178927238Y-88942747D01*
X178927238Y-88942747D02*
X178974857Y-88990366D01*
X178974857Y-88990366D02*
X179070095Y-89037985D01*
X179070095Y-89037985D02*
X179260571Y-89085604D01*
X179260571Y-89085604D02*
X179498666Y-89085604D01*
X179498666Y-89085604D02*
X179689142Y-89037985D01*
X179689142Y-89037985D02*
X179784380Y-88990366D01*
X179784380Y-88990366D02*
X179832000Y-88942747D01*
X179832000Y-88942747D02*
X179879619Y-88847509D01*
X179879619Y-88847509D02*
X179879619Y-88752271D01*
X179879619Y-88752271D02*
X179832000Y-88657033D01*
X179832000Y-88657033D02*
X179784380Y-88609414D01*
X179784380Y-88609414D02*
X179689142Y-88561795D01*
X179689142Y-88561795D02*
X179498666Y-88514176D01*
X179498666Y-88514176D02*
X179260571Y-88514176D01*
X179260571Y-88514176D02*
X179070095Y-88561795D01*
X179070095Y-88561795D02*
X178974857Y-88609414D01*
X178974857Y-88609414D02*
X178927238Y-88657033D01*
X178927238Y-88657033D02*
X178879619Y-88752271D01*
X197387019Y-74687133D02*
X196910828Y-74353800D01*
X197387019Y-74115705D02*
X196387019Y-74115705D01*
X196387019Y-74115705D02*
X196387019Y-74496657D01*
X196387019Y-74496657D02*
X196434638Y-74591895D01*
X196434638Y-74591895D02*
X196482257Y-74639514D01*
X196482257Y-74639514D02*
X196577495Y-74687133D01*
X196577495Y-74687133D02*
X196720352Y-74687133D01*
X196720352Y-74687133D02*
X196815590Y-74639514D01*
X196815590Y-74639514D02*
X196863209Y-74591895D01*
X196863209Y-74591895D02*
X196910828Y-74496657D01*
X196910828Y-74496657D02*
X196910828Y-74115705D01*
X196482257Y-75068086D02*
X196434638Y-75115705D01*
X196434638Y-75115705D02*
X196387019Y-75210943D01*
X196387019Y-75210943D02*
X196387019Y-75449038D01*
X196387019Y-75449038D02*
X196434638Y-75544276D01*
X196434638Y-75544276D02*
X196482257Y-75591895D01*
X196482257Y-75591895D02*
X196577495Y-75639514D01*
X196577495Y-75639514D02*
X196672733Y-75639514D01*
X196672733Y-75639514D02*
X196815590Y-75591895D01*
X196815590Y-75591895D02*
X197387019Y-75020467D01*
X197387019Y-75020467D02*
X197387019Y-75639514D01*
X182891204Y-109239200D02*
X182748347Y-109286819D01*
X182748347Y-109286819D02*
X182510252Y-109286819D01*
X182510252Y-109286819D02*
X182415014Y-109239200D01*
X182415014Y-109239200D02*
X182367395Y-109191580D01*
X182367395Y-109191580D02*
X182319776Y-109096342D01*
X182319776Y-109096342D02*
X182319776Y-109001104D01*
X182319776Y-109001104D02*
X182367395Y-108905866D01*
X182367395Y-108905866D02*
X182415014Y-108858247D01*
X182415014Y-108858247D02*
X182510252Y-108810628D01*
X182510252Y-108810628D02*
X182700728Y-108763009D01*
X182700728Y-108763009D02*
X182795966Y-108715390D01*
X182795966Y-108715390D02*
X182843585Y-108667771D01*
X182843585Y-108667771D02*
X182891204Y-108572533D01*
X182891204Y-108572533D02*
X182891204Y-108477295D01*
X182891204Y-108477295D02*
X182843585Y-108382057D01*
X182843585Y-108382057D02*
X182795966Y-108334438D01*
X182795966Y-108334438D02*
X182700728Y-108286819D01*
X182700728Y-108286819D02*
X182462633Y-108286819D01*
X182462633Y-108286819D02*
X182319776Y-108334438D01*
X181367395Y-109286819D02*
X181938823Y-109286819D01*
X181653109Y-109286819D02*
X181653109Y-108286819D01*
X181653109Y-108286819D02*
X181748347Y-108429676D01*
X181748347Y-108429676D02*
X181843585Y-108524914D01*
X181843585Y-108524914D02*
X181938823Y-108572533D01*
X149457390Y-86701828D02*
X149457390Y-87178019D01*
X149790723Y-86178019D02*
X149457390Y-86701828D01*
X149457390Y-86701828D02*
X149124057Y-86178019D01*
X148838342Y-86273257D02*
X148790723Y-86225638D01*
X148790723Y-86225638D02*
X148695485Y-86178019D01*
X148695485Y-86178019D02*
X148457390Y-86178019D01*
X148457390Y-86178019D02*
X148362152Y-86225638D01*
X148362152Y-86225638D02*
X148314533Y-86273257D01*
X148314533Y-86273257D02*
X148266914Y-86368495D01*
X148266914Y-86368495D02*
X148266914Y-86463733D01*
X148266914Y-86463733D02*
X148314533Y-86606590D01*
X148314533Y-86606590D02*
X148885961Y-87178019D01*
X148885961Y-87178019D02*
X148266914Y-87178019D01*
X192546266Y-66958019D02*
X192879599Y-66481828D01*
X193117694Y-66958019D02*
X193117694Y-65958019D01*
X193117694Y-65958019D02*
X192736742Y-65958019D01*
X192736742Y-65958019D02*
X192641504Y-66005638D01*
X192641504Y-66005638D02*
X192593885Y-66053257D01*
X192593885Y-66053257D02*
X192546266Y-66148495D01*
X192546266Y-66148495D02*
X192546266Y-66291352D01*
X192546266Y-66291352D02*
X192593885Y-66386590D01*
X192593885Y-66386590D02*
X192641504Y-66434209D01*
X192641504Y-66434209D02*
X192736742Y-66481828D01*
X192736742Y-66481828D02*
X193117694Y-66481828D01*
X191593885Y-66958019D02*
X192165313Y-66958019D01*
X191879599Y-66958019D02*
X191879599Y-65958019D01*
X191879599Y-65958019D02*
X191974837Y-66100876D01*
X191974837Y-66100876D02*
X192070075Y-66196114D01*
X192070075Y-66196114D02*
X192165313Y-66243733D01*
D11*
%TO.C,U2*%
X183441800Y-67948800D02*
X186991800Y-67948800D01*
X183441800Y-77948800D02*
X186991800Y-77948800D01*
D12*
X182566800Y-78703800D02*
G75*
G03*
X182566800Y-78703800I-100000J0D01*
G01*
D11*
%TO.C,J1*%
X188160800Y-59807200D02*
X188160800Y-60162200D01*
X188160800Y-59807200D02*
X195560800Y-59807200D01*
X188160800Y-64107200D02*
X188160800Y-62352200D01*
X188160800Y-64107200D02*
X188240800Y-64107200D01*
X195480800Y-64107200D02*
X195560800Y-64107200D01*
X195560800Y-59807200D02*
X195560800Y-60162200D01*
X195560800Y-62352200D02*
X195560800Y-64107200D01*
D12*
X190610800Y-65357200D02*
G75*
G03*
X190610800Y-65357200I-100000J0D01*
G01*
D13*
%TO.C,C9*%
X204462400Y-95247200D02*
X203212400Y-95247200D01*
X203837400Y-94622200D02*
X203837400Y-95872200D01*
X202972400Y-102302763D02*
X202972400Y-99517200D01*
X202972400Y-102302763D02*
X201907963Y-103367200D01*
X202972400Y-93711637D02*
X202972400Y-96497200D01*
X202972400Y-93711637D02*
X201907963Y-92647200D01*
X201907963Y-103367200D02*
X192252400Y-103367200D01*
X201907963Y-92647200D02*
X192252400Y-92647200D01*
X192252400Y-103367200D02*
X192252400Y-99517200D01*
X192252400Y-92647200D02*
X192252400Y-96497200D01*
D12*
%TO.C,J3*%
X152353400Y-124037600D02*
X152353400Y-109737600D01*
X152353400Y-124037600D02*
X143353400Y-124037600D01*
X150303400Y-109737600D02*
X152353400Y-109737600D01*
X145403400Y-109737600D02*
X143353400Y-109737600D01*
X143353400Y-124037600D02*
X143353400Y-115487600D01*
X143353400Y-109737600D02*
X143353400Y-110987600D01*
X147953400Y-108237600D02*
G75*
G03*
X147953400Y-108237600I-100000J0D01*
G01*
D13*
%TO.C,C7*%
X115532300Y-115139200D02*
X115532300Y-113889200D01*
X116157300Y-114514200D02*
X114907300Y-114514200D01*
X108476737Y-113649200D02*
X111262300Y-113649200D01*
X108476737Y-113649200D02*
X107412300Y-112584763D01*
X117067863Y-113649200D02*
X114282300Y-113649200D01*
X117067863Y-113649200D02*
X118132300Y-112584763D01*
X107412300Y-112584763D02*
X107412300Y-102929200D01*
X118132300Y-112584763D02*
X118132300Y-102929200D01*
X107412300Y-102929200D02*
X111262300Y-102929200D01*
X118132300Y-102929200D02*
X114282300Y-102929200D01*
%TO.C,C4*%
X198623600Y-63677748D02*
X198623600Y-65100252D01*
X196803600Y-63677748D02*
X196803600Y-65100252D01*
%TO.C,Q1*%
X194183000Y-77887000D02*
X194983000Y-77887000D01*
X194183000Y-77887000D02*
X193383000Y-77887000D01*
X194183000Y-74767000D02*
X195983000Y-74767000D01*
X194183000Y-74767000D02*
X193383000Y-74767000D01*
%TO.C,C8*%
X131484100Y-96579400D02*
X130234100Y-96579400D01*
X130859100Y-95954400D02*
X130859100Y-97204400D01*
X129994100Y-103634963D02*
X129994100Y-100849400D01*
X129994100Y-103634963D02*
X128929663Y-104699400D01*
X129994100Y-95043837D02*
X129994100Y-97829400D01*
X129994100Y-95043837D02*
X128929663Y-93979400D01*
X128929663Y-104699400D02*
X119274100Y-104699400D01*
X128929663Y-93979400D02*
X119274100Y-93979400D01*
X119274100Y-104699400D02*
X119274100Y-100849400D01*
X119274100Y-93979400D02*
X119274100Y-97829400D01*
%TO.C,U5*%
X130571500Y-106754600D02*
X130571500Y-107024600D01*
X130571500Y-107024600D02*
X129471500Y-107024600D01*
X130571500Y-113384600D02*
X127741500Y-113384600D01*
X130571500Y-113654600D02*
X130571500Y-113384600D01*
X136991500Y-106754600D02*
X130571500Y-106754600D01*
X136991500Y-113654600D02*
X130571500Y-113654600D01*
D11*
%TO.C,U4*%
X145620200Y-86713600D02*
X153490200Y-86713600D01*
X145620200Y-96623600D02*
X153490200Y-96623600D01*
D12*
X144580200Y-95478600D02*
G75*
G03*
X144580200Y-95478600I-100000J0D01*
G01*
D13*
%TO.C,C3*%
X178354400Y-78866948D02*
X178354400Y-80289452D01*
X176534400Y-78866948D02*
X176534400Y-80289452D01*
%TO.C,U6*%
X200920400Y-91806200D02*
X200920400Y-85796200D01*
X194100400Y-89556200D02*
X194100400Y-85796200D01*
X194100400Y-85796200D02*
X195360400Y-85796200D01*
X200920400Y-85796200D02*
X199660400Y-85796200D01*
%TO.C,Q2*%
X194157600Y-74000800D02*
X194957600Y-74000800D01*
X194157600Y-74000800D02*
X193357600Y-74000800D01*
X194157600Y-70880800D02*
X195957600Y-70880800D01*
X194157600Y-70880800D02*
X193357600Y-70880800D01*
%TO.C,C2*%
X183235548Y-56621000D02*
X184658052Y-56621000D01*
X183235548Y-58441000D02*
X184658052Y-58441000D01*
D12*
%TO.C,P1*%
X132626200Y-130866000D02*
X119526200Y-130866000D01*
X132626200Y-122066000D02*
X132626200Y-130866000D01*
X132626200Y-119066000D02*
X132626200Y-116766000D01*
X132626200Y-116766000D02*
X119526200Y-116766000D01*
X119526200Y-130866000D02*
X119526200Y-122066000D01*
X119526200Y-116766000D02*
X119526200Y-119066000D01*
D13*
%TO.C,C1*%
X176834852Y-58441000D02*
X175412348Y-58441000D01*
X176834852Y-56621000D02*
X175412348Y-56621000D01*
%TO.C,C10*%
X182964800Y-80973700D02*
X182964800Y-82223700D01*
X182339800Y-81598700D02*
X183589800Y-81598700D01*
X190020363Y-82463700D02*
X187234800Y-82463700D01*
X190020363Y-82463700D02*
X191084800Y-83528137D01*
X181429237Y-82463700D02*
X184214800Y-82463700D01*
X181429237Y-82463700D02*
X180364800Y-83528137D01*
X191084800Y-83528137D02*
X191084800Y-93183700D01*
X180364800Y-83528137D02*
X180364800Y-93183700D01*
X191084800Y-93183700D02*
X187234800Y-93183700D01*
X180364800Y-93183700D02*
X184214800Y-93183700D01*
%TO.C,R2*%
X200567200Y-74130063D02*
X200567200Y-75577537D01*
X197857200Y-74130063D02*
X197857200Y-75577537D01*
D11*
%TO.C,S1*%
X185554300Y-123967000D02*
X153554300Y-123967000D01*
X185554300Y-109967000D02*
X185554300Y-123967000D01*
X153554300Y-123967000D02*
X153554300Y-109967000D01*
X153554300Y-109967000D02*
X185554300Y-109967000D01*
D12*
X153154300Y-116967000D02*
G75*
G03*
X153154300Y-116967000I-100000J0D01*
G01*
D13*
%TO.C,Y2*%
X150681200Y-84023200D02*
G75*
G03*
X147281200Y-84023200I-1700000J0D01*
G01*
X147281200Y-84023200D02*
G75*
G03*
X150681200Y-84023200I1700000J0D01*
G01*
%TO.C,R1*%
X193103337Y-70138200D02*
X191655863Y-70138200D01*
X193103337Y-67428200D02*
X191655863Y-67428200D01*
%TD*%
M02*
